{"glyphs":{"0":{"ha":997,"x_min":50,"x_max":947,"o":"m 50 511 q 106 791 50 671 q 264 979 163 911 q 499 1047 365 1047 q 734 979 633 1047 q 891 791 835 911 q 947 511 947 671 q 894 233 947 353 q 740 48 840 114 q 499 -18 640 -18 q 258 48 358 -18 q 103 233 157 114 q 50 511 50 353 m 272 511 q 299 327 272 401 q 377 216 326 253 q 499 179 428 179 q 621 216 571 179 q 698 327 671 253 q 725 511 725 401 q 698 700 725 625 q 621 813 671 775 q 499 850 571 850 q 377 813 428 850 q 299 700 326 775 q 272 511 272 625 z "},"1":{"ha":607,"x_min":47,"x_max":496,"o":"m 281 826 l 47 826 l 47 1028 l 496 1028 l 496 0 l 281 0 l 281 826 z "},"2":{"ha":840,"x_min":42,"x_max":799,"o":"m 799 3 l 65 0 l 65 167 l 404 449 q 475 512 446 482 q 523 570 504 542 q 551 627 542 599 q 560 688 560 656 q 523 806 560 765 q 417 847 486 847 q 305 800 344 847 q 265 667 265 753 l 42 667 q 88 867 42 782 q 219 1000 135 953 q 415 1047 303 1047 q 617 1006 533 1047 q 745 888 700 965 q 790 701 790 811 q 775 601 790 649 q 732 508 760 553 q 665 422 704 464 q 578 340 626 381 l 350 150 l 267 211 l 799 211 l 799 3 z "},"3":{"ha":792,"x_min":11,"x_max":763,"o":"m 728 849 l 364 529 l 214 628 l 568 938 l 513 831 l 58 831 l 58 1028 l 728 1028 l 728 849 m 364 483 l 214 483 l 214 628 q 294 665 242 656 q 389 675 346 675 q 526 653 460 675 q 647 587 593 631 q 731 478 700 543 q 763 331 763 414 q 710 144 763 222 q 571 24 658 65 q 379 -18 483 -18 q 195 22 279 -18 q 61 142 111 63 q 11 336 11 221 l 233 336 q 275 220 233 260 q 385 181 317 181 q 491 222 450 181 q 532 332 532 264 q 493 438 532 393 q 364 483 454 483 z "},"4":{"ha":913,"x_min":28,"x_max":878,"o":"m 751 1028 l 751 0 l 539 0 l 539 1028 l 751 1028 m 28 379 l 471 1028 l 708 1028 l 256 363 l 28 379 m 878 182 l 28 182 l 28 379 l 878 379 l 878 182 z "},"5":{"ha":849,"x_min":46,"x_max":814,"o":"m 414 -17 q 221 28 304 -17 q 92 152 138 72 q 46 338 46 232 l 268 338 q 308 224 268 265 q 419 182 349 182 q 507 203 471 182 q 563 263 543 224 q 583 356 583 301 q 565 446 583 408 q 510 503 546 483 q 424 524 475 524 q 329 499 372 524 q 267 438 286 475 l 61 476 l 190 1028 l 749 1028 l 749 819 l 310 819 l 367 875 l 296 610 l 221 567 q 316 672 249 635 q 475 710 383 710 q 651 668 575 710 q 771 550 728 626 q 814 369 814 474 q 763 167 814 254 q 623 32 713 81 q 414 -17 533 -17 z "},"6":{"ha":875,"x_min":42,"x_max":833,"o":"m 213 751 l 414 1028 l 671 1028 l 386 646 l 324 660 q 390 700 344 683 q 478 717 436 717 q 663 672 583 717 q 788 546 743 626 q 833 360 833 465 q 783 163 833 247 q 643 30 732 78 q 440 -18 554 -18 q 235 32 325 -18 q 93 168 144 82 q 42 361 42 254 q 58 481 42 425 q 113 602 75 538 q 213 751 150 667 m 272 358 q 294 265 272 306 q 353 203 315 225 q 440 181 390 181 q 526 203 489 181 q 585 265 564 225 q 606 358 606 306 q 585 451 606 411 q 527 513 564 490 q 440 535 490 535 q 352 513 390 535 q 293 451 314 490 q 272 358 272 411 z "},"7":{"ha":776,"x_min":7,"x_max":769,"o":"m 7 1028 l 769 1028 l 769 819 l 7 819 l 7 1028 m 592 929 l 769 819 l 415 0 l 182 0 l 592 929 z "},"8":{"ha":915,"x_min":50,"x_max":865,"o":"m 50 297 q 110 478 50 403 q 268 571 171 553 l 269 535 q 135 618 182 558 q 88 764 88 678 q 135 912 88 849 q 266 1011 182 975 q 460 1047 350 1047 q 653 1012 571 1047 q 782 912 736 976 q 828 761 828 847 q 780 616 828 675 q 643 536 732 557 l 642 569 q 759 522 708 560 q 838 426 810 483 q 865 299 865 369 q 815 132 865 203 q 674 22 765 61 q 457 -17 582 -17 q 241 22 332 -17 q 100 131 150 60 q 50 297 50 201 m 271 313 q 293 242 271 271 q 357 197 315 213 q 457 181 399 181 q 557 197 515 181 q 621 242 599 213 q 643 313 643 271 q 593 410 643 375 q 457 446 543 446 q 321 410 371 446 q 271 313 271 375 m 290 742 q 335 660 290 690 q 456 629 379 629 q 576 660 532 629 q 621 742 621 690 q 576 826 621 794 q 456 857 532 857 q 335 826 379 857 q 290 742 290 794 z "},"9":{"ha":875,"x_min":42,"x_max":833,"o":"m 663 276 l 461 0 l 204 0 l 489 382 l 551 368 q 485 328 531 346 q 397 311 439 311 q 212 356 292 311 q 87 482 132 401 q 42 668 42 563 q 92 866 42 781 q 232 999 143 951 q 435 1046 321 1046 q 640 996 550 1046 q 782 860 731 946 q 833 667 833 775 q 817 547 833 604 q 763 426 800 490 q 663 276 725 363 m 603 669 q 582 763 603 722 q 523 825 561 803 q 435 847 485 847 q 349 825 386 847 q 290 763 311 803 q 269 669 269 722 q 290 577 269 617 q 349 515 311 538 q 435 493 386 493 q 524 515 486 493 q 582 577 561 538 q 603 669 603 617 z "},"A":{"ha":976,"x_min":13,"x_max":964,"o":"m 247 0 l 13 0 l 379 1028 l 599 1028 l 964 0 l 725 0 l 653 217 l 321 217 l 247 0 m 460 625 l 386 406 l 589 406 l 515 625 q 499 679 507 651 q 488 725 490 707 q 477 680 485 707 q 460 625 469 653 z "},"Á":{"ha":976,"x_min":13,"x_max":964,"o":"m 247 0 l 13 0 l 379 1028 l 599 1028 l 964 0 l 725 0 l 653 217 l 321 217 l 247 0 m 460 625 l 386 406 l 589 406 l 515 625 q 499 679 507 651 q 488 725 490 707 q 477 680 485 707 q 460 625 469 653 m 722 1329 l 568 1099 l 414 1099 l 531 1329 l 722 1329 z "},"Ă":{"ha":976,"x_min":13,"x_max":964,"o":"m 247 0 l 13 0 l 379 1028 l 599 1028 l 964 0 l 725 0 l 653 217 l 321 217 l 247 0 m 460 625 l 386 406 l 589 406 l 515 625 q 499 679 507 651 q 488 725 490 707 q 477 680 485 707 q 460 625 469 653 m 588 1332 l 738 1332 q 671 1151 738 1218 q 493 1085 604 1085 q 313 1151 379 1085 q 246 1332 246 1218 l 397 1332 q 422 1252 397 1281 q 493 1224 447 1224 q 563 1252 538 1224 q 588 1332 588 1281 z "},"Â":{"ha":976,"x_min":13,"x_max":964,"o":"m 247 0 l 13 0 l 379 1028 l 599 1028 l 964 0 l 725 0 l 653 217 l 321 217 l 247 0 m 460 625 l 386 406 l 589 406 l 515 625 q 499 679 507 651 q 488 725 490 707 q 477 680 485 707 q 460 625 469 653 m 413 1099 l 251 1099 l 389 1343 l 594 1343 l 732 1099 l 571 1099 l 492 1244 l 413 1099 z "},"Ä":{"ha":976,"x_min":13,"x_max":964,"o":"m 247 0 l 13 0 l 379 1028 l 599 1028 l 964 0 l 725 0 l 653 217 l 321 217 l 247 0 m 460 625 l 386 406 l 589 406 l 515 625 q 499 679 507 651 q 488 725 490 707 q 477 680 485 707 q 460 625 469 653 m 354 1108 q 278 1140 310 1108 q 247 1217 247 1171 q 279 1292 247 1261 q 354 1324 311 1324 q 430 1292 399 1324 q 461 1217 461 1260 q 430 1140 461 1172 q 354 1108 399 1108 m 629 1108 q 553 1140 585 1108 q 522 1217 522 1171 q 554 1292 522 1261 q 629 1324 586 1324 q 705 1292 674 1324 q 736 1217 736 1260 q 705 1140 736 1172 q 629 1108 674 1108 z "},"À":{"ha":976,"x_min":13,"x_max":964,"o":"m 247 0 l 13 0 l 379 1028 l 599 1028 l 964 0 l 725 0 l 653 217 l 321 217 l 247 0 m 460 625 l 386 406 l 589 406 l 515 625 q 499 679 507 651 q 488 725 490 707 q 477 680 485 707 q 460 625 469 653 m 568 1099 l 414 1099 l 260 1329 l 451 1329 l 568 1099 z "},"Ā":{"ha":976,"x_min":13,"x_max":964,"o":"m 247 0 l 13 0 l 379 1028 l 599 1028 l 964 0 l 725 0 l 653 217 l 321 217 l 247 0 m 460 625 l 386 406 l 589 406 l 515 625 q 499 679 507 651 q 488 725 490 707 q 477 680 485 707 q 460 625 469 653 m 290 1135 l 290 1279 l 693 1279 l 693 1135 l 290 1135 z "},"Ą":{"ha":976,"x_min":13,"x_max":964,"o":"m 247 0 l 13 0 l 379 1028 l 599 1028 l 964 0 l 725 0 l 653 217 l 321 217 l 247 0 m 460 625 l 386 406 l 589 406 l 515 625 q 499 679 507 651 q 488 725 490 707 q 477 680 485 707 q 460 625 469 653 m 836 0 l 963 0 q 878 -51 904 -19 q 851 -112 851 -83 q 867 -151 851 -135 q 910 -168 883 -168 q 953 -158 932 -168 l 953 -294 q 871 -310 918 -310 q 754 -265 797 -310 q 711 -161 711 -221 q 742 -68 711 -112 q 836 0 772 -24 z "},"Å":{"ha":976,"x_min":13,"x_max":964,"o":"m 247 0 l 13 0 l 379 1028 l 599 1028 l 964 0 l 725 0 l 653 217 l 321 217 l 247 0 m 460 625 l 386 406 l 589 406 l 515 625 q 499 679 507 651 q 488 725 490 707 q 477 680 485 707 q 460 625 469 653 m 492 1074 q 351 1128 407 1074 q 296 1267 296 1182 q 322 1366 296 1322 q 392 1435 347 1410 q 492 1461 436 1461 q 592 1435 547 1461 q 662 1366 636 1410 q 688 1267 688 1322 q 662 1169 688 1213 q 592 1099 636 1125 q 492 1074 549 1074 m 492 1182 q 551 1206 529 1182 q 574 1269 574 1231 q 551 1329 574 1306 q 492 1353 528 1353 q 433 1330 456 1353 q 410 1269 410 1307 q 432 1206 410 1231 q 492 1182 454 1182 z "},"Ǻ":{"ha":976,"x_min":13,"x_max":964,"o":"m 247 0 l 13 0 l 379 1028 l 599 1028 l 964 0 l 725 0 l 653 217 l 321 217 l 247 0 m 460 625 l 386 406 l 589 406 l 515 625 q 499 679 507 651 q 488 725 490 707 q 477 680 485 707 q 460 625 469 653 m 492 921 q 351 975 407 921 q 296 1114 296 1029 q 322 1213 296 1169 q 392 1283 347 1257 q 492 1308 436 1308 q 592 1283 547 1308 q 662 1213 636 1257 q 688 1114 688 1169 q 662 1016 688 1060 q 592 947 636 972 q 492 921 549 921 m 492 1029 q 551 1053 529 1029 q 574 1117 574 1078 q 551 1176 574 1153 q 492 1200 528 1200 q 433 1177 456 1200 q 410 1117 410 1154 q 432 1053 410 1078 q 492 1029 454 1029 m 725 1568 l 571 1338 l 417 1338 l 533 1568 l 725 1568 z "},"Ã":{"ha":976,"x_min":13,"x_max":964,"o":"m 247 0 l 13 0 l 379 1028 l 599 1028 l 964 0 l 725 0 l 653 217 l 321 217 l 247 0 m 460 625 l 386 406 l 589 406 l 515 625 q 499 679 507 651 q 488 725 490 707 q 477 680 485 707 q 460 625 469 653 m 347 1103 l 228 1101 q 256 1265 215 1204 q 372 1326 296 1326 q 440 1313 410 1326 q 494 1283 469 1300 q 542 1253 519 1267 q 586 1240 564 1240 q 625 1265 614 1240 q 636 1326 636 1289 l 756 1326 q 725 1157 767 1213 q 610 1101 683 1101 q 540 1115 571 1101 q 483 1144 508 1128 q 437 1174 458 1161 q 396 1188 415 1188 q 358 1165 369 1188 q 347 1103 347 1143 z "},"Æ":{"ha":1343,"x_min":6,"x_max":1265,"o":"m 6 0 l 421 1028 l 653 1028 l 263 0 l 6 0 m 267 232 l 267 421 l 700 421 l 700 232 l 267 232 m 1265 0 l 628 0 l 628 208 l 1265 208 l 1265 0 m 838 1028 l 838 0 l 613 0 l 613 1028 l 838 1028 m 1265 819 l 425 819 l 425 1028 l 1265 1028 l 1265 819 m 1217 421 l 628 421 l 628 618 l 1217 618 l 1217 421 z "},"Ǽ":{"ha":1343,"x_min":6,"x_max":1265,"o":"m 6 0 l 421 1028 l 653 1028 l 263 0 l 6 0 m 267 232 l 267 421 l 700 421 l 700 232 l 267 232 m 1265 0 l 628 0 l 628 208 l 1265 208 l 1265 0 m 838 1028 l 838 0 l 613 0 l 613 1028 l 838 1028 m 1265 819 l 425 819 l 425 1028 l 1265 1028 l 1265 819 m 1217 421 l 628 421 l 628 618 l 1217 618 l 1217 421 m 1022 1329 l 868 1099 l 714 1099 l 831 1329 l 1022 1329 z "},"B":{"ha":924,"x_min":107,"x_max":879,"o":"m 332 1028 l 332 0 l 107 0 l 107 1028 l 332 1028 m 522 418 l 260 418 l 260 607 l 511 607 q 604 636 572 607 q 636 721 636 665 q 604 803 636 775 q 511 831 572 831 l 275 831 l 275 1028 l 535 1028 q 778 951 690 1028 q 867 743 867 875 q 822 590 867 653 q 693 501 778 528 l 693 521 q 831 440 783 501 q 879 283 879 379 q 840 129 879 193 q 723 33 800 65 q 535 0 646 0 l 275 0 l 275 197 l 522 197 q 617 226 585 197 q 649 311 649 254 q 616 391 649 364 q 522 418 583 418 z "},"C":{"ha":1079,"x_min":50,"x_max":1036,"o":"m 551 -17 q 285 48 397 -17 q 111 231 172 113 q 50 513 50 350 q 114 793 50 674 q 293 978 178 913 q 561 1044 408 1044 q 791 998 690 1044 q 956 867 892 951 q 1035 667 1019 782 l 797 667 q 712 786 775 744 q 556 828 649 828 q 412 790 472 828 q 319 683 351 753 q 288 514 288 613 q 320 347 288 418 q 413 238 353 276 q 556 200 474 200 q 716 244 650 200 q 803 364 782 288 l 1036 364 q 952 164 1018 250 q 783 31 886 78 q 551 -17 681 -17 z "},"Ć":{"ha":1079,"x_min":50,"x_max":1036,"o":"m 551 -17 q 285 48 397 -17 q 111 231 172 113 q 50 513 50 350 q 114 793 50 674 q 293 978 178 913 q 561 1044 408 1044 q 791 998 690 1044 q 956 867 892 951 q 1035 667 1019 782 l 797 667 q 712 786 775 744 q 556 828 649 828 q 412 790 472 828 q 319 683 351 753 q 288 514 288 613 q 320 347 288 418 q 413 238 353 276 q 556 200 474 200 q 716 244 650 200 q 803 364 782 288 l 1036 364 q 952 164 1018 250 q 783 31 886 78 q 551 -17 681 -17 m 789 1329 l 635 1099 l 481 1099 l 597 1329 l 789 1329 z "},"Č":{"ha":1079,"x_min":50,"x_max":1036,"o":"m 551 -17 q 285 48 397 -17 q 111 231 172 113 q 50 513 50 350 q 114 793 50 674 q 293 978 178 913 q 561 1044 408 1044 q 791 998 690 1044 q 956 867 892 951 q 1035 667 1019 782 l 797 667 q 712 786 775 744 q 556 828 649 828 q 412 790 472 828 q 319 683 351 753 q 288 514 288 613 q 320 347 288 418 q 413 238 353 276 q 556 200 474 200 q 716 244 650 200 q 803 364 782 288 l 1036 364 q 952 164 1018 250 q 783 31 886 78 q 551 -17 681 -17 m 456 1099 l 318 1343 l 479 1343 l 558 1197 l 638 1343 l 799 1343 l 661 1099 l 456 1099 z "},"Ç":{"ha":1079,"x_min":50,"x_max":1036,"o":"m 551 -17 q 285 48 397 -17 q 111 231 172 113 q 50 513 50 350 q 114 793 50 674 q 293 978 178 913 q 561 1044 408 1044 q 791 998 690 1044 q 956 867 892 951 q 1035 667 1019 782 l 797 667 q 712 786 775 744 q 556 828 649 828 q 412 790 472 828 q 319 683 351 753 q 288 514 288 613 q 320 347 288 418 q 413 238 353 276 q 556 200 474 200 q 716 244 650 200 q 803 364 782 288 l 1036 364 q 952 164 1018 250 q 783 31 886 78 q 551 -17 681 -17 m 438 -296 l 438 -207 q 487 -226 464 -218 q 539 -233 510 -233 q 598 -217 579 -233 q 617 -176 617 -201 q 601 -140 617 -153 q 556 -128 585 -128 q 519 -131 535 -128 q 488 -139 503 -133 l 468 -85 l 538 60 l 597 58 l 597 13 l 546 -86 l 538 -76 q 606 -58 561 -58 q 661 -70 633 -58 q 708 -108 689 -82 q 726 -176 726 -133 q 675 -285 726 -247 q 550 -322 624 -322 q 488 -315 514 -322 q 438 -296 461 -307 z "},"Ĉ":{"ha":1079,"x_min":50,"x_max":1036,"o":"m 551 -17 q 285 48 397 -17 q 111 231 172 113 q 50 513 50 350 q 114 793 50 674 q 293 978 178 913 q 561 1044 408 1044 q 791 998 690 1044 q 956 867 892 951 q 1035 667 1019 782 l 797 667 q 712 786 775 744 q 556 828 649 828 q 412 790 472 828 q 319 683 351 753 q 288 514 288 613 q 320 347 288 418 q 413 238 353 276 q 556 200 474 200 q 716 244 650 200 q 803 364 782 288 l 1036 364 q 952 164 1018 250 q 783 31 886 78 q 551 -17 681 -17 m 479 1099 l 318 1099 l 456 1343 l 661 1343 l 799 1099 l 638 1099 l 558 1244 l 479 1099 z "},"Ċ":{"ha":1079,"x_min":50,"x_max":1036,"o":"m 551 -17 q 285 48 397 -17 q 111 231 172 113 q 50 513 50 350 q 114 793 50 674 q 293 978 178 913 q 561 1044 408 1044 q 791 998 690 1044 q 956 867 892 951 q 1035 667 1019 782 l 797 667 q 712 786 775 744 q 556 828 649 828 q 412 790 472 828 q 319 683 351 753 q 288 514 288 613 q 320 347 288 418 q 413 238 353 276 q 556 200 474 200 q 716 244 650 200 q 803 364 782 288 l 1036 364 q 952 164 1018 250 q 783 31 886 78 q 551 -17 681 -17 m 557 1108 q 477 1142 510 1108 q 444 1222 444 1175 q 478 1303 444 1269 q 557 1336 511 1336 q 638 1302 604 1336 q 671 1222 671 1268 q 638 1142 671 1175 q 557 1108 604 1108 z "},"D":{"ha":1057,"x_min":107,"x_max":1007,"o":"m 510 0 l 107 0 l 107 1028 l 496 1028 q 762 963 647 1028 q 942 781 876 897 q 1007 511 1007 664 q 944 246 1007 361 q 769 65 881 131 q 510 0 657 0 m 332 925 l 332 100 l 225 208 l 488 208 q 640 244 576 208 q 736 349 703 281 q 769 511 769 417 q 734 677 769 608 q 633 783 699 746 q 474 819 567 819 l 225 819 l 332 925 z "},"Ð":{"ha":1057,"x_min":14,"x_max":1007,"o":"m 510 0 l 107 0 l 107 1028 l 496 1028 q 762 963 647 1028 q 942 781 876 897 q 1007 511 1007 664 q 944 246 1007 361 q 769 65 881 131 q 510 0 657 0 m 332 925 l 332 100 l 225 208 l 488 208 q 640 244 576 208 q 736 349 703 281 q 769 511 769 417 q 734 677 769 608 q 633 783 699 746 q 474 819 567 819 l 225 819 l 332 925 m 14 424 l 14 606 l 533 606 l 533 424 l 14 424 z "},"Ď":{"ha":1057,"x_min":107,"x_max":1007,"o":"m 510 0 l 107 0 l 107 1028 l 496 1028 q 762 963 647 1028 q 942 781 876 897 q 1007 511 1007 664 q 944 246 1007 361 q 769 65 881 131 q 510 0 657 0 m 332 925 l 332 100 l 225 208 l 488 208 q 640 244 576 208 q 736 349 703 281 q 769 511 769 417 q 734 677 769 608 q 633 783 699 746 q 474 819 567 819 l 225 819 l 332 925 m 361 1099 l 224 1343 l 385 1343 l 464 1197 l 543 1343 l 704 1343 l 567 1099 l 361 1099 z "},"Đ":{"ha":1057,"x_min":14,"x_max":1007,"o":"m 510 0 l 107 0 l 107 1028 l 496 1028 q 762 963 647 1028 q 942 781 876 897 q 1007 511 1007 664 q 944 246 1007 361 q 769 65 881 131 q 510 0 657 0 m 332 925 l 332 100 l 225 208 l 488 208 q 640 244 576 208 q 736 349 703 281 q 769 511 769 417 q 734 677 769 608 q 633 783 699 746 q 474 819 567 819 l 225 819 l 332 925 m 14 424 l 14 606 l 533 606 l 533 424 l 14 424 z "},"E":{"ha":838,"x_min":107,"x_max":760,"o":"m 760 0 l 107 0 l 107 1028 l 760 1028 l 760 819 l 269 819 l 332 878 l 332 618 l 711 618 l 711 421 l 332 421 l 332 150 l 269 208 l 760 208 l 760 0 z "},"É":{"ha":838,"x_min":107,"x_max":760,"o":"m 760 0 l 107 0 l 107 1028 l 760 1028 l 760 819 l 269 819 l 332 878 l 332 618 l 711 618 l 711 421 l 332 421 l 332 150 l 269 208 l 760 208 l 760 0 m 664 1329 l 510 1099 l 356 1099 l 472 1329 l 664 1329 z "},"Ĕ":{"ha":838,"x_min":107,"x_max":760,"o":"m 760 0 l 107 0 l 107 1028 l 760 1028 l 760 819 l 269 819 l 332 878 l 332 618 l 711 618 l 711 421 l 332 421 l 332 150 l 269 208 l 760 208 l 760 0 m 529 1332 l 679 1332 q 613 1151 679 1218 q 435 1085 546 1085 q 254 1151 321 1085 q 188 1332 188 1218 l 339 1332 q 364 1252 339 1281 q 435 1224 389 1224 q 504 1252 479 1224 q 529 1332 529 1281 z "},"Ě":{"ha":838,"x_min":107,"x_max":760,"o":"m 760 0 l 107 0 l 107 1028 l 760 1028 l 760 819 l 269 819 l 332 878 l 332 618 l 711 618 l 711 421 l 332 421 l 332 150 l 269 208 l 760 208 l 760 0 m 331 1099 l 193 1343 l 354 1343 l 433 1197 l 513 1343 l 674 1343 l 536 1099 l 331 1099 z "},"Ê":{"ha":838,"x_min":107,"x_max":760,"o":"m 760 0 l 107 0 l 107 1028 l 760 1028 l 760 819 l 269 819 l 332 878 l 332 618 l 711 618 l 711 421 l 332 421 l 332 150 l 269 208 l 760 208 l 760 0 m 354 1099 l 193 1099 l 331 1343 l 536 1343 l 674 1099 l 513 1099 l 433 1244 l 354 1099 z "},"Ë":{"ha":838,"x_min":107,"x_max":760,"o":"m 760 0 l 107 0 l 107 1028 l 760 1028 l 760 819 l 269 819 l 332 878 l 332 618 l 711 618 l 711 421 l 332 421 l 332 150 l 269 208 l 760 208 l 760 0 m 296 1108 q 220 1140 251 1108 q 189 1217 189 1171 q 221 1292 189 1261 q 296 1324 253 1324 q 372 1292 340 1324 q 403 1217 403 1260 q 372 1140 403 1172 q 296 1108 340 1108 m 571 1108 q 495 1140 526 1108 q 464 1217 464 1171 q 496 1292 464 1261 q 571 1324 528 1324 q 647 1292 615 1324 q 678 1217 678 1260 q 647 1140 678 1172 q 571 1108 615 1108 z "},"Ė":{"ha":838,"x_min":107,"x_max":760,"o":"m 760 0 l 107 0 l 107 1028 l 760 1028 l 760 819 l 269 819 l 332 878 l 332 618 l 711 618 l 711 421 l 332 421 l 332 150 l 269 208 l 760 208 l 760 0 m 432 1108 q 352 1142 385 1108 q 319 1222 319 1175 q 353 1303 319 1269 q 432 1336 386 1336 q 513 1302 479 1336 q 546 1222 546 1268 q 513 1142 546 1175 q 432 1108 479 1108 z "},"È":{"ha":838,"x_min":107,"x_max":760,"o":"m 760 0 l 107 0 l 107 1028 l 760 1028 l 760 819 l 269 819 l 332 878 l 332 618 l 711 618 l 711 421 l 332 421 l 332 150 l 269 208 l 760 208 l 760 0 m 510 1099 l 356 1099 l 201 1329 l 393 1329 l 510 1099 z "},"Ē":{"ha":838,"x_min":107,"x_max":760,"o":"m 760 0 l 107 0 l 107 1028 l 760 1028 l 760 819 l 269 819 l 332 878 l 332 618 l 711 618 l 711 421 l 332 421 l 332 150 l 269 208 l 760 208 l 760 0 m 232 1135 l 232 1279 l 635 1279 l 635 1135 l 232 1135 z "},"Ę":{"ha":838,"x_min":107,"x_max":760,"o":"m 760 0 l 107 0 l 107 1028 l 760 1028 l 760 819 l 269 819 l 332 878 l 332 618 l 711 618 l 711 421 l 332 421 l 332 150 l 269 208 l 760 208 l 760 0 m 632 0 l 758 0 q 674 -51 700 -19 q 647 -112 647 -83 q 663 -151 647 -135 q 706 -168 679 -168 q 749 -158 728 -168 l 749 -294 q 667 -310 714 -310 q 550 -265 593 -310 q 507 -161 507 -221 q 538 -68 507 -112 q 632 0 568 -24 z "},"F":{"ha":808,"x_min":107,"x_max":761,"o":"m 332 1028 l 332 0 l 107 0 l 107 1028 l 332 1028 m 761 819 l 128 819 l 128 1028 l 761 1028 l 761 819 m 693 401 l 122 401 l 122 604 l 693 604 l 693 401 z "},"G":{"ha":1113,"x_min":50,"x_max":1033,"o":"m 569 833 q 414 792 476 833 q 319 678 351 751 q 288 504 288 604 q 324 332 288 401 q 423 228 360 263 q 568 194 486 194 q 686 213 638 194 q 765 263 735 231 q 809 335 794 294 q 824 418 824 375 l 824 500 l 931 393 l 550 393 l 550 590 l 1033 590 l 1033 0 l 840 0 l 822 140 l 847 119 q 778 49 825 79 q 670 1 732 18 q 539 -15 608 -15 q 285 51 396 -15 q 113 235 175 117 q 50 511 50 353 q 115 787 50 667 q 299 976 181 907 q 575 1044 417 1044 q 798 999 699 1044 q 960 872 897 954 q 1033 678 1022 789 l 797 678 q 714 797 778 760 q 569 833 650 833 z "},"Ğ":{"ha":1113,"x_min":50,"x_max":1033,"o":"m 569 833 q 414 792 476 833 q 319 678 351 751 q 288 504 288 604 q 324 332 288 401 q 423 228 360 263 q 568 194 486 194 q 686 213 638 194 q 765 263 735 231 q 809 335 794 294 q 824 418 824 375 l 824 500 l 931 393 l 550 393 l 550 590 l 1033 590 l 1033 0 l 840 0 l 822 140 l 847 119 q 778 49 825 79 q 670 1 732 18 q 539 -15 608 -15 q 285 51 396 -15 q 113 235 175 117 q 50 511 50 353 q 115 787 50 667 q 299 976 181 907 q 575 1044 417 1044 q 798 999 699 1044 q 960 872 897 954 q 1033 678 1022 789 l 797 678 q 714 797 778 760 q 569 833 650 833 m 669 1332 l 819 1332 q 753 1151 819 1218 q 575 1085 686 1085 q 394 1151 461 1085 q 328 1332 328 1218 l 479 1332 q 504 1252 479 1281 q 575 1224 529 1224 q 644 1252 619 1224 q 669 1332 669 1281 z "},"Ĝ":{"ha":1113,"x_min":50,"x_max":1033,"o":"m 569 833 q 414 792 476 833 q 319 678 351 751 q 288 504 288 604 q 324 332 288 401 q 423 228 360 263 q 568 194 486 194 q 686 213 638 194 q 765 263 735 231 q 809 335 794 294 q 824 418 824 375 l 824 500 l 931 393 l 550 393 l 550 590 l 1033 590 l 1033 0 l 840 0 l 822 140 l 847 119 q 778 49 825 79 q 670 1 732 18 q 539 -15 608 -15 q 285 51 396 -15 q 113 235 175 117 q 50 511 50 353 q 115 787 50 667 q 299 976 181 907 q 575 1044 417 1044 q 798 999 699 1044 q 960 872 897 954 q 1033 678 1022 789 l 797 678 q 714 797 778 760 q 569 833 650 833 m 494 1099 l 333 1099 l 471 1343 l 676 1343 l 814 1099 l 653 1099 l 574 1244 l 494 1099 z "},"Ģ":{"ha":1113,"x_min":50,"x_max":1033,"o":"m 569 833 q 414 792 476 833 q 319 678 351 751 q 288 504 288 604 q 324 332 288 401 q 423 228 360 263 q 568 194 486 194 q 686 213 638 194 q 765 263 735 231 q 809 335 794 294 q 824 418 824 375 l 824 500 l 931 393 l 550 393 l 550 590 l 1033 590 l 1033 0 l 840 0 l 822 140 l 847 119 q 778 49 825 79 q 670 1 732 18 q 539 -15 608 -15 q 285 51 396 -15 q 113 235 175 117 q 50 511 50 353 q 115 787 50 667 q 299 976 181 907 q 575 1044 417 1044 q 798 999 699 1044 q 960 872 897 954 q 1033 678 1022 789 l 797 678 q 714 797 778 760 q 569 833 650 833 m 556 -197 l 565 -214 q 546 -226 558 -222 q 518 -231 533 -231 q 456 -205 479 -231 q 433 -142 433 -179 q 461 -73 433 -99 q 535 -47 489 -47 q 612 -81 583 -47 q 640 -169 640 -114 q 619 -263 640 -221 q 554 -326 597 -306 q 444 -339 511 -347 l 444 -274 q 536 -262 510 -282 q 556 -197 563 -242 z "},"Ġ":{"ha":1113,"x_min":50,"x_max":1033,"o":"m 569 833 q 414 792 476 833 q 319 678 351 751 q 288 504 288 604 q 324 332 288 401 q 423 228 360 263 q 568 194 486 194 q 686 213 638 194 q 765 263 735 231 q 809 335 794 294 q 824 418 824 375 l 824 500 l 931 393 l 550 393 l 550 590 l 1033 590 l 1033 0 l 840 0 l 822 140 l 847 119 q 778 49 825 79 q 670 1 732 18 q 539 -15 608 -15 q 285 51 396 -15 q 113 235 175 117 q 50 511 50 353 q 115 787 50 667 q 299 976 181 907 q 575 1044 417 1044 q 798 999 699 1044 q 960 872 897 954 q 1033 678 1022 789 l 797 678 q 714 797 778 760 q 569 833 650 833 m 572 1108 q 492 1142 525 1108 q 460 1222 460 1175 q 493 1303 460 1269 q 572 1336 526 1336 q 653 1302 619 1336 q 686 1222 686 1268 q 653 1142 686 1175 q 572 1108 619 1108 z "},"H":{"ha":1061,"x_min":107,"x_max":954,"o":"m 332 0 l 107 0 l 107 1028 l 332 1028 l 332 622 l 729 622 l 729 1028 l 954 1028 l 954 0 l 729 0 l 729 414 l 332 414 l 332 0 z "},"Ħ":{"ha":1061,"x_min":3,"x_max":1060,"o":"m 332 0 l 107 0 l 107 1028 l 332 1028 l 332 622 l 729 622 l 729 1028 l 954 1028 l 954 0 l 729 0 l 729 414 l 332 414 l 332 0 m 3 733 l 3 922 l 1060 922 l 1060 733 l 3 733 z "},"I":{"ha":439,"x_min":107,"x_max":332,"o":"m 332 1028 l 332 0 l 107 0 l 107 1028 l 332 1028 z "},"Í":{"ha":439,"x_min":107,"x_max":450,"o":"m 332 1028 l 332 0 l 107 0 l 107 1028 l 332 1028 m 450 1329 l 296 1099 l 142 1099 l 258 1329 l 450 1329 z "},"Î":{"ha":439,"x_min":-21,"x_max":460,"o":"m 332 1028 l 332 0 l 107 0 l 107 1028 l 332 1028 m 140 1099 l -21 1099 l 117 1343 l 322 1343 l 460 1099 l 299 1099 l 219 1244 l 140 1099 z "},"Ï":{"ha":439,"x_min":-25,"x_max":464,"o":"m 332 1028 l 332 0 l 107 0 l 107 1028 l 332 1028 m 82 1108 q 6 1140 38 1108 q -25 1217 -25 1171 q 7 1292 -25 1261 q 82 1324 39 1324 q 158 1292 126 1324 q 189 1217 189 1260 q 158 1140 189 1172 q 82 1108 126 1108 m 357 1108 q 281 1140 313 1108 q 250 1217 250 1171 q 282 1292 250 1261 q 357 1324 314 1324 q 433 1292 401 1324 q 464 1217 464 1260 q 433 1140 464 1172 q 357 1108 401 1108 z "},"İ":{"ha":439,"x_min":106,"x_max":332,"o":"m 332 1028 l 332 0 l 107 0 l 107 1028 l 332 1028 m 218 1108 q 138 1142 171 1108 q 106 1222 106 1175 q 139 1303 106 1269 q 218 1336 172 1336 q 299 1302 265 1336 q 332 1222 332 1268 q 299 1142 332 1175 q 218 1108 265 1108 z "},"Ì":{"ha":439,"x_min":-12,"x_max":332,"o":"m 332 1028 l 332 0 l 107 0 l 107 1028 l 332 1028 m 296 1099 l 142 1099 l -12 1329 l 179 1329 l 296 1099 z "},"Ī":{"ha":439,"x_min":18,"x_max":421,"o":"m 332 1028 l 332 0 l 107 0 l 107 1028 l 332 1028 m 18 1135 l 18 1279 l 421 1279 l 421 1135 l 18 1135 z "},"Į":{"ha":439,"x_min":79,"x_max":332,"o":"m 332 1028 l 332 0 l 107 0 l 107 1028 l 332 1028 m 204 0 l 331 0 q 246 -51 272 -19 q 219 -112 219 -83 q 235 -151 219 -135 q 278 -168 251 -168 q 321 -158 300 -168 l 321 -294 q 239 -310 286 -310 q 122 -265 165 -310 q 79 -161 79 -221 q 110 -68 79 -112 q 204 0 140 -24 z "},"Ĩ":{"ha":439,"x_min":-57,"x_max":494,"o":"m 332 1028 l 332 0 l 107 0 l 107 1028 l 332 1028 m 75 1103 l -44 1101 q -17 1265 -57 1204 q 100 1326 24 1326 q 167 1313 138 1326 q 222 1283 197 1300 q 269 1253 247 1267 q 314 1240 292 1240 q 353 1265 342 1240 q 364 1326 364 1289 l 483 1326 q 453 1157 494 1213 q 338 1101 411 1101 q 267 1115 299 1101 q 211 1144 236 1128 q 165 1174 186 1161 q 124 1188 143 1188 q 86 1165 97 1188 q 75 1103 75 1143 z "},"J":{"ha":801,"x_min":28,"x_max":701,"o":"m 28 294 l 28 367 l 244 367 l 244 294 q 271 222 244 254 q 361 190 297 190 q 450 221 424 190 q 476 303 476 251 l 476 1028 l 701 1028 l 701 289 q 660 132 701 201 q 544 22 619 63 q 364 -18 468 -18 q 176 23 251 -18 q 65 135 101 64 q 28 294 28 206 z "},"Ĵ":{"ha":801,"x_min":28,"x_max":829,"o":"m 28 294 l 28 367 l 244 367 l 244 294 q 271 222 244 254 q 361 190 297 190 q 450 221 424 190 q 476 303 476 251 l 476 1028 l 701 1028 l 701 289 q 660 132 701 201 q 544 22 619 63 q 364 -18 468 -18 q 176 23 251 -18 q 65 135 101 64 q 28 294 28 206 m 510 1099 l 349 1099 l 486 1343 l 692 1343 l 829 1099 l 668 1099 l 589 1244 l 510 1099 z "},"K":{"ha":985,"x_min":107,"x_max":971,"o":"m 968 1028 l 275 122 l 275 461 l 703 1028 l 968 1028 m 332 1028 l 332 0 l 107 0 l 107 1028 l 332 1028 m 478 410 l 621 607 l 971 0 l 711 0 l 478 410 z "},"Ķ":{"ha":985,"x_min":107,"x_max":971,"o":"m 968 1028 l 275 122 l 275 461 l 703 1028 l 968 1028 m 332 1028 l 332 0 l 107 0 l 107 1028 l 332 1028 m 478 410 l 621 607 l 971 0 l 711 0 l 478 410 m 521 -197 l 531 -214 q 511 -226 524 -222 q 483 -231 499 -231 q 422 -205 444 -231 q 399 -142 399 -179 q 426 -73 399 -99 q 500 -47 454 -47 q 577 -81 549 -47 q 606 -169 606 -114 q 584 -263 606 -221 q 519 -326 563 -306 q 410 -339 476 -347 l 410 -274 q 501 -262 475 -282 q 521 -197 528 -242 z "},"L":{"ha":772,"x_min":107,"x_max":738,"o":"m 332 1028 l 332 0 l 107 0 l 107 1028 l 332 1028 m 147 0 l 147 208 l 738 208 l 738 0 l 147 0 z "},"Ĺ":{"ha":772,"x_min":107,"x_max":738,"o":"m 332 1028 l 332 0 l 107 0 l 107 1028 l 332 1028 m 147 0 l 147 208 l 738 208 l 738 0 l 147 0 m 451 1301 l 297 1071 l 143 1071 l 260 1301 l 451 1301 z "},"Ľ":{"ha":772,"x_min":107,"x_max":738,"o":"m 332 1028 l 332 0 l 107 0 l 107 1028 l 332 1028 m 147 0 l 147 208 l 738 208 l 738 0 l 147 0 m 397 756 l 397 1028 l 568 1028 l 524 756 l 397 756 z "},"Ļ":{"ha":772,"x_min":107,"x_max":738,"o":"m 332 1028 l 332 0 l 107 0 l 107 1028 l 332 1028 m 147 0 l 147 208 l 738 208 l 738 0 l 147 0 m 460 -197 l 469 -214 q 450 -226 463 -222 q 422 -231 438 -231 q 360 -205 383 -231 q 338 -142 338 -179 q 365 -73 338 -99 q 439 -47 393 -47 q 516 -81 488 -47 q 544 -169 544 -114 q 523 -263 544 -221 q 458 -326 501 -306 q 349 -339 415 -347 l 349 -274 q 440 -262 414 -282 q 460 -197 467 -242 z "},"Ŀ":{"ha":772,"x_min":107,"x_max":738,"o":"m 538 389 q 456 423 490 389 q 421 503 421 457 q 456 585 421 551 q 538 618 490 618 q 619 583 585 618 q 653 503 653 549 q 619 423 653 457 q 538 389 586 389 m 332 1028 l 332 0 l 107 0 l 107 1028 l 332 1028 m 147 0 l 147 208 l 738 208 l 738 0 l 147 0 z "},"Ł":{"ha":772,"x_min":22,"x_max":738,"o":"m 332 1028 l 332 0 l 107 0 l 107 1028 l 332 1028 m 147 0 l 147 208 l 738 208 l 738 0 l 147 0 m 22 333 l 22 500 l 490 724 l 490 557 l 22 333 z "},"M":{"ha":1265,"x_min":107,"x_max":1158,"o":"m 325 0 l 107 0 l 107 1028 l 325 1028 l 631 261 l 938 1028 l 1158 1028 l 1158 0 l 940 0 l 940 215 q 940 353 940 299 q 942 443 940 407 q 945 506 943 479 q 951 563 947 533 l 733 0 l 528 0 l 311 563 q 323 439 321 506 q 325 288 325 372 l 325 0 z "},"N":{"ha":1092,"x_min":107,"x_max":985,"o":"m 329 0 l 107 0 l 107 1028 l 329 1028 l 832 269 l 763 269 l 763 1028 l 985 1028 l 985 0 l 763 0 l 260 757 l 329 757 l 329 0 z "},"Ń":{"ha":1092,"x_min":107,"x_max":985,"o":"m 329 0 l 107 0 l 107 1028 l 329 1028 l 832 269 l 763 269 l 763 1028 l 985 1028 l 985 0 l 763 0 l 260 757 l 329 757 l 329 0 m 783 1329 l 629 1099 l 475 1099 l 592 1329 l 783 1329 z "},"Ň":{"ha":1092,"x_min":107,"x_max":985,"o":"m 329 0 l 107 0 l 107 1028 l 329 1028 l 832 269 l 763 269 l 763 1028 l 985 1028 l 985 0 l 763 0 l 260 757 l 329 757 l 329 0 m 450 1099 l 313 1343 l 474 1343 l 553 1197 l 632 1343 l 793 1343 l 656 1099 l 450 1099 z "},"Ņ":{"ha":1092,"x_min":107,"x_max":985,"o":"m 329 0 l 107 0 l 107 1028 l 329 1028 l 832 269 l 763 269 l 763 1028 l 985 1028 l 985 0 l 763 0 l 260 757 l 329 757 l 329 0 m 569 -197 l 579 -214 q 560 -226 572 -222 q 532 -231 547 -231 q 470 -205 493 -231 q 447 -142 447 -179 q 475 -73 447 -99 q 549 -47 503 -47 q 626 -81 597 -47 q 654 -169 654 -114 q 633 -263 654 -221 q 568 -326 611 -306 q 458 -339 525 -347 l 458 -274 q 550 -262 524 -282 q 569 -197 576 -242 z "},"Ŋ":{"ha":1092,"x_min":107,"x_max":985,"o":"m 724 -356 q 658 -352 690 -356 q 588 -337 625 -349 l 622 -149 q 656 -156 638 -154 q 689 -158 674 -158 q 771 -68 771 -158 l 771 -12 l 329 653 l 329 0 l 107 0 l 107 1028 l 329 1028 l 763 374 l 763 1028 l 985 1028 l 985 -96 q 917 -284 985 -212 q 724 -356 849 -356 z "},"Ñ":{"ha":1092,"x_min":107,"x_max":985,"o":"m 329 0 l 107 0 l 107 1028 l 329 1028 l 832 269 l 763 269 l 763 1028 l 985 1028 l 985 0 l 763 0 l 260 757 l 329 757 l 329 0 m 408 1103 l 289 1101 q 317 1265 276 1204 q 433 1326 357 1326 q 501 1313 471 1326 q 556 1283 531 1300 q 603 1253 581 1267 q 647 1240 625 1240 q 686 1265 675 1240 q 697 1326 697 1289 l 817 1326 q 786 1157 828 1213 q 671 1101 744 1101 q 601 1115 632 1101 q 544 1144 569 1128 q 498 1174 519 1161 q 457 1188 476 1188 q 419 1165 431 1188 q 408 1103 408 1143 z "},"O":{"ha":1107,"x_min":50,"x_max":1057,"o":"m 1057 515 q 993 238 1057 358 q 815 51 929 118 q 551 -17 701 -17 q 290 51 403 -17 q 113 238 176 118 q 50 514 50 357 q 114 791 50 671 q 291 978 178 911 q 553 1046 404 1046 q 816 978 703 1046 q 993 792 929 911 q 1057 515 1057 672 m 819 515 q 788 684 819 614 q 697 792 756 754 q 554 829 638 829 q 411 792 471 829 q 319 684 351 754 q 288 515 288 614 q 319 346 288 417 q 411 238 351 275 q 554 200 471 200 q 697 238 638 200 q 788 347 756 276 q 819 515 819 418 z "},"Ó":{"ha":1107,"x_min":50,"x_max":1057,"o":"m 1057 515 q 993 238 1057 358 q 815 51 929 118 q 551 -17 701 -17 q 290 51 403 -17 q 113 238 176 118 q 50 514 50 357 q 114 791 50 671 q 291 978 178 911 q 553 1046 404 1046 q 816 978 703 1046 q 993 792 929 911 q 1057 515 1057 672 m 819 515 q 788 684 819 614 q 697 792 756 754 q 554 829 638 829 q 411 792 471 829 q 319 684 351 754 q 288 515 288 614 q 319 346 288 417 q 411 238 351 275 q 554 200 471 200 q 697 238 638 200 q 788 347 756 276 q 819 515 819 418 m 785 1329 l 631 1099 l 476 1099 l 593 1329 l 785 1329 z "},"Ô":{"ha":1107,"x_min":50,"x_max":1057,"o":"m 1057 515 q 993 238 1057 358 q 815 51 929 118 q 551 -17 701 -17 q 290 51 403 -17 q 113 238 176 118 q 50 514 50 357 q 114 791 50 671 q 291 978 178 911 q 553 1046 404 1046 q 816 978 703 1046 q 993 792 929 911 q 1057 515 1057 672 m 819 515 q 788 684 819 614 q 697 792 756 754 q 554 829 638 829 q 411 792 471 829 q 319 684 351 754 q 288 515 288 614 q 319 346 288 417 q 411 238 351 275 q 554 200 471 200 q 697 238 638 200 q 788 347 756 276 q 819 515 819 418 m 475 1099 l 314 1099 l 451 1343 l 657 1343 l 794 1099 l 633 1099 l 554 1244 l 475 1099 z "},"Ö":{"ha":1107,"x_min":50,"x_max":1057,"o":"m 1057 515 q 993 238 1057 358 q 815 51 929 118 q 551 -17 701 -17 q 290 51 403 -17 q 113 238 176 118 q 50 514 50 357 q 114 791 50 671 q 291 978 178 911 q 553 1046 404 1046 q 816 978 703 1046 q 993 792 929 911 q 1057 515 1057 672 m 819 515 q 788 684 819 614 q 697 792 756 754 q 554 829 638 829 q 411 792 471 829 q 319 684 351 754 q 288 515 288 614 q 319 346 288 417 q 411 238 351 275 q 554 200 471 200 q 697 238 638 200 q 788 347 756 276 q 819 515 819 418 m 417 1108 q 341 1140 372 1108 q 310 1217 310 1171 q 342 1292 310 1261 q 417 1324 374 1324 q 492 1292 461 1324 q 524 1217 524 1260 q 492 1140 524 1172 q 417 1108 461 1108 m 692 1108 q 616 1140 647 1108 q 585 1217 585 1171 q 617 1292 585 1261 q 692 1324 649 1324 q 767 1292 736 1324 q 799 1217 799 1260 q 767 1140 799 1172 q 692 1108 736 1108 z "},"Ò":{"ha":1107,"x_min":50,"x_max":1057,"o":"m 1057 515 q 993 238 1057 358 q 815 51 929 118 q 551 -17 701 -17 q 290 51 403 -17 q 113 238 176 118 q 50 514 50 357 q 114 791 50 671 q 291 978 178 911 q 553 1046 404 1046 q 816 978 703 1046 q 993 792 929 911 q 1057 515 1057 672 m 819 515 q 788 684 819 614 q 697 792 756 754 q 554 829 638 829 q 411 792 471 829 q 319 684 351 754 q 288 515 288 614 q 319 346 288 417 q 411 238 351 275 q 554 200 471 200 q 697 238 638 200 q 788 347 756 276 q 819 515 819 418 m 631 1099 l 476 1099 l 322 1329 l 514 1329 l 631 1099 z "},"Ő":{"ha":1107,"x_min":50,"x_max":1057,"o":"m 1057 515 q 993 238 1057 358 q 815 51 929 118 q 551 -17 701 -17 q 290 51 403 -17 q 113 238 176 118 q 50 514 50 357 q 114 791 50 671 q 291 978 178 911 q 553 1046 404 1046 q 816 978 703 1046 q 993 792 929 911 q 1057 515 1057 672 m 819 515 q 788 684 819 614 q 697 792 756 754 q 554 829 638 829 q 411 792 471 829 q 319 684 351 754 q 288 515 288 614 q 319 346 288 417 q 411 238 351 275 q 554 200 471 200 q 697 238 638 200 q 788 347 756 276 q 819 515 819 418 m 667 1329 l 513 1099 l 365 1099 l 496 1329 l 667 1329 m 911 1329 l 757 1099 l 610 1099 l 740 1329 l 911 1329 z "},"Ō":{"ha":1107,"x_min":50,"x_max":1057,"o":"m 1057 515 q 993 238 1057 358 q 815 51 929 118 q 551 -17 701 -17 q 290 51 403 -17 q 113 238 176 118 q 50 514 50 357 q 114 791 50 671 q 291 978 178 911 q 553 1046 404 1046 q 816 978 703 1046 q 993 792 929 911 q 1057 515 1057 672 m 819 515 q 788 684 819 614 q 697 792 756 754 q 554 829 638 829 q 411 792 471 829 q 319 684 351 754 q 288 515 288 614 q 319 346 288 417 q 411 238 351 275 q 554 200 471 200 q 697 238 638 200 q 788 347 756 276 q 819 515 819 418 m 353 1135 l 353 1279 l 756 1279 l 756 1135 l 353 1135 z "},"Ø":{"ha":1107,"x_min":50,"x_max":1057,"o":"m 1057 515 q 993 238 1057 358 q 815 51 929 118 q 551 -17 701 -17 q 290 51 403 -17 q 113 238 176 118 q 50 514 50 357 q 114 791 50 671 q 291 978 178 911 q 553 1046 404 1046 q 816 978 703 1046 q 993 792 929 911 q 1057 515 1057 672 m 819 515 q 788 684 819 614 q 697 792 756 754 q 554 829 638 829 q 411 792 471 829 q 319 684 351 754 q 288 515 288 614 q 319 346 288 417 q 411 238 351 275 q 554 200 471 200 q 697 238 638 200 q 788 347 756 276 q 819 515 819 418 m 1043 1029 l 278 1 l 65 1 l 840 1029 l 1043 1029 z "},"Ǿ":{"ha":1107,"x_min":50,"x_max":1057,"o":"m 1057 515 q 993 238 1057 358 q 815 51 929 118 q 551 -17 701 -17 q 290 51 403 -17 q 113 238 176 118 q 50 514 50 357 q 114 791 50 671 q 291 978 178 911 q 553 1046 404 1046 q 816 978 703 1046 q 993 792 929 911 q 1057 515 1057 672 m 819 515 q 788 684 819 614 q 697 792 756 754 q 554 829 638 829 q 411 792 471 829 q 319 684 351 754 q 288 515 288 614 q 319 346 288 417 q 411 238 351 275 q 554 200 471 200 q 697 238 638 200 q 788 347 756 276 q 819 515 819 418 m 1043 1029 l 278 1 l 65 1 l 840 1029 l 1043 1029 m 768 1308 l 614 1078 l 460 1078 l 576 1308 l 768 1308 z "},"Õ":{"ha":1107,"x_min":50,"x_max":1057,"o":"m 1057 515 q 993 238 1057 358 q 815 51 929 118 q 551 -17 701 -17 q 290 51 403 -17 q 113 238 176 118 q 50 514 50 357 q 114 791 50 671 q 291 978 178 911 q 553 1046 404 1046 q 816 978 703 1046 q 993 792 929 911 q 1057 515 1057 672 m 819 515 q 788 684 819 614 q 697 792 756 754 q 554 829 638 829 q 411 792 471 829 q 319 684 351 754 q 288 515 288 614 q 319 346 288 417 q 411 238 351 275 q 554 200 471 200 q 697 238 638 200 q 788 347 756 276 q 819 515 819 418 m 410 1103 l 290 1101 q 318 1265 278 1204 q 435 1326 358 1326 q 502 1313 472 1326 q 557 1283 532 1300 q 604 1253 582 1267 q 649 1240 626 1240 q 688 1265 676 1240 q 699 1326 699 1289 l 818 1326 q 788 1157 829 1213 q 672 1101 746 1101 q 602 1115 633 1101 q 546 1144 571 1128 q 499 1174 521 1161 q 458 1188 478 1188 q 421 1165 432 1188 q 410 1103 410 1143 z "},"Œ":{"ha":1554,"x_min":50,"x_max":1476,"o":"m 50 514 q 85 726 50 629 q 187 895 121 824 q 346 1006 253 967 q 554 1046 439 1046 q 681 1029 618 1046 q 794 981 743 1013 q 872 906 844 950 l 824 872 l 824 1028 l 1476 1028 l 1476 819 l 1049 819 l 1049 618 l 1428 618 l 1428 421 l 1049 421 l 1049 208 l 1476 208 l 1476 0 l 824 0 l 824 93 l 832 86 q 765 36 810 60 q 663 -2 721 13 q 542 -17 606 -17 q 338 22 429 -17 q 183 133 247 61 q 84 301 118 204 q 50 514 50 399 m 288 515 q 323 344 288 414 q 419 237 358 274 q 554 200 479 200 q 690 237 629 200 q 785 344 750 274 q 819 515 819 414 q 785 687 819 617 q 690 793 750 757 q 554 829 629 829 q 419 793 479 829 q 323 687 358 757 q 288 515 288 617 z "},"P":{"ha":908,"x_min":107,"x_max":874,"o":"m 332 1028 l 332 0 l 107 0 l 107 1028 l 332 1028 m 524 342 l 276 342 l 276 542 l 474 542 q 596 577 556 542 q 636 685 636 613 q 596 792 636 757 q 474 828 556 828 l 276 828 l 276 1028 l 524 1028 q 708 985 629 1028 q 830 865 786 942 q 874 685 874 788 q 830 505 874 582 q 708 385 786 428 q 524 342 629 342 z "},"Þ":{"ha":908,"x_min":107,"x_max":874,"o":"m 332 1028 l 332 0 l 107 0 l 107 1028 l 332 1028 m 524 186 l 276 186 l 276 386 l 474 386 q 564 401 528 386 q 618 446 600 417 q 636 515 636 475 q 596 610 636 576 q 474 644 556 644 l 276 644 l 276 844 l 524 844 q 708 802 629 844 q 830 685 786 760 q 874 515 874 611 q 830 345 874 419 q 708 228 786 271 q 524 186 629 186 z "},"Q":{"ha":1107,"x_min":50,"x_max":1057,"o":"m 1057 515 q 993 238 1057 358 q 815 51 929 118 q 551 -17 701 -17 q 290 51 403 -17 q 113 238 176 118 q 50 514 50 357 q 114 791 50 671 q 291 978 178 911 q 553 1046 404 1046 q 816 978 703 1046 q 993 792 929 911 q 1057 515 1057 672 m 819 515 q 788 684 819 614 q 697 792 756 754 q 554 829 638 829 q 411 792 471 829 q 319 684 351 754 q 288 515 288 614 q 319 346 288 417 q 411 238 351 275 q 554 200 471 200 q 697 238 638 200 q 788 347 756 276 q 819 515 819 418 m 913 -89 l 510 367 l 651 492 l 1054 36 l 913 -89 z "},"R":{"ha":956,"x_min":107,"x_max":906,"o":"m 332 0 l 107 0 l 107 1028 l 504 1028 q 794 941 692 1028 q 896 694 896 854 q 853 524 896 594 q 725 408 811 453 l 906 0 l 660 0 l 506 360 l 332 360 l 332 0 m 332 828 l 332 557 l 503 557 q 617 593 576 557 q 658 694 658 629 q 619 794 658 760 q 504 828 579 828 l 332 828 z "},"Ŕ":{"ha":956,"x_min":107,"x_max":906,"o":"m 332 0 l 107 0 l 107 1028 l 504 1028 q 794 941 692 1028 q 896 694 896 854 q 853 524 896 594 q 725 408 811 453 l 906 0 l 660 0 l 506 360 l 332 360 l 332 0 m 332 828 l 332 557 l 503 557 q 617 593 576 557 q 658 694 658 629 q 619 794 658 760 q 504 828 579 828 l 332 828 m 671 1329 l 517 1099 l 363 1099 l 479 1329 l 671 1329 z "},"Ř":{"ha":956,"x_min":107,"x_max":906,"o":"m 332 0 l 107 0 l 107 1028 l 504 1028 q 794 941 692 1028 q 896 694 896 854 q 853 524 896 594 q 725 408 811 453 l 906 0 l 660 0 l 506 360 l 332 360 l 332 0 m 332 828 l 332 557 l 503 557 q 617 593 576 557 q 658 694 658 629 q 619 794 658 760 q 504 828 579 828 l 332 828 m 338 1099 l 200 1343 l 361 1343 l 440 1197 l 519 1343 l 681 1343 l 543 1099 l 338 1099 z "},"Ŗ":{"ha":956,"x_min":107,"x_max":906,"o":"m 332 0 l 107 0 l 107 1028 l 504 1028 q 794 941 692 1028 q 896 694 896 854 q 853 524 896 594 q 725 408 811 453 l 906 0 l 660 0 l 506 360 l 332 360 l 332 0 m 332 828 l 332 557 l 503 557 q 617 593 576 557 q 658 694 658 629 q 619 794 658 760 q 504 828 579 828 l 332 828 m 513 -197 l 522 -214 q 503 -226 515 -222 q 475 -231 490 -231 q 413 -205 436 -231 q 390 -142 390 -179 q 418 -73 390 -99 q 492 -47 446 -47 q 569 -81 540 -47 q 597 -169 597 -114 q 576 -263 597 -221 q 511 -326 554 -306 q 401 -339 468 -347 l 401 -274 q 493 -262 467 -282 q 513 -197 519 -242 z "},"S":{"ha":846,"x_min":35,"x_max":804,"o":"m 50 729 q 99 894 50 822 q 233 1006 147 965 q 428 1047 318 1047 q 619 1008 539 1047 q 744 899 700 969 q 788 731 788 828 l 564 731 q 526 816 564 785 q 425 847 489 847 q 316 818 357 847 q 275 738 275 789 q 300 665 275 690 q 379 629 325 640 l 533 597 q 738 501 671 569 q 804 310 804 432 q 756 137 804 211 q 619 22 707 63 q 413 -18 531 -18 q 213 21 299 -18 q 81 131 128 60 q 35 299 35 203 l 258 299 q 299 213 258 243 q 414 182 339 182 q 535 210 490 182 q 579 288 579 239 q 558 354 579 331 q 485 388 536 378 l 328 419 q 120 525 190 447 q 50 729 50 603 z "},"Ś":{"ha":846,"x_min":35,"x_max":804,"o":"m 50 729 q 99 894 50 822 q 233 1006 147 965 q 428 1047 318 1047 q 619 1008 539 1047 q 744 899 700 969 q 788 731 788 828 l 564 731 q 526 816 564 785 q 425 847 489 847 q 316 818 357 847 q 275 738 275 789 q 300 665 275 690 q 379 629 325 640 l 533 597 q 738 501 671 569 q 804 310 804 432 q 756 137 804 211 q 619 22 707 63 q 413 -18 531 -18 q 213 21 299 -18 q 81 131 128 60 q 35 299 35 203 l 258 299 q 299 213 258 243 q 414 182 339 182 q 535 210 490 182 q 579 288 579 239 q 558 354 579 331 q 485 388 536 378 l 328 419 q 120 525 190 447 q 50 729 50 603 m 650 1329 l 496 1099 l 342 1099 l 458 1329 l 650 1329 z "},"Š":{"ha":846,"x_min":35,"x_max":804,"o":"m 50 729 q 99 894 50 822 q 233 1006 147 965 q 428 1047 318 1047 q 619 1008 539 1047 q 744 899 700 969 q 788 731 788 828 l 564 731 q 526 816 564 785 q 425 847 489 847 q 316 818 357 847 q 275 738 275 789 q 300 665 275 690 q 379 629 325 640 l 533 597 q 738 501 671 569 q 804 310 804 432 q 756 137 804 211 q 619 22 707 63 q 413 -18 531 -18 q 213 21 299 -18 q 81 131 128 60 q 35 299 35 203 l 258 299 q 299 213 258 243 q 414 182 339 182 q 535 210 490 182 q 579 288 579 239 q 558 354 579 331 q 485 388 536 378 l 328 419 q 120 525 190 447 q 50 729 50 603 m 317 1099 l 179 1343 l 340 1343 l 419 1197 l 499 1343 l 660 1343 l 522 1099 l 317 1099 z "},"Ş":{"ha":846,"x_min":35,"x_max":804,"o":"m 50 729 q 99 894 50 822 q 233 1006 147 965 q 428 1047 318 1047 q 619 1008 539 1047 q 744 899 700 969 q 788 731 788 828 l 564 731 q 526 816 564 785 q 425 847 489 847 q 316 818 357 847 q 275 738 275 789 q 300 665 275 690 q 379 629 325 640 l 533 597 q 738 501 671 569 q 804 310 804 432 q 756 137 804 211 q 619 22 707 63 q 413 -18 531 -18 q 213 21 299 -18 q 81 131 128 60 q 35 299 35 203 l 258 299 q 299 213 258 243 q 414 182 339 182 q 535 210 490 182 q 579 288 579 239 q 558 354 579 331 q 485 388 536 378 l 328 419 q 120 525 190 447 q 50 729 50 603 m 304 -296 l 304 -207 q 353 -226 331 -218 q 406 -233 376 -233 q 465 -217 446 -233 q 483 -176 483 -201 q 467 -140 483 -153 q 422 -128 451 -128 q 385 -131 401 -128 q 354 -139 369 -133 l 335 -85 l 404 60 l 464 58 l 464 13 l 413 -86 l 404 -76 q 472 -58 428 -58 q 528 -70 500 -58 q 574 -108 556 -82 q 593 -176 593 -133 q 542 -285 593 -247 q 417 -322 490 -322 q 354 -315 381 -322 q 304 -296 328 -307 z "},"Ŝ":{"ha":846,"x_min":35,"x_max":804,"o":"m 50 729 q 99 894 50 822 q 233 1006 147 965 q 428 1047 318 1047 q 619 1008 539 1047 q 744 899 700 969 q 788 731 788 828 l 564 731 q 526 816 564 785 q 425 847 489 847 q 316 818 357 847 q 275 738 275 789 q 300 665 275 690 q 379 629 325 640 l 533 597 q 738 501 671 569 q 804 310 804 432 q 756 137 804 211 q 619 22 707 63 q 413 -18 531 -18 q 213 21 299 -18 q 81 131 128 60 q 35 299 35 203 l 258 299 q 299 213 258 243 q 414 182 339 182 q 535 210 490 182 q 579 288 579 239 q 558 354 579 331 q 485 388 536 378 l 328 419 q 120 525 190 447 q 50 729 50 603 m 340 1099 l 179 1099 l 317 1343 l 522 1343 l 660 1099 l 499 1099 l 419 1244 l 340 1099 z "},"Ș":{"ha":846,"x_min":35,"x_max":804,"o":"m 50 729 q 99 894 50 822 q 233 1006 147 965 q 428 1047 318 1047 q 619 1008 539 1047 q 744 899 700 969 q 788 731 788 828 l 564 731 q 526 816 564 785 q 425 847 489 847 q 316 818 357 847 q 275 738 275 789 q 300 665 275 690 q 379 629 325 640 l 533 597 q 738 501 671 569 q 804 310 804 432 q 756 137 804 211 q 619 22 707 63 q 413 -18 531 -18 q 213 21 299 -18 q 81 131 128 60 q 35 299 35 203 l 258 299 q 299 213 258 243 q 414 182 339 182 q 535 210 490 182 q 579 288 579 239 q 558 354 579 331 q 485 388 536 378 l 328 419 q 120 525 190 447 q 50 729 50 603 m 435 -197 l 444 -214 q 425 -226 438 -222 q 397 -231 413 -231 q 335 -205 358 -231 q 313 -142 313 -179 q 340 -73 313 -99 q 414 -47 368 -47 q 491 -81 463 -47 q 519 -169 519 -114 q 498 -263 519 -221 q 433 -326 476 -306 q 324 -339 390 -347 l 324 -274 q 415 -262 389 -282 q 435 -197 442 -242 z "},"T":{"ha":864,"x_min":28,"x_max":836,"o":"m 544 919 l 544 0 l 319 0 l 319 919 l 544 919 m 28 819 l 28 1028 l 836 1028 l 836 819 l 28 819 z "},"Ŧ":{"ha":864,"x_min":28,"x_max":836,"o":"m 544 919 l 544 0 l 319 0 l 319 919 l 544 919 m 28 819 l 28 1028 l 836 1028 l 836 819 l 28 819 m 172 410 l 172 592 l 692 592 l 692 410 l 172 410 z "},"Ť":{"ha":864,"x_min":28,"x_max":836,"o":"m 544 919 l 544 0 l 319 0 l 319 919 l 544 919 m 28 819 l 28 1028 l 836 1028 l 836 819 l 28 819 m 329 1099 l 192 1343 l 353 1343 l 432 1197 l 511 1343 l 672 1343 l 535 1099 l 329 1099 z "},"Ţ":{"ha":864,"x_min":28,"x_max":836,"o":"m 544 919 l 544 0 l 319 0 l 319 919 l 544 919 m 28 819 l 28 1028 l 836 1028 l 836 819 l 28 819 m 318 -296 l 318 -207 q 367 -226 344 -218 q 419 -233 390 -233 q 478 -217 460 -233 q 497 -176 497 -201 q 481 -140 497 -153 q 436 -128 465 -128 q 399 -131 415 -128 q 368 -139 383 -133 l 349 -85 l 418 60 l 478 58 l 478 13 l 426 -86 l 418 -76 q 486 -58 442 -58 q 542 -70 514 -58 q 588 -108 569 -82 q 607 -176 607 -133 q 556 -285 607 -247 q 431 -322 504 -322 q 368 -315 394 -322 q 318 -296 342 -307 z "},"Ț":{"ha":864,"x_min":28,"x_max":836,"o":"m 544 919 l 544 0 l 319 0 l 319 919 l 544 919 m 28 819 l 28 1028 l 836 1028 l 836 819 l 28 819 m 449 -197 l 458 -214 q 439 -226 451 -222 q 411 -231 426 -231 q 349 -205 372 -231 q 326 -142 326 -179 q 354 -73 326 -99 q 428 -47 382 -47 q 505 -81 476 -47 q 533 -169 533 -114 q 512 -263 533 -221 q 447 -326 490 -306 q 338 -339 404 -347 l 338 -274 q 429 -262 403 -282 q 449 -197 456 -242 z "},"U":{"ha":1047,"x_min":100,"x_max":947,"o":"m 100 386 l 100 1028 l 325 1028 l 325 401 q 376 253 325 304 q 522 201 428 201 q 670 254 618 201 q 722 401 722 307 l 722 1028 l 947 1028 l 947 386 q 895 174 947 264 q 747 33 843 83 q 522 -17 651 -17 q 299 33 394 -17 q 152 173 204 82 q 100 386 100 264 z "},"Ú":{"ha":1047,"x_min":100,"x_max":947,"o":"m 100 386 l 100 1028 l 325 1028 l 325 401 q 376 253 325 304 q 522 201 428 201 q 670 254 618 201 q 722 401 722 307 l 722 1028 l 947 1028 l 947 386 q 895 174 947 264 q 747 33 843 83 q 522 -17 651 -17 q 299 33 394 -17 q 152 173 204 82 q 100 386 100 264 m 754 1329 l 600 1099 l 446 1099 l 563 1329 l 754 1329 z "},"Û":{"ha":1047,"x_min":100,"x_max":947,"o":"m 100 386 l 100 1028 l 325 1028 l 325 401 q 376 253 325 304 q 522 201 428 201 q 670 254 618 201 q 722 401 722 307 l 722 1028 l 947 1028 l 947 386 q 895 174 947 264 q 747 33 843 83 q 522 -17 651 -17 q 299 33 394 -17 q 152 173 204 82 q 100 386 100 264 m 444 1099 l 283 1099 l 421 1343 l 626 1343 l 764 1099 l 603 1099 l 524 1244 l 444 1099 z "},"Ü":{"ha":1047,"x_min":100,"x_max":947,"o":"m 100 386 l 100 1028 l 325 1028 l 325 401 q 376 253 325 304 q 522 201 428 201 q 670 254 618 201 q 722 401 722 307 l 722 1028 l 947 1028 l 947 386 q 895 174 947 264 q 747 33 843 83 q 522 -17 651 -17 q 299 33 394 -17 q 152 173 204 82 q 100 386 100 264 m 386 1108 q 310 1140 342 1108 q 279 1217 279 1171 q 311 1292 279 1261 q 386 1324 343 1324 q 462 1292 431 1324 q 493 1217 493 1260 q 462 1140 493 1172 q 386 1108 431 1108 m 661 1108 q 585 1140 617 1108 q 554 1217 554 1171 q 586 1292 554 1261 q 661 1324 618 1324 q 737 1292 706 1324 q 768 1217 768 1260 q 737 1140 768 1172 q 661 1108 706 1108 z "},"Ù":{"ha":1047,"x_min":100,"x_max":947,"o":"m 100 386 l 100 1028 l 325 1028 l 325 401 q 376 253 325 304 q 522 201 428 201 q 670 254 618 201 q 722 401 722 307 l 722 1028 l 947 1028 l 947 386 q 895 174 947 264 q 747 33 843 83 q 522 -17 651 -17 q 299 33 394 -17 q 152 173 204 82 q 100 386 100 264 m 600 1099 l 446 1099 l 292 1329 l 483 1329 l 600 1099 z "},"Ű":{"ha":1047,"x_min":100,"x_max":947,"o":"m 100 386 l 100 1028 l 325 1028 l 325 401 q 376 253 325 304 q 522 201 428 201 q 670 254 618 201 q 722 401 722 307 l 722 1028 l 947 1028 l 947 386 q 895 174 947 264 q 747 33 843 83 q 522 -17 651 -17 q 299 33 394 -17 q 152 173 204 82 q 100 386 100 264 m 636 1329 l 482 1099 l 335 1099 l 465 1329 l 636 1329 m 881 1329 l 726 1099 l 579 1099 l 710 1329 l 881 1329 z "},"Ū":{"ha":1047,"x_min":100,"x_max":947,"o":"m 100 386 l 100 1028 l 325 1028 l 325 401 q 376 253 325 304 q 522 201 428 201 q 670 254 618 201 q 722 401 722 307 l 722 1028 l 947 1028 l 947 386 q 895 174 947 264 q 747 33 843 83 q 522 -17 651 -17 q 299 33 394 -17 q 152 173 204 82 q 100 386 100 264 m 322 1135 l 322 1279 l 725 1279 l 725 1135 l 322 1135 z "},"Ų":{"ha":1047,"x_min":100,"x_max":947,"o":"m 100 386 l 100 1028 l 325 1028 l 325 401 q 376 253 325 304 q 522 201 428 201 q 670 254 618 201 q 722 401 722 307 l 722 1028 l 947 1028 l 947 386 q 895 174 947 264 q 747 33 843 83 q 522 -17 651 -17 q 299 33 394 -17 q 152 173 204 82 q 100 386 100 264 m 532 0 l 658 0 q 574 -51 600 -19 q 547 -112 547 -83 q 563 -151 547 -135 q 606 -168 579 -168 q 649 -158 628 -168 l 649 -294 q 567 -310 614 -310 q 450 -265 493 -310 q 407 -161 407 -221 q 438 -68 407 -112 q 532 0 468 -24 z "},"Ů":{"ha":1047,"x_min":100,"x_max":947,"o":"m 100 386 l 100 1028 l 325 1028 l 325 401 q 376 253 325 304 q 522 201 428 201 q 670 254 618 201 q 722 401 722 307 l 722 1028 l 947 1028 l 947 386 q 895 174 947 264 q 747 33 843 83 q 522 -17 651 -17 q 299 33 394 -17 q 152 173 204 82 q 100 386 100 264 m 524 1074 q 383 1128 439 1074 q 328 1267 328 1182 q 353 1366 328 1322 q 424 1435 379 1410 q 524 1461 468 1461 q 624 1435 579 1461 q 694 1366 668 1410 q 719 1267 719 1322 q 694 1169 719 1213 q 624 1099 668 1125 q 524 1074 581 1074 m 524 1182 q 583 1206 561 1182 q 606 1269 606 1231 q 583 1329 606 1306 q 524 1353 560 1353 q 465 1330 488 1353 q 442 1269 442 1307 q 464 1206 442 1231 q 524 1182 486 1182 z "},"Ũ":{"ha":1047,"x_min":100,"x_max":947,"o":"m 100 386 l 100 1028 l 325 1028 l 325 401 q 376 253 325 304 q 522 201 428 201 q 670 254 618 201 q 722 401 722 307 l 722 1028 l 947 1028 l 947 386 q 895 174 947 264 q 747 33 843 83 q 522 -17 651 -17 q 299 33 394 -17 q 152 173 204 82 q 100 386 100 264 m 379 1103 l 260 1101 q 288 1265 247 1204 q 404 1326 328 1326 q 472 1313 442 1326 q 526 1283 501 1300 q 574 1253 551 1267 q 618 1240 596 1240 q 657 1265 646 1240 q 668 1326 668 1289 l 788 1326 q 757 1157 799 1213 q 642 1101 715 1101 q 572 1115 603 1101 q 515 1144 540 1128 q 469 1174 490 1161 q 428 1188 447 1188 q 390 1165 401 1188 q 379 1103 379 1143 z "},"V":{"ha":1022,"x_min":14,"x_max":1008,"o":"m 399 0 l 14 1028 l 254 1028 l 449 508 q 482 410 467 461 q 514 292 497 358 q 549 414 533 365 q 582 508 565 463 l 774 1028 l 1008 1028 l 631 0 l 399 0 z "},"W":{"ha":1485,"x_min":21,"x_max":1464,"o":"m 329 0 l 21 1028 l 256 1028 l 390 582 q 417 485 404 536 q 442 358 429 435 q 467 485 454 435 q 493 582 479 535 l 619 1028 l 871 1028 l 992 582 q 1017 483 1004 535 q 1043 358 1029 432 q 1071 485 1058 436 q 1097 579 1083 535 l 1235 1028 l 1464 1028 l 1150 0 l 931 0 l 743 675 l 550 0 l 329 0 z "},"Ẃ":{"ha":1485,"x_min":21,"x_max":1464,"o":"m 329 0 l 21 1028 l 256 1028 l 390 582 q 417 485 404 536 q 442 358 429 435 q 467 485 454 435 q 493 582 479 535 l 619 1028 l 871 1028 l 992 582 q 1017 483 1004 535 q 1043 358 1029 432 q 1071 485 1058 436 q 1097 579 1083 535 l 1235 1028 l 1464 1028 l 1150 0 l 931 0 l 743 675 l 550 0 l 329 0 m 974 1329 l 819 1099 l 665 1099 l 782 1329 l 974 1329 z "},"Ŵ":{"ha":1485,"x_min":21,"x_max":1464,"o":"m 329 0 l 21 1028 l 256 1028 l 390 582 q 417 485 404 536 q 442 358 429 435 q 467 485 454 435 q 493 582 479 535 l 619 1028 l 871 1028 l 992 582 q 1017 483 1004 535 q 1043 358 1029 432 q 1071 485 1058 436 q 1097 579 1083 535 l 1235 1028 l 1464 1028 l 1150 0 l 931 0 l 743 675 l 550 0 l 329 0 m 664 1099 l 503 1099 l 640 1343 l 846 1343 l 983 1099 l 822 1099 l 743 1244 l 664 1099 z "},"Ẅ":{"ha":1485,"x_min":21,"x_max":1464,"o":"m 329 0 l 21 1028 l 256 1028 l 390 582 q 417 485 404 536 q 442 358 429 435 q 467 485 454 435 q 493 582 479 535 l 619 1028 l 871 1028 l 992 582 q 1017 483 1004 535 q 1043 358 1029 432 q 1071 485 1058 436 q 1097 579 1083 535 l 1235 1028 l 1464 1028 l 1150 0 l 931 0 l 743 675 l 550 0 l 329 0 m 606 1108 q 530 1140 561 1108 q 499 1217 499 1171 q 531 1292 499 1261 q 606 1324 563 1324 q 681 1292 650 1324 q 713 1217 713 1260 q 681 1140 713 1172 q 606 1108 650 1108 m 881 1108 q 805 1140 836 1108 q 774 1217 774 1171 q 806 1292 774 1261 q 881 1324 838 1324 q 956 1292 925 1324 q 988 1217 988 1260 q 956 1140 988 1172 q 881 1108 925 1108 z "},"Ẁ":{"ha":1485,"x_min":21,"x_max":1464,"o":"m 329 0 l 21 1028 l 256 1028 l 390 582 q 417 485 404 536 q 442 358 429 435 q 467 485 454 435 q 493 582 479 535 l 619 1028 l 871 1028 l 992 582 q 1017 483 1004 535 q 1043 358 1029 432 q 1071 485 1058 436 q 1097 579 1083 535 l 1235 1028 l 1464 1028 l 1150 0 l 931 0 l 743 675 l 550 0 l 329 0 m 819 1099 l 665 1099 l 511 1329 l 703 1329 l 819 1099 z "},"X":{"ha":1004,"x_min":25,"x_max":979,"o":"m 368 514 l 38 1028 l 306 1028 l 392 893 q 448 801 419 850 q 511 688 476 751 l 717 1028 l 979 1028 l 654 514 l 979 0 l 713 0 l 644 107 q 576 221 606 168 q 510 342 547 274 l 289 0 l 25 0 l 368 514 z "},"Y":{"ha":947,"x_min":14,"x_max":933,"o":"m 361 390 l 14 1028 l 265 1028 l 438 694 q 459 651 450 671 q 476 611 468 631 q 489 637 483 624 q 501 665 494 650 q 517 696 508 679 l 689 1028 l 933 1028 l 586 390 l 586 0 l 361 0 l 361 390 z "},"Ý":{"ha":947,"x_min":14,"x_max":933,"o":"m 361 390 l 14 1028 l 265 1028 l 438 694 q 459 651 450 671 q 476 611 468 631 q 489 637 483 624 q 501 665 494 650 q 517 696 508 679 l 689 1028 l 933 1028 l 586 390 l 586 0 l 361 0 l 361 390 m 707 1329 l 553 1099 l 399 1099 l 515 1329 l 707 1329 z "},"Ŷ":{"ha":947,"x_min":14,"x_max":933,"o":"m 361 390 l 14 1028 l 265 1028 l 438 694 q 459 651 450 671 q 476 611 468 631 q 489 637 483 624 q 501 665 494 650 q 517 696 508 679 l 689 1028 l 933 1028 l 586 390 l 586 0 l 361 0 l 361 390 m 397 1099 l 236 1099 l 374 1343 l 579 1343 l 717 1099 l 556 1099 l 476 1244 l 397 1099 z "},"Ÿ":{"ha":947,"x_min":14,"x_max":933,"o":"m 361 390 l 14 1028 l 265 1028 l 438 694 q 459 651 450 671 q 476 611 468 631 q 489 637 483 624 q 501 665 494 650 q 517 696 508 679 l 689 1028 l 933 1028 l 586 390 l 586 0 l 361 0 l 361 390 m 339 1108 q 263 1140 294 1108 q 232 1217 232 1171 q 264 1292 232 1261 q 339 1324 296 1324 q 415 1292 383 1324 q 446 1217 446 1260 q 415 1140 446 1172 q 339 1108 383 1108 m 614 1108 q 538 1140 569 1108 q 507 1217 507 1171 q 539 1292 507 1261 q 614 1324 571 1324 q 690 1292 658 1324 q 721 1217 721 1260 q 690 1140 721 1172 q 614 1108 658 1108 z "},"Ỳ":{"ha":947,"x_min":14,"x_max":933,"o":"m 361 390 l 14 1028 l 265 1028 l 438 694 q 459 651 450 671 q 476 611 468 631 q 489 637 483 624 q 501 665 494 650 q 517 696 508 679 l 689 1028 l 933 1028 l 586 390 l 586 0 l 361 0 l 361 390 m 553 1099 l 399 1099 l 244 1329 l 436 1329 l 553 1099 z "},"Z":{"ha":824,"x_min":35,"x_max":789,"o":"m 789 0 l 35 0 l 35 211 l 493 819 l 49 819 l 49 1028 l 775 1028 l 775 826 l 310 208 l 789 208 l 789 0 z "},"Ź":{"ha":824,"x_min":35,"x_max":789,"o":"m 789 0 l 35 0 l 35 211 l 493 819 l 49 819 l 49 1028 l 775 1028 l 775 826 l 310 208 l 789 208 l 789 0 m 629 1329 l 475 1099 l 321 1099 l 438 1329 l 629 1329 z "},"Ž":{"ha":824,"x_min":35,"x_max":789,"o":"m 789 0 l 35 0 l 35 211 l 493 819 l 49 819 l 49 1028 l 775 1028 l 775 826 l 310 208 l 789 208 l 789 0 m 296 1099 l 158 1343 l 319 1343 l 399 1197 l 478 1343 l 639 1343 l 501 1099 l 296 1099 z "},"Ż":{"ha":824,"x_min":35,"x_max":789,"o":"m 789 0 l 35 0 l 35 211 l 493 819 l 49 819 l 49 1028 l 775 1028 l 775 826 l 310 208 l 789 208 l 789 0 m 397 1108 q 317 1142 350 1108 q 285 1222 285 1175 q 318 1303 285 1269 q 397 1336 351 1336 q 478 1302 444 1336 q 511 1222 511 1268 q 478 1142 511 1175 q 397 1108 444 1108 z "},"a":{"ha":783,"x_min":51,"x_max":711,"o":"m 290 -18 q 116 42 181 -18 q 51 204 51 103 q 117 357 51 300 q 308 424 183 414 l 503 439 l 503 450 q 489 508 503 485 q 449 542 475 531 q 385 554 424 554 q 281 529 317 554 q 246 457 246 504 l 68 457 q 108 594 68 536 q 223 685 149 653 q 396 717 297 717 q 567 681 497 717 q 674 575 638 644 q 711 406 711 506 l 711 0 l 522 0 l 508 92 q 430 13 492 44 q 290 -18 368 -18 m 365 140 q 465 170 426 140 q 504 260 504 200 l 504 297 l 396 288 q 298 265 326 282 q 269 214 269 247 q 293 158 269 176 q 365 140 317 140 z "},"á":{"ha":783,"x_min":51,"x_max":711,"o":"m 290 -18 q 116 42 181 -18 q 51 204 51 103 q 117 357 51 300 q 308 424 183 414 l 503 439 l 503 450 q 489 508 503 485 q 449 542 475 531 q 385 554 424 554 q 281 529 317 554 q 246 457 246 504 l 68 457 q 108 594 68 536 q 223 685 149 653 q 396 717 297 717 q 567 681 497 717 q 674 575 638 644 q 711 406 711 506 l 711 0 l 522 0 l 508 92 q 430 13 492 44 q 290 -18 368 -18 m 365 140 q 465 170 426 140 q 504 260 504 200 l 504 297 l 396 288 q 298 265 326 282 q 269 214 269 247 q 293 158 269 176 q 365 140 317 140 m 635 1010 l 481 779 l 326 779 l 443 1010 l 635 1010 z "},"ă":{"ha":783,"x_min":51,"x_max":711,"o":"m 290 -18 q 116 42 181 -18 q 51 204 51 103 q 117 357 51 300 q 308 424 183 414 l 503 439 l 503 450 q 489 508 503 485 q 449 542 475 531 q 385 554 424 554 q 281 529 317 554 q 246 457 246 504 l 68 457 q 108 594 68 536 q 223 685 149 653 q 396 717 297 717 q 567 681 497 717 q 674 575 638 644 q 711 406 711 506 l 711 0 l 522 0 l 508 92 q 430 13 492 44 q 290 -18 368 -18 m 365 140 q 465 170 426 140 q 504 260 504 200 l 504 297 l 396 288 q 298 265 326 282 q 269 214 269 247 q 293 158 269 176 q 365 140 317 140 m 500 1013 l 650 1013 q 583 832 650 899 q 406 765 517 765 q 225 832 292 765 q 158 1013 158 899 l 310 1013 q 335 933 310 961 q 406 904 360 904 q 475 933 450 904 q 500 1013 500 961 z "},"â":{"ha":783,"x_min":51,"x_max":711,"o":"m 290 -18 q 116 42 181 -18 q 51 204 51 103 q 117 357 51 300 q 308 424 183 414 l 503 439 l 503 450 q 489 508 503 485 q 449 542 475 531 q 385 554 424 554 q 281 529 317 554 q 246 457 246 504 l 68 457 q 108 594 68 536 q 223 685 149 653 q 396 717 297 717 q 567 681 497 717 q 674 575 638 644 q 711 406 711 506 l 711 0 l 522 0 l 508 92 q 430 13 492 44 q 290 -18 368 -18 m 365 140 q 465 170 426 140 q 504 260 504 200 l 504 297 l 396 288 q 298 265 326 282 q 269 214 269 247 q 293 158 269 176 q 365 140 317 140 m 325 779 l 164 779 l 301 1024 l 507 1024 l 644 779 l 483 779 l 404 925 l 325 779 z "},"ä":{"ha":783,"x_min":51,"x_max":711,"o":"m 290 -18 q 116 42 181 -18 q 51 204 51 103 q 117 357 51 300 q 308 424 183 414 l 503 439 l 503 450 q 489 508 503 485 q 449 542 475 531 q 385 554 424 554 q 281 529 317 554 q 246 457 246 504 l 68 457 q 108 594 68 536 q 223 685 149 653 q 396 717 297 717 q 567 681 497 717 q 674 575 638 644 q 711 406 711 506 l 711 0 l 522 0 l 508 92 q 430 13 492 44 q 290 -18 368 -18 m 365 140 q 465 170 426 140 q 504 260 504 200 l 504 297 l 396 288 q 298 265 326 282 q 269 214 269 247 q 293 158 269 176 q 365 140 317 140 m 267 789 q 191 820 222 789 q 160 897 160 851 q 192 973 160 942 q 267 1004 224 1004 q 342 972 311 1004 q 374 897 374 940 q 342 821 374 853 q 267 789 311 789 m 542 789 q 466 820 497 789 q 435 897 435 851 q 467 973 435 942 q 542 1004 499 1004 q 617 972 586 1004 q 649 897 649 940 q 617 821 649 853 q 542 789 586 789 z "},"à":{"ha":783,"x_min":51,"x_max":711,"o":"m 290 -18 q 116 42 181 -18 q 51 204 51 103 q 117 357 51 300 q 308 424 183 414 l 503 439 l 503 450 q 489 508 503 485 q 449 542 475 531 q 385 554 424 554 q 281 529 317 554 q 246 457 246 504 l 68 457 q 108 594 68 536 q 223 685 149 653 q 396 717 297 717 q 567 681 497 717 q 674 575 638 644 q 711 406 711 506 l 711 0 l 522 0 l 508 92 q 430 13 492 44 q 290 -18 368 -18 m 365 140 q 465 170 426 140 q 504 260 504 200 l 504 297 l 396 288 q 298 265 326 282 q 269 214 269 247 q 293 158 269 176 q 365 140 317 140 m 481 779 l 326 779 l 172 1010 l 364 1010 l 481 779 z "},"ā":{"ha":783,"x_min":51,"x_max":711,"o":"m 290 -18 q 116 42 181 -18 q 51 204 51 103 q 117 357 51 300 q 308 424 183 414 l 503 439 l 503 450 q 489 508 503 485 q 449 542 475 531 q 385 554 424 554 q 281 529 317 554 q 246 457 246 504 l 68 457 q 108 594 68 536 q 223 685 149 653 q 396 717 297 717 q 567 681 497 717 q 674 575 638 644 q 711 406 711 506 l 711 0 l 522 0 l 508 92 q 430 13 492 44 q 290 -18 368 -18 m 365 140 q 465 170 426 140 q 504 260 504 200 l 504 297 l 396 288 q 298 265 326 282 q 269 214 269 247 q 293 158 269 176 q 365 140 317 140 m 203 815 l 203 960 l 606 960 l 606 815 l 203 815 z "},"ą":{"ha":783,"x_min":51,"x_max":711,"o":"m 290 -18 q 116 42 181 -18 q 51 204 51 103 q 117 357 51 300 q 308 424 183 414 l 503 439 l 503 450 q 489 508 503 485 q 449 542 475 531 q 385 554 424 554 q 281 529 317 554 q 246 457 246 504 l 68 457 q 108 594 68 536 q 223 685 149 653 q 396 717 297 717 q 567 681 497 717 q 674 575 638 644 q 711 406 711 506 l 711 0 l 522 0 l 508 92 q 430 13 492 44 q 290 -18 368 -18 m 365 140 q 465 170 426 140 q 504 260 504 200 l 504 297 l 396 288 q 298 265 326 282 q 269 214 269 247 q 293 158 269 176 q 365 140 317 140 m 583 0 l 710 0 q 625 -51 651 -19 q 599 -112 599 -83 q 615 -151 599 -135 q 657 -168 631 -168 q 700 -158 679 -168 l 700 -294 q 618 -310 665 -310 q 501 -265 544 -310 q 458 -161 458 -221 q 489 -68 458 -112 q 583 0 519 -24 z "},"å":{"ha":783,"x_min":51,"x_max":711,"o":"m 290 -18 q 116 42 181 -18 q 51 204 51 103 q 117 357 51 300 q 308 424 183 414 l 503 439 l 503 450 q 489 508 503 485 q 449 542 475 531 q 385 554 424 554 q 281 529 317 554 q 246 457 246 504 l 68 457 q 108 594 68 536 q 223 685 149 653 q 396 717 297 717 q 567 681 497 717 q 674 575 638 644 q 711 406 711 506 l 711 0 l 522 0 l 508 92 q 430 13 492 44 q 290 -18 368 -18 m 365 140 q 465 170 426 140 q 504 260 504 200 l 504 297 l 396 288 q 298 265 326 282 q 269 214 269 247 q 293 158 269 176 q 365 140 317 140 m 404 754 q 264 808 319 754 q 208 947 208 863 q 234 1047 208 1003 q 304 1116 260 1090 q 404 1142 349 1142 q 504 1116 460 1142 q 574 1047 549 1090 q 600 947 600 1003 q 574 849 600 893 q 505 780 549 806 q 404 754 461 754 m 404 863 q 464 887 442 863 q 486 950 486 911 q 463 1010 486 986 q 404 1033 440 1033 q 345 1010 368 1033 q 322 950 322 988 q 344 887 322 911 q 404 863 367 863 z "},"ǻ":{"ha":783,"x_min":51,"x_max":711,"o":"m 290 -18 q 116 42 181 -18 q 51 204 51 103 q 117 357 51 300 q 308 424 183 414 l 503 439 l 503 450 q 489 508 503 485 q 449 542 475 531 q 385 554 424 554 q 281 529 317 554 q 246 457 246 504 l 68 457 q 108 594 68 536 q 223 685 149 653 q 396 717 297 717 q 567 681 497 717 q 674 575 638 644 q 711 406 711 506 l 711 0 l 522 0 l 508 92 q 430 13 492 44 q 290 -18 368 -18 m 365 140 q 465 170 426 140 q 504 260 504 200 l 504 297 l 396 288 q 298 265 326 282 q 269 214 269 247 q 293 158 269 176 q 365 140 317 140 m 400 608 q 260 663 315 608 q 204 801 204 717 q 230 901 204 857 q 300 970 256 944 q 400 996 344 996 q 500 970 456 996 q 570 901 544 944 q 596 801 596 857 q 570 703 596 747 q 501 634 544 660 q 400 608 457 608 m 400 717 q 460 741 438 717 q 482 804 482 765 q 459 864 482 840 q 400 888 436 888 q 341 865 364 888 q 318 804 318 842 q 340 741 318 765 q 400 717 363 717 m 617 1218 l 475 1019 l 333 1019 l 440 1218 l 617 1218 z "},"ã":{"ha":783,"x_min":51,"x_max":711,"o":"m 290 -18 q 116 42 181 -18 q 51 204 51 103 q 117 357 51 300 q 308 424 183 414 l 503 439 l 503 450 q 489 508 503 485 q 449 542 475 531 q 385 554 424 554 q 281 529 317 554 q 246 457 246 504 l 68 457 q 108 594 68 536 q 223 685 149 653 q 396 717 297 717 q 567 681 497 717 q 674 575 638 644 q 711 406 711 506 l 711 0 l 522 0 l 508 92 q 430 13 492 44 q 290 -18 368 -18 m 365 140 q 465 170 426 140 q 504 260 504 200 l 504 297 l 396 288 q 298 265 326 282 q 269 214 269 247 q 293 158 269 176 q 365 140 317 140 m 260 783 l 140 782 q 168 946 128 885 q 285 1007 208 1007 q 352 994 322 1007 q 407 964 382 981 q 454 934 432 947 q 499 921 476 921 q 538 945 526 921 q 549 1007 549 969 l 668 1007 q 638 838 679 893 q 522 782 596 782 q 452 795 483 782 q 396 825 421 808 q 349 855 371 842 q 308 868 328 868 q 271 846 282 868 q 260 783 260 824 z "},"æ":{"ha":1246,"x_min":51,"x_max":1203,"o":"m 51 204 q 122 363 51 307 q 308 419 193 418 l 503 424 l 503 450 q 471 528 503 503 q 378 554 439 554 q 280 528 314 554 q 246 457 246 501 l 68 457 q 108 593 68 535 q 218 684 147 651 q 382 717 289 717 q 528 695 471 717 q 621 633 585 674 l 575 114 q 466 15 536 47 q 306 -18 396 -18 q 117 42 183 -18 q 51 204 51 103 m 269 214 q 295 160 269 179 q 365 140 321 140 q 468 173 432 140 q 504 260 504 206 l 504 293 l 382 289 q 296 272 322 288 q 269 214 269 256 m 1200 293 l 603 290 l 606 421 l 988 421 q 952 508 988 472 q 847 543 917 543 q 753 518 788 543 q 703 451 718 493 q 689 354 689 408 q 726 211 689 267 q 854 156 764 156 q 958 178 919 156 q 1007 235 997 200 l 1203 235 q 1090 51 1185 121 q 850 -18 994 -18 q 670 28 749 -18 q 548 156 592 74 q 504 349 504 239 q 547 542 504 460 q 666 671 589 625 q 846 717 743 717 q 1038 670 958 717 q 1158 540 1117 624 q 1200 347 1200 457 l 1200 293 z "},"ǽ":{"ha":1246,"x_min":51,"x_max":1203,"o":"m 51 204 q 122 363 51 307 q 308 419 193 418 l 503 424 l 503 450 q 471 528 503 503 q 378 554 439 554 q 280 528 314 554 q 246 457 246 501 l 68 457 q 108 593 68 535 q 218 684 147 651 q 382 717 289 717 q 528 695 471 717 q 621 633 585 674 l 575 114 q 466 15 536 47 q 306 -18 396 -18 q 117 42 183 -18 q 51 204 51 103 m 269 214 q 295 160 269 179 q 365 140 321 140 q 468 173 432 140 q 504 260 504 206 l 504 293 l 382 289 q 296 272 322 288 q 269 214 269 256 m 1200 293 l 603 290 l 606 421 l 988 421 q 952 508 988 472 q 847 543 917 543 q 753 518 788 543 q 703 451 718 493 q 689 354 689 408 q 726 211 689 267 q 854 156 764 156 q 958 178 919 156 q 1007 235 997 200 l 1203 235 q 1090 51 1185 121 q 850 -18 994 -18 q 670 28 749 -18 q 548 156 592 74 q 504 349 504 239 q 547 542 504 460 q 666 671 589 625 q 846 717 743 717 q 1038 670 958 717 q 1158 540 1117 624 q 1200 347 1200 457 l 1200 293 m 836 1010 l 682 779 l 528 779 l 644 1010 l 836 1010 z "},"b":{"ha":889,"x_min":81,"x_max":846,"o":"m 282 0 l 81 0 l 81 1047 l 294 1047 l 294 614 q 390 690 326 661 q 528 718 453 718 q 697 671 625 718 q 807 539 768 624 q 846 340 846 454 q 803 152 846 233 q 685 26 761 71 q 511 -18 610 -18 q 380 12 439 -18 q 293 89 321 42 l 282 0 m 296 351 q 317 260 296 300 q 377 199 339 221 q 465 178 415 178 q 553 200 517 178 q 610 261 590 222 q 631 351 631 300 q 610 442 631 403 q 553 503 590 481 q 465 525 517 525 q 377 503 415 525 q 317 443 339 482 q 296 351 296 404 z "},"c":{"ha":790,"x_min":43,"x_max":754,"o":"m 43 350 q 89 540 43 457 q 215 669 135 622 q 399 717 294 717 q 649 638 553 717 q 754 422 744 558 l 539 422 q 495 500 528 475 q 407 525 463 525 q 328 503 363 525 q 276 443 294 482 q 258 350 258 404 q 276 255 258 294 q 326 194 293 215 q 404 174 358 174 q 495 199 461 174 q 539 276 529 225 l 754 276 q 701 123 747 189 q 578 19 654 57 q 404 -18 501 -18 q 213 28 294 -18 q 88 156 132 74 q 43 350 43 239 z "},"ć":{"ha":790,"x_min":43,"x_max":754,"o":"m 43 350 q 89 540 43 457 q 215 669 135 622 q 399 717 294 717 q 649 638 553 717 q 754 422 744 558 l 539 422 q 495 500 528 475 q 407 525 463 525 q 328 503 363 525 q 276 443 294 482 q 258 350 258 404 q 276 255 258 294 q 326 194 293 215 q 404 174 358 174 q 495 199 461 174 q 539 276 529 225 l 754 276 q 701 123 747 189 q 578 19 654 57 q 404 -18 501 -18 q 213 28 294 -18 q 88 156 132 74 q 43 350 43 239 m 631 1010 l 476 779 l 322 779 l 439 1010 l 631 1010 z "},"č":{"ha":790,"x_min":43,"x_max":754,"o":"m 43 350 q 89 540 43 457 q 215 669 135 622 q 399 717 294 717 q 649 638 553 717 q 754 422 744 558 l 539 422 q 495 500 528 475 q 407 525 463 525 q 328 503 363 525 q 276 443 294 482 q 258 350 258 404 q 276 255 258 294 q 326 194 293 215 q 404 174 358 174 q 495 199 461 174 q 539 276 529 225 l 754 276 q 701 123 747 189 q 578 19 654 57 q 404 -18 501 -18 q 213 28 294 -18 q 88 156 132 74 q 43 350 43 239 m 297 779 l 160 1024 l 321 1024 l 400 878 l 479 1024 l 640 1024 l 503 779 l 297 779 z "},"ç":{"ha":790,"x_min":43,"x_max":754,"o":"m 43 350 q 89 540 43 457 q 215 669 135 622 q 399 717 294 717 q 649 638 553 717 q 754 422 744 558 l 539 422 q 495 500 528 475 q 407 525 463 525 q 328 503 363 525 q 276 443 294 482 q 258 350 258 404 q 276 255 258 294 q 326 194 293 215 q 404 174 358 174 q 495 199 461 174 q 539 276 529 225 l 754 276 q 701 123 747 189 q 578 19 654 57 q 404 -18 501 -18 q 213 28 294 -18 q 88 156 132 74 q 43 350 43 239 m 290 -296 l 290 -207 q 340 -226 317 -218 q 392 -233 363 -233 q 451 -217 432 -233 q 469 -176 469 -201 q 453 -140 469 -153 q 408 -128 438 -128 q 372 -131 388 -128 q 340 -139 356 -133 l 321 -85 l 390 60 l 450 58 l 450 13 l 399 -86 l 390 -76 q 458 -58 414 -58 q 514 -70 486 -58 q 560 -108 542 -82 q 579 -176 579 -133 q 528 -285 579 -247 q 403 -322 476 -322 q 340 -315 367 -322 q 290 -296 314 -307 z "},"ĉ":{"ha":790,"x_min":43,"x_max":754,"o":"m 43 350 q 89 540 43 457 q 215 669 135 622 q 399 717 294 717 q 649 638 553 717 q 754 422 744 558 l 539 422 q 495 500 528 475 q 407 525 463 525 q 328 503 363 525 q 276 443 294 482 q 258 350 258 404 q 276 255 258 294 q 326 194 293 215 q 404 174 358 174 q 495 199 461 174 q 539 276 529 225 l 754 276 q 701 123 747 189 q 578 19 654 57 q 404 -18 501 -18 q 213 28 294 -18 q 88 156 132 74 q 43 350 43 239 m 321 779 l 160 779 l 297 1024 l 503 1024 l 640 779 l 479 779 l 400 925 l 321 779 z "},"ċ":{"ha":790,"x_min":43,"x_max":754,"o":"m 43 350 q 89 540 43 457 q 215 669 135 622 q 399 717 294 717 q 649 638 553 717 q 754 422 744 558 l 539 422 q 495 500 528 475 q 407 525 463 525 q 328 503 363 525 q 276 443 294 482 q 258 350 258 404 q 276 255 258 294 q 326 194 293 215 q 404 174 358 174 q 495 199 461 174 q 539 276 529 225 l 754 276 q 701 123 747 189 q 578 19 654 57 q 404 -18 501 -18 q 213 28 294 -18 q 88 156 132 74 q 43 350 43 239 m 399 789 q 319 822 351 789 q 286 903 286 856 q 319 983 286 950 q 399 1017 353 1017 q 479 983 446 1017 q 513 903 513 949 q 479 822 513 856 q 399 789 446 789 z "},"d":{"ha":889,"x_min":43,"x_max":808,"o":"m 372 -18 q 199 26 272 -18 q 84 152 125 71 q 43 343 43 233 q 85 538 43 454 q 203 669 126 622 q 386 717 281 717 q 508 693 451 717 q 594 631 564 669 l 594 1047 l 808 1047 l 808 0 l 607 0 l 596 89 q 508 12 568 42 q 372 -18 447 -18 m 424 178 q 512 199 474 178 q 572 260 550 221 q 593 351 593 300 q 572 443 593 404 q 512 503 550 482 q 424 525 474 525 q 336 503 374 525 q 278 442 299 481 q 258 351 258 403 q 278 261 258 300 q 336 200 299 222 q 424 178 374 178 z "},"ð":{"ha":842,"x_min":43,"x_max":799,"o":"m 43 340 q 92 522 43 446 q 220 641 140 599 q 393 683 300 683 q 501 668 453 683 q 585 613 550 653 l 561 613 q 522 693 544 650 q 472 783 500 736 q 408 879 444 831 q 345 963 379 921 q 271 1047 311 1006 l 513 1047 q 552 1003 533 1025 q 589 957 571 981 q 703 774 657 869 q 774 581 750 679 q 799 386 799 483 q 748 160 799 250 q 612 26 697 69 q 422 -18 526 -18 q 221 28 306 -18 q 90 154 136 74 q 43 340 43 235 m 258 332 q 276 254 258 290 q 329 196 293 218 q 419 174 365 174 q 509 195 474 174 q 562 252 544 217 q 579 329 579 288 q 561 410 579 374 q 508 469 543 447 q 418 492 472 492 q 329 469 365 492 q 276 411 293 447 q 258 332 258 375 m 274 749 l 231 864 l 672 1015 l 715 900 l 274 749 z "},"ď":{"ha":889,"x_min":43,"x_max":1044,"o":"m 372 -18 q 199 26 272 -18 q 84 152 125 71 q 43 343 43 233 q 85 538 43 454 q 203 669 126 622 q 386 717 281 717 q 508 693 451 717 q 594 631 564 669 l 594 1047 l 808 1047 l 808 0 l 607 0 l 596 89 q 508 12 568 42 q 372 -18 447 -18 m 424 178 q 512 199 474 178 q 572 260 550 221 q 593 351 593 300 q 572 443 593 404 q 512 503 550 482 q 424 525 474 525 q 336 503 374 525 q 278 442 299 481 q 258 351 258 403 q 278 261 258 300 q 336 200 299 222 q 424 178 374 178 m 874 775 l 874 1047 l 1044 1047 l 1000 775 l 874 775 z "},"đ":{"ha":889,"x_min":43,"x_max":899,"o":"m 372 -18 q 199 26 272 -18 q 84 152 125 71 q 43 343 43 233 q 85 538 43 454 q 203 669 126 622 q 386 717 281 717 q 508 693 451 717 q 594 631 564 669 l 594 1047 l 808 1047 l 808 0 l 607 0 l 596 89 q 508 12 568 42 q 372 -18 447 -18 m 424 178 q 512 199 474 178 q 572 260 550 221 q 593 351 593 300 q 572 443 593 404 q 512 503 550 482 q 424 525 474 525 q 336 503 374 525 q 278 442 299 481 q 258 351 258 403 q 278 261 258 300 q 336 200 299 222 q 424 178 374 178 m 379 925 l 899 925 l 899 801 l 379 801 l 379 925 z "},"e":{"ha":799,"x_min":43,"x_max":756,"o":"m 403 -18 q 217 29 299 -18 q 90 159 136 76 q 43 349 43 242 q 88 540 43 457 q 214 669 133 622 q 399 717 294 717 q 588 672 508 717 q 710 544 667 626 q 753 347 753 461 l 753 293 l 156 290 l 158 422 l 540 422 q 503 510 540 478 q 400 543 465 543 q 312 522 346 543 q 261 458 278 501 q 244 346 244 414 q 284 202 244 249 q 407 156 324 156 q 508 176 468 156 q 560 235 549 197 l 756 235 q 642 51 738 119 q 403 -18 546 -18 z "},"é":{"ha":799,"x_min":43,"x_max":756,"o":"m 403 -18 q 217 29 299 -18 q 90 159 136 76 q 43 349 43 242 q 88 540 43 457 q 214 669 133 622 q 399 717 294 717 q 588 672 508 717 q 710 544 667 626 q 753 347 753 461 l 753 293 l 156 290 l 158 422 l 540 422 q 503 510 540 478 q 400 543 465 543 q 312 522 346 543 q 261 458 278 501 q 244 346 244 414 q 284 202 244 249 q 407 156 324 156 q 508 176 468 156 q 560 235 549 197 l 756 235 q 642 51 738 119 q 403 -18 546 -18 m 633 1010 l 479 779 l 325 779 l 442 1010 l 633 1010 z "},"ĕ":{"ha":799,"x_min":43,"x_max":756,"o":"m 403 -18 q 217 29 299 -18 q 90 159 136 76 q 43 349 43 242 q 88 540 43 457 q 214 669 133 622 q 399 717 294 717 q 588 672 508 717 q 710 544 667 626 q 753 347 753 461 l 753 293 l 156 290 l 158 422 l 540 422 q 503 510 540 478 q 400 543 465 543 q 312 522 346 543 q 261 458 278 501 q 244 346 244 414 q 284 202 244 249 q 407 156 324 156 q 508 176 468 156 q 560 235 549 197 l 756 235 q 642 51 738 119 q 403 -18 546 -18 m 499 1013 l 649 1013 q 582 832 649 899 q 404 765 515 765 q 224 832 290 765 q 157 1013 157 899 l 308 1013 q 333 933 308 961 q 404 904 358 904 q 474 933 449 904 q 499 1013 499 961 z "},"ě":{"ha":799,"x_min":43,"x_max":756,"o":"m 403 -18 q 217 29 299 -18 q 90 159 136 76 q 43 349 43 242 q 88 540 43 457 q 214 669 133 622 q 399 717 294 717 q 588 672 508 717 q 710 544 667 626 q 753 347 753 461 l 753 293 l 156 290 l 158 422 l 540 422 q 503 510 540 478 q 400 543 465 543 q 312 522 346 543 q 261 458 278 501 q 244 346 244 414 q 284 202 244 249 q 407 156 324 156 q 508 176 468 156 q 560 235 549 197 l 756 235 q 642 51 738 119 q 403 -18 546 -18 m 300 779 l 163 1024 l 324 1024 l 403 878 l 482 1024 l 643 1024 l 506 779 l 300 779 z "},"ê":{"ha":799,"x_min":43,"x_max":756,"o":"m 403 -18 q 217 29 299 -18 q 90 159 136 76 q 43 349 43 242 q 88 540 43 457 q 214 669 133 622 q 399 717 294 717 q 588 672 508 717 q 710 544 667 626 q 753 347 753 461 l 753 293 l 156 290 l 158 422 l 540 422 q 503 510 540 478 q 400 543 465 543 q 312 522 346 543 q 261 458 278 501 q 244 346 244 414 q 284 202 244 249 q 407 156 324 156 q 508 176 468 156 q 560 235 549 197 l 756 235 q 642 51 738 119 q 403 -18 546 -18 m 324 779 l 163 779 l 300 1024 l 506 1024 l 643 779 l 482 779 l 403 925 l 324 779 z "},"ë":{"ha":799,"x_min":43,"x_max":756,"o":"m 403 -18 q 217 29 299 -18 q 90 159 136 76 q 43 349 43 242 q 88 540 43 457 q 214 669 133 622 q 399 717 294 717 q 588 672 508 717 q 710 544 667 626 q 753 347 753 461 l 753 293 l 156 290 l 158 422 l 540 422 q 503 510 540 478 q 400 543 465 543 q 312 522 346 543 q 261 458 278 501 q 244 346 244 414 q 284 202 244 249 q 407 156 324 156 q 508 176 468 156 q 560 235 549 197 l 756 235 q 642 51 738 119 q 403 -18 546 -18 m 265 789 q 190 820 221 789 q 158 897 158 851 q 190 973 158 942 q 265 1004 222 1004 q 341 972 310 1004 q 372 897 372 940 q 341 821 372 853 q 265 789 310 789 m 540 789 q 465 820 496 789 q 433 897 433 851 q 465 973 433 942 q 540 1004 497 1004 q 616 972 585 1004 q 647 897 647 940 q 616 821 647 853 q 540 789 585 789 z "},"ė":{"ha":799,"x_min":43,"x_max":756,"o":"m 403 -18 q 217 29 299 -18 q 90 159 136 76 q 43 349 43 242 q 88 540 43 457 q 214 669 133 622 q 399 717 294 717 q 588 672 508 717 q 710 544 667 626 q 753 347 753 461 l 753 293 l 156 290 l 158 422 l 540 422 q 503 510 540 478 q 400 543 465 543 q 312 522 346 543 q 261 458 278 501 q 244 346 244 414 q 284 202 244 249 q 407 156 324 156 q 508 176 468 156 q 560 235 549 197 l 756 235 q 642 51 738 119 q 403 -18 546 -18 m 401 789 q 322 822 354 789 q 289 903 289 856 q 322 983 289 950 q 401 1017 356 1017 q 482 983 449 1017 q 515 903 515 949 q 482 822 515 856 q 401 789 449 789 z "},"è":{"ha":799,"x_min":43,"x_max":756,"o":"m 403 -18 q 217 29 299 -18 q 90 159 136 76 q 43 349 43 242 q 88 540 43 457 q 214 669 133 622 q 399 717 294 717 q 588 672 508 717 q 710 544 667 626 q 753 347 753 461 l 753 293 l 156 290 l 158 422 l 540 422 q 503 510 540 478 q 400 543 465 543 q 312 522 346 543 q 261 458 278 501 q 244 346 244 414 q 284 202 244 249 q 407 156 324 156 q 508 176 468 156 q 560 235 549 197 l 756 235 q 642 51 738 119 q 403 -18 546 -18 m 479 779 l 325 779 l 171 1010 l 363 1010 l 479 779 z "},"ē":{"ha":799,"x_min":43,"x_max":756,"o":"m 403 -18 q 217 29 299 -18 q 90 159 136 76 q 43 349 43 242 q 88 540 43 457 q 214 669 133 622 q 399 717 294 717 q 588 672 508 717 q 710 544 667 626 q 753 347 753 461 l 753 293 l 156 290 l 158 422 l 540 422 q 503 510 540 478 q 400 543 465 543 q 312 522 346 543 q 261 458 278 501 q 244 346 244 414 q 284 202 244 249 q 407 156 324 156 q 508 176 468 156 q 560 235 549 197 l 756 235 q 642 51 738 119 q 403 -18 546 -18 m 201 815 l 201 960 l 604 960 l 604 815 l 201 815 z "},"ę":{"ha":799,"x_min":43,"x_max":756,"o":"m 403 -18 q 217 29 299 -18 q 90 159 136 76 q 43 349 43 242 q 88 540 43 457 q 214 669 133 622 q 399 717 294 717 q 588 672 508 717 q 710 544 667 626 q 753 347 753 461 l 753 293 l 156 290 l 158 422 l 540 422 q 503 510 540 478 q 400 543 465 543 q 312 522 346 543 q 261 458 278 501 q 244 346 244 414 q 284 202 244 249 q 407 156 324 156 q 508 176 468 156 q 560 235 549 197 l 756 235 q 642 51 738 119 q 403 -18 546 -18 m 408 0 l 535 0 q 450 -51 476 -19 q 424 -112 424 -83 q 440 -151 424 -135 q 482 -168 456 -168 q 525 -158 504 -168 l 525 -294 q 443 -310 490 -310 q 326 -265 369 -310 q 283 -161 283 -221 q 314 -68 283 -112 q 408 0 344 -24 z "},"f":{"ha":507,"x_min":15,"x_max":492,"o":"m 15 694 l 492 694 l 492 517 l 15 517 l 15 694 m 492 1039 l 492 856 q 459 856 474 856 q 432 856 444 856 q 346 825 367 856 q 325 750 325 794 l 325 0 l 111 0 l 111 750 q 146 919 111 854 q 244 1016 181 985 q 396 1047 308 1047 q 442 1045 418 1047 q 492 1039 467 1043 z "},"g":{"ha":879,"x_min":43,"x_max":799,"o":"m 46 360 q 88 546 46 465 q 206 672 131 626 q 379 718 282 718 q 520 685 461 718 q 601 597 579 651 l 581 583 l 597 694 l 799 694 l 799 44 q 753 -169 799 -79 q 622 -306 707 -258 q 418 -354 538 -354 q 158 -269 258 -354 q 43 -36 58 -183 l 260 -36 q 304 -127 263 -94 q 417 -160 346 -160 q 540 -117 494 -160 q 585 0 585 -74 l 585 147 l 608 129 q 522 42 586 75 q 375 8 458 8 q 203 53 278 8 q 88 176 129 97 q 46 360 46 256 m 261 365 q 282 277 261 315 q 339 217 303 239 q 422 194 375 194 q 508 216 471 194 q 565 276 544 238 q 585 365 585 314 q 565 453 585 417 q 508 511 544 490 q 421 532 471 532 q 338 511 374 532 q 281 453 301 490 q 261 365 261 415 z "},"ğ":{"ha":879,"x_min":43,"x_max":799,"o":"m 46 360 q 88 546 46 465 q 206 672 131 626 q 379 718 282 718 q 520 685 461 718 q 601 597 579 651 l 581 583 l 597 694 l 799 694 l 799 44 q 753 -169 799 -79 q 622 -306 707 -258 q 418 -354 538 -354 q 158 -269 258 -354 q 43 -36 58 -183 l 260 -36 q 304 -127 263 -94 q 417 -160 346 -160 q 540 -117 494 -160 q 585 0 585 -74 l 585 147 l 608 129 q 522 42 586 75 q 375 8 458 8 q 203 53 278 8 q 88 176 129 97 q 46 360 46 256 m 261 365 q 282 277 261 315 q 339 217 303 239 q 422 194 375 194 q 508 216 471 194 q 565 276 544 238 q 585 365 585 314 q 565 453 585 417 q 508 511 544 490 q 421 532 471 532 q 338 511 374 532 q 281 453 301 490 q 261 365 261 415 m 497 1013 l 647 1013 q 581 832 647 899 q 403 765 514 765 q 222 832 289 765 q 156 1013 156 899 l 307 1013 q 332 933 307 961 q 403 904 357 904 q 472 933 447 904 q 497 1013 497 961 z "},"ĝ":{"ha":879,"x_min":43,"x_max":799,"o":"m 46 360 q 88 546 46 465 q 206 672 131 626 q 379 718 282 718 q 520 685 461 718 q 601 597 579 651 l 581 583 l 597 694 l 799 694 l 799 44 q 753 -169 799 -79 q 622 -306 707 -258 q 418 -354 538 -354 q 158 -269 258 -354 q 43 -36 58 -183 l 260 -36 q 304 -127 263 -94 q 417 -160 346 -160 q 540 -117 494 -160 q 585 0 585 -74 l 585 147 l 608 129 q 522 42 586 75 q 375 8 458 8 q 203 53 278 8 q 88 176 129 97 q 46 360 46 256 m 261 365 q 282 277 261 315 q 339 217 303 239 q 422 194 375 194 q 508 216 471 194 q 565 276 544 238 q 585 365 585 314 q 565 453 585 417 q 508 511 544 490 q 421 532 471 532 q 338 511 374 532 q 281 453 301 490 q 261 365 261 415 m 322 779 l 161 779 l 299 1024 l 504 1024 l 642 779 l 481 779 l 401 925 l 322 779 z "},"ģ":{"ha":879,"x_min":43,"x_max":799,"o":"m 46 360 q 88 546 46 465 q 206 672 131 626 q 379 718 282 718 q 520 685 461 718 q 601 597 579 651 l 581 583 l 597 694 l 799 694 l 799 44 q 753 -169 799 -79 q 622 -306 707 -258 q 418 -354 538 -354 q 158 -269 258 -354 q 43 -36 58 -183 l 260 -36 q 304 -127 263 -94 q 417 -160 346 -160 q 540 -117 494 -160 q 585 0 585 -74 l 585 147 l 608 129 q 522 42 586 75 q 375 8 458 8 q 203 53 278 8 q 88 176 129 97 q 46 360 46 256 m 261 365 q 282 277 261 315 q 339 217 303 239 q 422 194 375 194 q 508 216 471 194 q 565 276 544 238 q 585 365 585 314 q 565 453 585 417 q 508 511 544 490 q 421 532 471 532 q 338 511 374 532 q 281 453 301 490 q 261 365 261 415 m 372 957 l 363 974 q 382 986 369 982 q 410 990 394 990 q 472 965 449 990 q 494 901 494 939 q 467 833 494 858 q 393 807 439 807 q 317 840 346 807 q 288 929 288 874 q 309 1024 288 982 q 374 1087 331 1065 q 483 1099 418 1108 l 483 1033 q 392 1022 419 1042 q 372 957 365 1001 z "},"ġ":{"ha":879,"x_min":43,"x_max":799,"o":"m 46 360 q 88 546 46 465 q 206 672 131 626 q 379 718 282 718 q 520 685 461 718 q 601 597 579 651 l 581 583 l 597 694 l 799 694 l 799 44 q 753 -169 799 -79 q 622 -306 707 -258 q 418 -354 538 -354 q 158 -269 258 -354 q 43 -36 58 -183 l 260 -36 q 304 -127 263 -94 q 417 -160 346 -160 q 540 -117 494 -160 q 585 0 585 -74 l 585 147 l 608 129 q 522 42 586 75 q 375 8 458 8 q 203 53 278 8 q 88 176 129 97 q 46 360 46 256 m 261 365 q 282 277 261 315 q 339 217 303 239 q 422 194 375 194 q 508 216 471 194 q 565 276 544 238 q 585 365 585 314 q 565 453 585 417 q 508 511 544 490 q 421 532 471 532 q 338 511 374 532 q 281 453 301 490 q 261 365 261 415 m 400 789 q 320 822 353 789 q 288 903 288 856 q 321 983 288 950 q 400 1017 354 1017 q 481 983 447 1017 q 514 903 514 949 q 481 822 514 856 q 400 789 447 789 z "},"h":{"ha":842,"x_min":81,"x_max":769,"o":"m 294 0 l 81 0 l 81 1047 l 296 1047 l 296 622 q 384 692 328 667 q 508 717 440 717 q 701 641 632 717 q 769 429 769 565 l 769 0 l 556 0 l 556 378 q 540 454 556 422 q 498 504 525 486 q 433 522 471 522 q 360 505 392 522 q 312 456 329 488 q 294 381 294 424 l 294 0 z "},"ħ":{"ha":842,"x_min":-10,"x_max":769,"o":"m 294 0 l 81 0 l 81 1047 l 296 1047 l 296 622 q 384 692 328 667 q 508 717 440 717 q 701 641 632 717 q 769 429 769 565 l 769 0 l 556 0 l 556 378 q 540 454 556 422 q 498 504 525 486 q 433 522 471 522 q 360 505 392 522 q 312 456 329 488 q 294 381 294 424 l 294 0 m -10 925 l 510 925 l 510 801 l -10 801 l -10 925 z "},"i":{"ha":375,"x_min":64,"x_max":307,"o":"m 81 0 l 81 694 l 294 694 l 294 0 l 81 0 m 186 803 q 99 838 135 803 q 64 925 64 874 q 99 1011 64 976 q 186 1046 135 1046 q 272 1011 236 1046 q 307 925 307 976 q 272 838 307 874 q 186 803 236 803 z "},"í":{"ha":375,"x_min":81,"x_max":419,"o":"m 81 0 l 81 694 l 294 694 l 294 0 l 81 0 m 419 1010 l 265 779 l 111 779 l 228 1010 l 419 1010 z "},"î":{"ha":375,"x_min":-51,"x_max":429,"o":"m 81 0 l 81 694 l 294 694 l 294 0 l 81 0 m 110 779 l -51 779 l 86 1024 l 292 1024 l 429 779 l 268 779 l 189 925 l 110 779 z "},"ï":{"ha":375,"x_min":-56,"x_max":433,"o":"m 81 0 l 81 694 l 294 694 l 294 0 l 81 0 m 51 789 q -24 820 7 789 q -56 897 -56 851 q -24 973 -56 942 q 51 1004 8 1004 q 127 972 96 1004 q 158 897 158 940 q 127 821 158 853 q 51 789 96 789 m 326 789 q 251 820 282 789 q 219 897 219 851 q 251 973 219 942 q 326 1004 283 1004 q 402 972 371 1004 q 433 897 433 940 q 402 821 433 853 q 326 789 371 789 z "},"ì":{"ha":375,"x_min":-43,"x_max":294,"o":"m 81 0 l 81 694 l 294 694 l 294 0 l 81 0 m 265 779 l 111 779 l -43 1010 l 149 1010 l 265 779 z "},"ī":{"ha":375,"x_min":-12,"x_max":390,"o":"m 81 0 l 81 694 l 294 694 l 294 0 l 81 0 m -12 815 l -12 960 l 390 960 l 390 815 l -12 815 z "},"į":{"ha":375,"x_min":42,"x_max":307,"o":"m 81 0 l 81 694 l 294 694 l 294 0 l 81 0 m 167 0 l 293 0 q 208 -51 235 -19 q 182 -112 182 -83 q 198 -151 182 -135 q 240 -168 214 -168 q 283 -158 263 -168 l 283 -294 q 201 -310 249 -310 q 85 -265 128 -310 q 42 -161 42 -221 q 72 -68 42 -112 q 167 0 103 -24 m 186 803 q 99 838 135 803 q 64 925 64 874 q 99 1011 64 976 q 186 1046 135 1046 q 272 1011 236 1046 q 307 925 307 976 q 272 838 307 874 q 186 803 236 803 z "},"ĩ":{"ha":375,"x_min":-87,"x_max":464,"o":"m 81 0 l 81 694 l 294 694 l 294 0 l 81 0 m 44 783 l -75 782 q -47 946 -87 885 q 69 1007 -7 1007 q 137 994 107 1007 q 192 964 167 981 q 239 934 217 947 q 283 921 261 921 q 322 945 311 921 q 333 1007 333 969 l 453 1007 q 422 838 464 893 q 307 782 381 782 q 237 795 268 782 q 181 825 206 808 q 134 855 156 842 q 93 868 113 868 q 56 846 67 868 q 44 783 44 824 z "},"j":{"ha":375,"x_min":-75,"x_max":308,"o":"m -75 -339 l -40 -150 q -14 -157 -25 -156 q 13 -158 -3 -158 q 67 -136 53 -158 q 81 -68 81 -114 l 81 694 l 294 694 l 294 -96 q 226 -284 294 -212 q 33 -356 158 -356 q -13 -353 11 -356 q -75 -339 -37 -350 m 188 803 q 101 838 136 803 q 65 925 65 874 q 101 1011 65 976 q 188 1046 136 1046 q 273 1011 238 1046 q 308 925 308 976 q 273 838 308 874 q 188 803 238 803 z "},"ĵ":{"ha":375,"x_min":-75,"x_max":431,"o":"m -75 -339 l -40 -150 q -14 -157 -25 -156 q 13 -158 -3 -158 q 67 -136 53 -158 q 81 -68 81 -114 l 81 694 l 294 694 l 294 -96 q 226 -284 294 -212 q 33 -356 158 -356 q -13 -353 11 -356 q -75 -339 -37 -350 m 111 779 l -50 779 l 88 1024 l 293 1024 l 431 779 l 269 779 l 190 925 l 111 779 z "},"k":{"ha":794,"x_min":81,"x_max":788,"o":"m 294 0 l 81 0 l 81 1047 l 294 1047 l 294 444 l 519 694 l 788 694 l 526 419 l 779 0 l 532 0 l 376 260 l 294 174 l 294 0 z "},"ķ":{"ha":794,"x_min":81,"x_max":788,"o":"m 294 0 l 81 0 l 81 1047 l 294 1047 l 294 444 l 519 694 l 788 694 l 526 419 l 779 0 l 532 0 l 376 260 l 294 174 l 294 0 m 415 -197 l 425 -214 q 406 -226 418 -222 q 378 -231 393 -231 q 316 -205 339 -231 q 293 -142 293 -179 q 321 -73 293 -99 q 394 -47 349 -47 q 472 -81 443 -47 q 500 -169 500 -114 q 478 -263 500 -221 q 414 -326 457 -306 q 304 -339 371 -347 l 304 -274 q 396 -262 369 -282 q 415 -197 422 -242 z "},"l":{"ha":375,"x_min":81,"x_max":294,"o":"m 294 0 l 81 0 l 81 1047 l 294 1047 l 294 0 z "},"ĺ":{"ha":375,"x_min":81,"x_max":418,"o":"m 294 0 l 81 0 l 81 1047 l 294 1047 l 294 0 m 418 1322 l 264 1092 l 110 1092 l 226 1322 l 418 1322 z "},"ľ":{"ha":375,"x_min":81,"x_max":531,"o":"m 294 0 l 81 0 l 81 1047 l 294 1047 l 294 0 m 360 775 l 360 1047 l 531 1047 l 486 775 l 360 775 z "},"ļ":{"ha":375,"x_min":81,"x_max":294,"o":"m 294 0 l 81 0 l 81 1047 l 294 1047 l 294 0 m 204 -197 l 214 -214 q 194 -226 207 -222 q 167 -231 182 -231 q 105 -205 128 -231 q 82 -142 82 -179 q 110 -73 82 -99 q 183 -47 138 -47 q 260 -81 232 -47 q 289 -169 289 -114 q 267 -263 289 -221 q 203 -326 246 -306 q 93 -339 160 -347 l 93 -274 q 185 -262 158 -282 q 204 -197 211 -242 z "},"ŀ":{"ha":578,"x_min":81,"x_max":593,"o":"m 478 389 q 394 423 429 389 q 360 504 360 457 q 394 587 360 553 q 478 621 429 621 q 558 586 524 621 q 593 504 593 551 q 559 424 593 458 q 478 389 525 389 m 294 0 l 81 0 l 81 1047 l 294 1047 l 294 0 z "},"ł":{"ha":375,"x_min":13,"x_max":365,"o":"m 294 0 l 81 0 l 81 1047 l 294 1047 l 294 0 m 13 379 l 13 528 l 365 696 l 365 547 l 13 379 z "},"m":{"ha":1267,"x_min":81,"x_max":1194,"o":"m 294 0 l 81 0 l 81 694 l 281 694 l 304 575 l 282 600 q 357 679 303 642 q 497 717 411 717 q 644 671 589 717 q 726 551 700 625 l 693 551 q 774 671 710 625 q 926 717 838 717 q 1128 645 1061 717 q 1194 454 1194 574 l 1194 0 l 981 0 l 981 394 q 949 492 981 460 q 867 524 918 524 q 808 510 836 524 q 763 465 781 497 q 744 372 744 432 l 744 0 l 531 0 l 531 394 q 500 491 531 460 q 418 522 469 522 q 359 509 388 522 q 313 463 331 496 q 294 372 294 431 l 294 0 z "},"n":{"ha":842,"x_min":81,"x_max":769,"o":"m 294 0 l 81 0 l 81 694 l 282 694 l 296 622 q 384 692 328 667 q 508 717 440 717 q 701 641 632 717 q 769 429 769 565 l 769 0 l 556 0 l 556 378 q 522 483 556 443 q 433 522 489 522 q 332 484 369 522 q 294 381 294 446 l 294 0 z "},"ń":{"ha":842,"x_min":81,"x_max":769,"o":"m 294 0 l 81 0 l 81 694 l 282 694 l 296 622 q 384 692 328 667 q 508 717 440 717 q 701 641 632 717 q 769 429 769 565 l 769 0 l 556 0 l 556 378 q 522 483 556 443 q 433 522 489 522 q 332 484 369 522 q 294 381 294 446 l 294 0 m 669 1010 l 515 779 l 361 779 l 478 1010 l 669 1010 z "},"ň":{"ha":842,"x_min":81,"x_max":769,"o":"m 294 0 l 81 0 l 81 694 l 282 694 l 296 622 q 384 692 328 667 q 508 717 440 717 q 701 641 632 717 q 769 429 769 565 l 769 0 l 556 0 l 556 378 q 522 483 556 443 q 433 522 489 522 q 332 484 369 522 q 294 381 294 446 l 294 0 m 336 779 l 199 1024 l 360 1024 l 439 878 l 518 1024 l 679 1024 l 542 779 l 336 779 z "},"ņ":{"ha":842,"x_min":81,"x_max":769,"o":"m 294 0 l 81 0 l 81 694 l 282 694 l 296 622 q 384 692 328 667 q 508 717 440 717 q 701 641 632 717 q 769 429 769 565 l 769 0 l 556 0 l 556 378 q 522 483 556 443 q 433 522 489 522 q 332 484 369 522 q 294 381 294 446 l 294 0 m 443 -197 l 453 -214 q 433 -226 446 -222 q 406 -231 421 -231 q 344 -205 367 -231 q 321 -142 321 -179 q 349 -73 321 -99 q 422 -47 376 -47 q 499 -81 471 -47 q 528 -169 528 -114 q 506 -263 528 -221 q 442 -326 485 -306 q 332 -339 399 -347 l 332 -274 q 424 -262 397 -282 q 443 -197 450 -242 z "},"ŋ":{"ha":842,"x_min":81,"x_max":769,"o":"m 294 0 l 81 0 l 81 694 l 282 694 l 296 622 q 384 692 328 667 q 508 717 440 717 q 701 641 632 717 q 769 429 769 565 l 769 -96 q 701 -284 769 -212 q 508 -356 633 -356 q 462 -353 486 -356 q 400 -339 438 -350 l 435 -150 q 461 -157 450 -156 q 488 -158 472 -158 q 542 -136 528 -158 q 556 -68 556 -114 l 556 378 q 522 483 556 443 q 433 522 489 522 q 332 484 369 522 q 294 381 294 446 l 294 0 z "},"ñ":{"ha":842,"x_min":81,"x_max":769,"o":"m 294 0 l 81 0 l 81 694 l 282 694 l 296 622 q 384 692 328 667 q 508 717 440 717 q 701 641 632 717 q 769 429 769 565 l 769 0 l 556 0 l 556 378 q 522 483 556 443 q 433 522 489 522 q 332 484 369 522 q 294 381 294 446 l 294 0 m 294 783 l 175 782 q 203 946 163 885 q 319 1007 243 1007 q 387 994 357 1007 q 442 964 417 981 q 489 934 467 947 q 533 921 511 921 q 572 945 561 921 q 583 1007 583 969 l 703 1007 q 672 838 714 893 q 557 782 631 782 q 487 795 518 782 q 431 825 456 808 q 384 855 406 842 q 343 868 363 868 q 306 846 317 868 q 294 783 294 824 z "},"o":{"ha":851,"x_min":43,"x_max":808,"o":"m 43 349 q 92 541 43 458 q 228 669 142 624 q 426 715 315 715 q 624 669 538 715 q 759 541 710 624 q 808 349 808 458 q 759 157 808 239 q 624 29 710 75 q 426 -17 538 -17 q 228 29 315 -17 q 92 157 142 75 q 43 349 43 239 m 258 350 q 280 258 258 297 q 339 197 301 218 q 426 175 376 175 q 514 197 476 175 q 572 258 551 218 q 593 350 593 297 q 572 442 593 403 q 514 502 551 481 q 426 524 476 524 q 339 502 376 524 q 280 442 301 481 q 258 350 258 403 z "},"ó":{"ha":851,"x_min":43,"x_max":808,"o":"m 43 349 q 92 541 43 458 q 228 669 142 624 q 426 715 315 715 q 624 669 538 715 q 759 541 710 624 q 808 349 808 458 q 759 157 808 239 q 624 29 710 75 q 426 -17 538 -17 q 228 29 315 -17 q 92 157 142 75 q 43 349 43 239 m 258 350 q 280 258 258 297 q 339 197 301 218 q 426 175 376 175 q 514 197 476 175 q 572 258 551 218 q 593 350 593 297 q 572 442 593 403 q 514 502 551 481 q 426 524 476 524 q 339 502 376 524 q 280 442 301 481 q 258 350 258 403 m 657 1010 l 503 779 l 349 779 l 465 1010 l 657 1010 z "},"ô":{"ha":851,"x_min":43,"x_max":808,"o":"m 43 349 q 92 541 43 458 q 228 669 142 624 q 426 715 315 715 q 624 669 538 715 q 759 541 710 624 q 808 349 808 458 q 759 157 808 239 q 624 29 710 75 q 426 -17 538 -17 q 228 29 315 -17 q 92 157 142 75 q 43 349 43 239 m 258 350 q 280 258 258 297 q 339 197 301 218 q 426 175 376 175 q 514 197 476 175 q 572 258 551 218 q 593 350 593 297 q 572 442 593 403 q 514 502 551 481 q 426 524 476 524 q 339 502 376 524 q 280 442 301 481 q 258 350 258 403 m 347 779 l 186 779 l 324 1024 l 529 1024 l 667 779 l 506 779 l 426 925 l 347 779 z "},"ö":{"ha":851,"x_min":43,"x_max":808,"o":"m 43 349 q 92 541 43 458 q 228 669 142 624 q 426 715 315 715 q 624 669 538 715 q 759 541 710 624 q 808 349 808 458 q 759 157 808 239 q 624 29 710 75 q 426 -17 538 -17 q 228 29 315 -17 q 92 157 142 75 q 43 349 43 239 m 258 350 q 280 258 258 297 q 339 197 301 218 q 426 175 376 175 q 514 197 476 175 q 572 258 551 218 q 593 350 593 297 q 572 442 593 403 q 514 502 551 481 q 426 524 476 524 q 339 502 376 524 q 280 442 301 481 q 258 350 258 403 m 289 789 q 213 820 244 789 q 182 897 182 851 q 214 973 182 942 q 289 1004 246 1004 q 365 972 333 1004 q 396 897 396 940 q 365 821 396 853 q 289 789 333 789 m 564 789 q 488 820 519 789 q 457 897 457 851 q 489 973 457 942 q 564 1004 521 1004 q 640 972 608 1004 q 671 897 671 940 q 640 821 671 853 q 564 789 608 789 z "},"ò":{"ha":851,"x_min":43,"x_max":808,"o":"m 43 349 q 92 541 43 458 q 228 669 142 624 q 426 715 315 715 q 624 669 538 715 q 759 541 710 624 q 808 349 808 458 q 759 157 808 239 q 624 29 710 75 q 426 -17 538 -17 q 228 29 315 -17 q 92 157 142 75 q 43 349 43 239 m 258 350 q 280 258 258 297 q 339 197 301 218 q 426 175 376 175 q 514 197 476 175 q 572 258 551 218 q 593 350 593 297 q 572 442 593 403 q 514 502 551 481 q 426 524 476 524 q 339 502 376 524 q 280 442 301 481 q 258 350 258 403 m 503 779 l 349 779 l 194 1010 l 386 1010 l 503 779 z "},"ő":{"ha":851,"x_min":43,"x_max":808,"o":"m 43 349 q 92 541 43 458 q 228 669 142 624 q 426 715 315 715 q 624 669 538 715 q 759 541 710 624 q 808 349 808 458 q 759 157 808 239 q 624 29 710 75 q 426 -17 538 -17 q 228 29 315 -17 q 92 157 142 75 q 43 349 43 239 m 258 350 q 280 258 258 297 q 339 197 301 218 q 426 175 376 175 q 514 197 476 175 q 572 258 551 218 q 593 350 593 297 q 572 442 593 403 q 514 502 551 481 q 426 524 476 524 q 339 502 376 524 q 280 442 301 481 q 258 350 258 403 m 539 1010 l 385 779 l 238 779 l 368 1010 l 539 1010 m 783 1010 l 629 779 l 482 779 l 613 1010 l 783 1010 z "},"ō":{"ha":851,"x_min":43,"x_max":808,"o":"m 43 349 q 92 541 43 458 q 228 669 142 624 q 426 715 315 715 q 624 669 538 715 q 759 541 710 624 q 808 349 808 458 q 759 157 808 239 q 624 29 710 75 q 426 -17 538 -17 q 228 29 315 -17 q 92 157 142 75 q 43 349 43 239 m 258 350 q 280 258 258 297 q 339 197 301 218 q 426 175 376 175 q 514 197 476 175 q 572 258 551 218 q 593 350 593 297 q 572 442 593 403 q 514 502 551 481 q 426 524 476 524 q 339 502 376 524 q 280 442 301 481 q 258 350 258 403 m 225 815 l 225 960 l 628 960 l 628 815 l 225 815 z "},"ø":{"ha":851,"x_min":43,"x_max":808,"o":"m 43 349 q 92 541 43 458 q 228 669 142 624 q 426 715 315 715 q 624 669 538 715 q 759 541 710 624 q 808 349 808 458 q 759 157 808 239 q 624 29 710 75 q 426 -17 538 -17 q 228 29 315 -17 q 92 157 142 75 q 43 349 43 239 m 258 350 q 280 258 258 297 q 339 197 301 218 q 426 175 376 175 q 514 197 476 175 q 572 258 551 218 q 593 350 593 297 q 572 442 593 403 q 514 502 551 481 q 426 524 476 524 q 339 502 376 524 q 280 442 301 481 q 258 350 258 403 m 776 760 l 268 -68 l 76 -68 l 594 760 l 776 760 z "},"ǿ":{"ha":851,"x_min":43,"x_max":808,"o":"m 43 349 q 92 541 43 458 q 228 669 142 624 q 426 715 315 715 q 624 669 538 715 q 759 541 710 624 q 808 349 808 458 q 759 157 808 239 q 624 29 710 75 q 426 -17 538 -17 q 228 29 315 -17 q 92 157 142 75 q 43 349 43 239 m 258 350 q 280 258 258 297 q 339 197 301 218 q 426 175 376 175 q 514 197 476 175 q 572 258 551 218 q 593 350 593 297 q 572 442 593 403 q 514 502 551 481 q 426 524 476 524 q 339 502 376 524 q 280 442 301 481 q 258 350 258 403 m 776 760 l 268 -68 l 76 -68 l 594 760 l 776 760 m 657 1010 l 503 779 l 349 779 l 465 1010 l 657 1010 z "},"õ":{"ha":851,"x_min":43,"x_max":808,"o":"m 43 349 q 92 541 43 458 q 228 669 142 624 q 426 715 315 715 q 624 669 538 715 q 759 541 710 624 q 808 349 808 458 q 759 157 808 239 q 624 29 710 75 q 426 -17 538 -17 q 228 29 315 -17 q 92 157 142 75 q 43 349 43 239 m 258 350 q 280 258 258 297 q 339 197 301 218 q 426 175 376 175 q 514 197 476 175 q 572 258 551 218 q 593 350 593 297 q 572 442 593 403 q 514 502 551 481 q 426 524 476 524 q 339 502 376 524 q 280 442 301 481 q 258 350 258 403 m 282 783 l 163 782 q 190 946 150 885 q 307 1007 231 1007 q 374 994 344 1007 q 429 964 404 981 q 476 934 454 947 q 521 921 499 921 q 560 945 549 921 q 571 1007 571 969 l 690 1007 q 660 838 701 893 q 544 782 618 782 q 474 795 506 782 q 418 825 443 808 q 372 855 393 842 q 331 868 350 868 q 293 846 304 868 q 282 783 282 824 z "},"œ":{"ha":1358,"x_min":43,"x_max":1315,"o":"m 43 349 q 92 541 43 458 q 228 669 142 624 q 426 715 315 715 q 620 669 538 715 q 749 541 703 624 q 794 349 794 458 q 749 157 794 239 q 620 29 703 75 q 426 -17 538 -17 q 228 29 315 -17 q 92 157 142 75 q 43 349 43 239 m 258 350 q 280 258 258 297 q 339 197 301 218 q 426 175 376 175 q 514 197 476 175 q 572 258 551 218 q 593 350 593 297 q 572 442 593 403 q 514 502 551 481 q 426 524 476 524 q 339 502 376 524 q 280 442 301 481 q 258 350 258 403 m 958 717 q 1147 672 1068 717 q 1269 544 1226 626 q 1313 347 1313 461 l 1313 293 l 715 290 l 718 422 l 1100 422 q 1063 510 1100 478 q 960 543 1025 543 q 872 522 907 543 q 821 458 838 501 q 804 346 804 414 q 844 202 804 249 q 967 156 883 156 q 1068 176 1028 156 q 1119 235 1108 197 l 1315 235 q 1201 51 1297 119 q 963 -18 1106 -18 q 777 29 858 -18 q 649 159 696 76 q 603 349 603 242 q 648 540 603 457 q 774 669 693 622 q 958 717 854 717 z "},"p":{"ha":889,"x_min":81,"x_max":846,"o":"m 81 -333 l 81 694 l 282 694 l 293 610 q 383 688 322 658 q 518 717 444 717 q 689 674 615 717 q 804 551 763 631 q 846 358 846 471 q 808 163 846 249 q 697 29 769 78 q 519 -19 624 -19 q 386 6 447 -19 q 294 69 325 31 l 294 -333 l 81 -333 m 296 347 q 317 256 296 296 q 377 195 339 217 q 465 174 415 174 q 553 196 517 174 q 610 257 590 218 q 631 347 631 296 q 610 438 631 399 q 553 499 590 476 q 465 521 517 521 q 377 499 415 521 q 317 439 339 478 q 296 347 296 400 z "},"þ":{"ha":889,"x_min":81,"x_max":846,"o":"m 846 356 q 808 161 846 246 q 697 28 769 76 q 519 -19 624 -19 q 386 6 447 -19 q 294 69 325 31 l 294 -333 l 81 -333 l 81 1047 l 294 1047 l 294 614 q 390 690 326 661 q 528 718 453 718 q 695 674 624 718 q 806 548 767 629 q 846 356 846 467 m 631 351 q 610 442 631 403 q 553 503 590 481 q 465 525 517 525 q 377 503 415 525 q 317 443 339 482 q 296 351 296 404 q 317 260 296 300 q 377 197 339 219 q 465 174 415 174 q 553 197 517 174 q 610 260 590 219 q 631 351 631 300 z "},"q":{"ha":889,"x_min":43,"x_max":808,"o":"m 43 358 q 85 551 43 471 q 201 674 126 631 q 371 717 275 717 q 506 688 444 717 q 596 610 567 658 l 607 694 l 808 694 l 808 -333 l 594 -333 l 594 69 q 503 6 564 31 q 369 -19 442 -19 q 193 29 267 -19 q 81 163 119 78 q 43 358 43 249 m 258 347 q 278 257 258 296 q 336 196 299 218 q 424 174 374 174 q 512 195 474 174 q 572 256 550 217 q 593 347 593 296 q 572 439 593 400 q 512 499 550 478 q 424 521 474 521 q 336 499 374 521 q 278 438 299 476 q 258 347 258 399 z "},"r":{"ha":586,"x_min":81,"x_max":558,"o":"m 558 694 l 558 493 l 490 493 q 347 449 399 493 q 294 301 294 404 l 294 0 l 81 0 l 81 693 l 282 693 l 299 544 l 279 544 q 342 659 293 614 q 476 704 392 704 q 516 702 496 704 q 558 694 536 700 z "},"ŕ":{"ha":586,"x_min":81,"x_max":558,"o":"m 558 694 l 558 493 l 490 493 q 347 449 399 493 q 294 301 294 404 l 294 0 l 81 0 l 81 693 l 282 693 l 299 544 l 279 544 q 342 659 293 614 q 476 704 392 704 q 516 702 496 704 q 558 694 536 700 m 546 1010 l 392 779 l 238 779 l 354 1010 l 546 1010 z "},"ř":{"ha":586,"x_min":75,"x_max":558,"o":"m 558 694 l 558 493 l 490 493 q 347 449 399 493 q 294 301 294 404 l 294 0 l 81 0 l 81 693 l 282 693 l 299 544 l 279 544 q 342 659 293 614 q 476 704 392 704 q 516 702 496 704 q 558 694 536 700 m 213 779 l 75 1024 l 236 1024 l 315 878 l 394 1024 l 556 1024 l 418 779 l 213 779 z "},"ŗ":{"ha":586,"x_min":81,"x_max":558,"o":"m 558 694 l 558 493 l 490 493 q 347 449 399 493 q 294 301 294 404 l 294 0 l 81 0 l 81 693 l 282 693 l 299 544 l 279 544 q 342 659 293 614 q 476 704 392 704 q 516 702 496 704 q 558 694 536 700 m 206 -197 l 215 -214 q 196 -226 208 -222 q 168 -231 183 -231 q 106 -205 129 -231 q 83 -142 83 -179 q 111 -73 83 -99 q 185 -47 139 -47 q 262 -81 233 -47 q 290 -169 290 -114 q 269 -263 290 -221 q 204 -326 247 -306 q 94 -339 161 -347 l 94 -274 q 186 -262 160 -282 q 206 -197 213 -242 z "},"s":{"ha":667,"x_min":31,"x_max":636,"o":"m 31 219 l 233 219 q 263 163 236 183 q 338 142 289 142 q 411 158 388 142 q 435 201 435 175 q 423 232 435 217 q 372 256 411 247 l 244 283 q 101 351 149 304 q 54 489 54 397 q 92 612 54 561 q 196 690 131 663 q 344 717 261 717 q 487 688 425 717 q 583 606 549 658 q 618 482 618 553 l 415 482 q 394 540 415 518 q 335 561 374 561 q 277 544 299 561 q 256 499 256 526 q 331 438 256 454 l 460 410 q 591 348 546 392 q 636 221 636 304 q 597 93 636 147 q 489 10 558 39 q 329 -18 419 -18 q 111 48 192 -18 q 31 219 31 114 z "},"ś":{"ha":667,"x_min":31,"x_max":636,"o":"m 31 219 l 233 219 q 263 163 236 183 q 338 142 289 142 q 411 158 388 142 q 435 201 435 175 q 423 232 435 217 q 372 256 411 247 l 244 283 q 101 351 149 304 q 54 489 54 397 q 92 612 54 561 q 196 690 131 663 q 344 717 261 717 q 487 688 425 717 q 583 606 549 658 q 618 482 618 553 l 415 482 q 394 540 415 518 q 335 561 374 561 q 277 544 299 561 q 256 499 256 526 q 331 438 256 454 l 460 410 q 591 348 546 392 q 636 221 636 304 q 597 93 636 147 q 489 10 558 39 q 329 -18 419 -18 q 111 48 192 -18 q 31 219 31 114 m 576 1010 l 422 779 l 268 779 l 385 1010 l 576 1010 z "},"š":{"ha":667,"x_min":31,"x_max":636,"o":"m 31 219 l 233 219 q 263 163 236 183 q 338 142 289 142 q 411 158 388 142 q 435 201 435 175 q 423 232 435 217 q 372 256 411 247 l 244 283 q 101 351 149 304 q 54 489 54 397 q 92 612 54 561 q 196 690 131 663 q 344 717 261 717 q 487 688 425 717 q 583 606 549 658 q 618 482 618 553 l 415 482 q 394 540 415 518 q 335 561 374 561 q 277 544 299 561 q 256 499 256 526 q 331 438 256 454 l 460 410 q 591 348 546 392 q 636 221 636 304 q 597 93 636 147 q 489 10 558 39 q 329 -18 419 -18 q 111 48 192 -18 q 31 219 31 114 m 243 779 l 106 1024 l 267 1024 l 346 878 l 425 1024 l 586 1024 l 449 779 l 243 779 z "},"ş":{"ha":667,"x_min":31,"x_max":636,"o":"m 31 219 l 233 219 q 263 163 236 183 q 338 142 289 142 q 411 158 388 142 q 435 201 435 175 q 423 232 435 217 q 372 256 411 247 l 244 283 q 101 351 149 304 q 54 489 54 397 q 92 612 54 561 q 196 690 131 663 q 344 717 261 717 q 487 688 425 717 q 583 606 549 658 q 618 482 618 553 l 415 482 q 394 540 415 518 q 335 561 374 561 q 277 544 299 561 q 256 499 256 526 q 331 438 256 454 l 460 410 q 591 348 546 392 q 636 221 636 304 q 597 93 636 147 q 489 10 558 39 q 329 -18 419 -18 q 111 48 192 -18 q 31 219 31 114 m 218 -296 l 218 -207 q 267 -226 244 -218 q 319 -233 290 -233 q 378 -217 360 -233 q 397 -176 397 -201 q 381 -140 397 -153 q 336 -128 365 -128 q 299 -131 315 -128 q 268 -139 283 -133 l 249 -85 l 318 60 l 378 58 l 378 13 l 326 -86 l 318 -76 q 386 -58 342 -58 q 442 -70 414 -58 q 488 -108 469 -82 q 507 -176 507 -133 q 456 -285 507 -247 q 331 -322 404 -322 q 268 -315 294 -322 q 218 -296 242 -307 z "},"ŝ":{"ha":667,"x_min":31,"x_max":636,"o":"m 31 219 l 233 219 q 263 163 236 183 q 338 142 289 142 q 411 158 388 142 q 435 201 435 175 q 423 232 435 217 q 372 256 411 247 l 244 283 q 101 351 149 304 q 54 489 54 397 q 92 612 54 561 q 196 690 131 663 q 344 717 261 717 q 487 688 425 717 q 583 606 549 658 q 618 482 618 553 l 415 482 q 394 540 415 518 q 335 561 374 561 q 277 544 299 561 q 256 499 256 526 q 331 438 256 454 l 460 410 q 591 348 546 392 q 636 221 636 304 q 597 93 636 147 q 489 10 558 39 q 329 -18 419 -18 q 111 48 192 -18 q 31 219 31 114 m 267 779 l 106 779 l 243 1024 l 449 1024 l 586 779 l 425 779 l 346 925 l 267 779 z "},"ș":{"ha":667,"x_min":31,"x_max":636,"o":"m 31 219 l 233 219 q 263 163 236 183 q 338 142 289 142 q 411 158 388 142 q 435 201 435 175 q 423 232 435 217 q 372 256 411 247 l 244 283 q 101 351 149 304 q 54 489 54 397 q 92 612 54 561 q 196 690 131 663 q 344 717 261 717 q 487 688 425 717 q 583 606 549 658 q 618 482 618 553 l 415 482 q 394 540 415 518 q 335 561 374 561 q 277 544 299 561 q 256 499 256 526 q 331 438 256 454 l 460 410 q 591 348 546 392 q 636 221 636 304 q 597 93 636 147 q 489 10 558 39 q 329 -18 419 -18 q 111 48 192 -18 q 31 219 31 114 m 349 -197 l 358 -214 q 339 -226 351 -222 q 311 -231 326 -231 q 249 -205 272 -231 q 226 -142 226 -179 q 254 -73 226 -99 q 328 -47 282 -47 q 405 -81 376 -47 q 433 -169 433 -114 q 412 -263 433 -221 q 347 -326 390 -306 q 238 -339 304 -347 l 238 -274 q 329 -262 303 -282 q 349 -197 356 -242 z "},"ß":{"ha":853,"x_min":81,"x_max":822,"o":"m 294 0 l 81 0 l 81 714 q 122 891 81 817 q 240 1006 164 965 q 421 1047 317 1047 q 666 974 578 1047 q 754 774 754 901 q 720 647 754 701 q 626 568 686 592 l 626 599 q 737 531 693 571 q 801 440 781 492 q 822 324 822 389 q 778 152 822 225 q 653 40 733 79 q 461 0 572 0 q 408 3 435 0 q 361 10 381 6 l 361 194 l 457 194 q 539 210 506 194 q 590 258 572 226 q 607 333 607 289 q 561 442 607 406 q 425 479 515 479 l 364 479 l 364 649 l 425 649 q 511 678 481 649 q 542 763 542 708 q 510 844 542 817 q 422 872 478 872 q 330 835 365 872 q 294 738 294 799 l 294 0 z "},"t":{"ha":508,"x_min":15,"x_max":493,"o":"m 15 694 l 493 694 l 493 517 l 15 517 l 15 694 m 361 0 l 147 0 l 147 910 l 361 910 l 361 0 z "},"ŧ":{"ha":508,"x_min":15,"x_max":493,"o":"m 15 694 l 493 694 l 493 517 l 15 517 l 15 694 m 361 0 l 147 0 l 147 910 l 361 910 l 361 0 m 47 426 l 461 426 l 461 263 l 47 263 l 47 426 z "},"ť":{"ha":508,"x_min":15,"x_max":569,"o":"m 15 694 l 493 694 l 493 517 l 15 517 l 15 694 m 361 0 l 147 0 l 147 910 l 361 910 l 361 0 m 399 756 l 399 1028 l 569 1028 l 525 756 l 399 756 z "},"ţ":{"ha":508,"x_min":15,"x_max":493,"o":"m 15 694 l 493 694 l 493 517 l 15 517 l 15 694 m 361 0 l 147 0 l 147 910 l 361 910 l 361 0 m 150 -296 l 150 -207 q 199 -226 176 -218 q 251 -233 222 -233 q 310 -217 292 -233 q 329 -176 329 -201 q 313 -140 329 -153 q 268 -128 297 -128 q 231 -131 247 -128 q 200 -139 215 -133 l 181 -85 l 250 60 l 310 58 l 310 13 l 258 -86 l 250 -76 q 318 -58 274 -58 q 374 -70 346 -58 q 420 -108 401 -82 q 439 -176 439 -133 q 388 -285 439 -247 q 263 -322 336 -322 q 200 -315 226 -322 q 150 -296 174 -307 z "},"ț":{"ha":508,"x_min":15,"x_max":493,"o":"m 15 694 l 493 694 l 493 517 l 15 517 l 15 694 m 361 0 l 147 0 l 147 910 l 361 910 l 361 0 m 281 -197 l 290 -214 q 271 -226 283 -222 q 243 -231 258 -231 q 181 -205 204 -231 q 158 -142 158 -179 q 186 -73 158 -99 q 260 -47 214 -47 q 337 -81 308 -47 q 365 -169 365 -114 q 344 -263 365 -221 q 279 -326 322 -306 q 169 -339 236 -347 l 169 -274 q 261 -262 235 -282 q 281 -197 288 -242 z "},"u":{"ha":836,"x_min":72,"x_max":756,"o":"m 542 694 l 756 694 l 756 0 l 554 0 l 540 78 q 449 8 508 35 q 328 -18 390 -18 q 141 56 210 -18 q 72 258 72 131 l 72 694 l 286 694 l 286 336 q 317 212 286 251 q 413 172 347 172 q 512 210 482 172 q 542 333 542 249 l 542 694 z "},"ú":{"ha":836,"x_min":72,"x_max":756,"o":"m 542 694 l 756 694 l 756 0 l 554 0 l 540 78 q 449 8 508 35 q 328 -18 390 -18 q 141 56 210 -18 q 72 258 72 131 l 72 694 l 286 694 l 286 336 q 317 212 286 251 q 413 172 347 172 q 512 210 482 172 q 542 333 542 249 l 542 694 m 644 1010 l 490 779 l 336 779 l 453 1010 l 644 1010 z "},"û":{"ha":836,"x_min":72,"x_max":756,"o":"m 542 694 l 756 694 l 756 0 l 554 0 l 540 78 q 449 8 508 35 q 328 -18 390 -18 q 141 56 210 -18 q 72 258 72 131 l 72 694 l 286 694 l 286 336 q 317 212 286 251 q 413 172 347 172 q 512 210 482 172 q 542 333 542 249 l 542 694 m 335 779 l 174 779 l 311 1024 l 517 1024 l 654 779 l 493 779 l 414 925 l 335 779 z "},"ü":{"ha":836,"x_min":72,"x_max":756,"o":"m 542 694 l 756 694 l 756 0 l 554 0 l 540 78 q 449 8 508 35 q 328 -18 390 -18 q 141 56 210 -18 q 72 258 72 131 l 72 694 l 286 694 l 286 336 q 317 212 286 251 q 413 172 347 172 q 512 210 482 172 q 542 333 542 249 l 542 694 m 276 789 q 201 820 232 789 q 169 897 169 851 q 201 973 169 942 q 276 1004 233 1004 q 352 972 321 1004 q 383 897 383 940 q 352 821 383 853 q 276 789 321 789 m 551 789 q 476 820 507 789 q 444 897 444 851 q 476 973 444 942 q 551 1004 508 1004 q 627 972 596 1004 q 658 897 658 940 q 627 821 658 853 q 551 789 596 789 z "},"ù":{"ha":836,"x_min":72,"x_max":756,"o":"m 542 694 l 756 694 l 756 0 l 554 0 l 540 78 q 449 8 508 35 q 328 -18 390 -18 q 141 56 210 -18 q 72 258 72 131 l 72 694 l 286 694 l 286 336 q 317 212 286 251 q 413 172 347 172 q 512 210 482 172 q 542 333 542 249 l 542 694 m 490 779 l 336 779 l 182 1010 l 374 1010 l 490 779 z "},"ű":{"ha":836,"x_min":72,"x_max":771,"o":"m 542 694 l 756 694 l 756 0 l 554 0 l 540 78 q 449 8 508 35 q 328 -18 390 -18 q 141 56 210 -18 q 72 258 72 131 l 72 694 l 286 694 l 286 336 q 317 212 286 251 q 413 172 347 172 q 512 210 482 172 q 542 333 542 249 l 542 694 m 526 1010 l 372 779 l 225 779 l 356 1010 l 526 1010 m 771 1010 l 617 779 l 469 779 l 600 1010 l 771 1010 z "},"ū":{"ha":836,"x_min":72,"x_max":756,"o":"m 542 694 l 756 694 l 756 0 l 554 0 l 540 78 q 449 8 508 35 q 328 -18 390 -18 q 141 56 210 -18 q 72 258 72 131 l 72 694 l 286 694 l 286 336 q 317 212 286 251 q 413 172 347 172 q 512 210 482 172 q 542 333 542 249 l 542 694 m 213 815 l 213 960 l 615 960 l 615 815 l 213 815 z "},"ų":{"ha":836,"x_min":72,"x_max":756,"o":"m 542 694 l 756 694 l 756 0 l 554 0 l 540 78 q 449 8 508 35 q 328 -18 390 -18 q 141 56 210 -18 q 72 258 72 131 l 72 694 l 286 694 l 286 336 q 317 212 286 251 q 413 172 347 172 q 512 210 482 172 q 542 333 542 249 l 542 694 m 628 0 l 754 0 q 669 -51 696 -19 q 643 -112 643 -83 q 659 -151 643 -135 q 701 -168 675 -168 q 744 -158 724 -168 l 744 -294 q 663 -310 710 -310 q 546 -265 589 -310 q 503 -161 503 -221 q 533 -68 503 -112 q 628 0 564 -24 z "},"ů":{"ha":836,"x_min":72,"x_max":756,"o":"m 542 694 l 756 694 l 756 0 l 554 0 l 540 78 q 449 8 508 35 q 328 -18 390 -18 q 141 56 210 -18 q 72 258 72 131 l 72 694 l 286 694 l 286 336 q 317 212 286 251 q 413 172 347 172 q 512 210 482 172 q 542 333 542 249 l 542 694 m 414 754 q 274 808 329 754 q 218 947 218 863 q 244 1047 218 1003 q 314 1116 269 1090 q 414 1142 358 1142 q 514 1116 469 1142 q 584 1047 558 1090 q 610 947 610 1003 q 584 849 610 893 q 515 780 558 806 q 414 754 471 754 m 414 863 q 474 887 451 863 q 496 950 496 911 q 473 1010 496 986 q 414 1033 450 1033 q 355 1010 378 1033 q 332 950 332 988 q 354 887 332 911 q 414 863 376 863 z "},"ũ":{"ha":836,"x_min":72,"x_max":756,"o":"m 542 694 l 756 694 l 756 0 l 554 0 l 540 78 q 449 8 508 35 q 328 -18 390 -18 q 141 56 210 -18 q 72 258 72 131 l 72 694 l 286 694 l 286 336 q 317 212 286 251 q 413 172 347 172 q 512 210 482 172 q 542 333 542 249 l 542 694 m 269 783 l 150 782 q 178 946 138 885 q 294 1007 218 1007 q 362 994 332 1007 q 417 964 392 981 q 464 934 442 947 q 508 921 486 921 q 547 945 536 921 q 558 1007 558 969 l 678 1007 q 647 838 689 893 q 532 782 606 782 q 462 795 493 782 q 406 825 431 808 q 359 855 381 842 q 318 868 338 868 q 281 846 292 868 q 269 783 269 824 z "},"v":{"ha":786,"x_min":7,"x_max":779,"o":"m 278 0 l 7 694 l 238 694 l 322 451 q 367 315 349 375 q 390 231 386 254 q 417 322 397 261 q 464 451 438 383 l 557 694 l 779 694 l 489 0 l 278 0 z "},"w":{"ha":1154,"x_min":14,"x_max":1140,"o":"m 238 0 l 14 694 l 239 694 l 303 468 q 326 374 315 424 q 346 271 338 324 q 358 334 353 308 q 372 390 364 360 q 396 468 381 419 l 467 694 l 686 694 l 751 468 q 760 434 754 460 q 775 377 767 408 q 790 317 783 346 q 799 271 796 288 q 813 338 803 296 q 834 418 824 381 q 847 468 844 456 l 914 694 l 1140 694 l 897 0 l 699 0 l 632 221 q 592 365 606 307 q 575 446 578 424 q 558 375 571 424 q 513 217 546 326 l 446 0 l 238 0 z "},"ẃ":{"ha":1154,"x_min":14,"x_max":1140,"o":"m 238 0 l 14 694 l 239 694 l 303 468 q 326 374 315 424 q 346 271 338 324 q 358 334 353 308 q 372 390 364 360 q 396 468 381 419 l 467 694 l 686 694 l 751 468 q 760 434 754 460 q 775 377 767 408 q 790 317 783 346 q 799 271 796 288 q 813 338 803 296 q 834 418 824 381 q 847 468 844 456 l 914 694 l 1140 694 l 897 0 l 699 0 l 632 221 q 592 365 606 307 q 575 446 578 424 q 558 375 571 424 q 513 217 546 326 l 446 0 l 238 0 m 810 1010 l 656 779 l 501 779 l 618 1010 l 810 1010 z "},"ŵ":{"ha":1154,"x_min":14,"x_max":1140,"o":"m 238 0 l 14 694 l 239 694 l 303 468 q 326 374 315 424 q 346 271 338 324 q 358 334 353 308 q 372 390 364 360 q 396 468 381 419 l 467 694 l 686 694 l 751 468 q 760 434 754 460 q 775 377 767 408 q 790 317 783 346 q 799 271 796 288 q 813 338 803 296 q 834 418 824 381 q 847 468 844 456 l 914 694 l 1140 694 l 897 0 l 699 0 l 632 221 q 592 365 606 307 q 575 446 578 424 q 558 375 571 424 q 513 217 546 326 l 446 0 l 238 0 m 500 779 l 339 779 l 476 1024 l 682 1024 l 819 779 l 658 779 l 579 925 l 500 779 z "},"ẅ":{"ha":1154,"x_min":14,"x_max":1140,"o":"m 238 0 l 14 694 l 239 694 l 303 468 q 326 374 315 424 q 346 271 338 324 q 358 334 353 308 q 372 390 364 360 q 396 468 381 419 l 467 694 l 686 694 l 751 468 q 760 434 754 460 q 775 377 767 408 q 790 317 783 346 q 799 271 796 288 q 813 338 803 296 q 834 418 824 381 q 847 468 844 456 l 914 694 l 1140 694 l 897 0 l 699 0 l 632 221 q 592 365 606 307 q 575 446 578 424 q 558 375 571 424 q 513 217 546 326 l 446 0 l 238 0 m 442 789 q 366 820 397 789 q 335 897 335 851 q 367 973 335 942 q 442 1004 399 1004 q 517 972 486 1004 q 549 897 549 940 q 517 821 549 853 q 442 789 486 789 m 717 789 q 641 820 672 789 q 610 897 610 851 q 642 973 610 942 q 717 1004 674 1004 q 792 972 761 1004 q 824 897 824 940 q 792 821 824 853 q 717 789 761 789 z "},"ẁ":{"ha":1154,"x_min":14,"x_max":1140,"o":"m 238 0 l 14 694 l 239 694 l 303 468 q 326 374 315 424 q 346 271 338 324 q 358 334 353 308 q 372 390 364 360 q 396 468 381 419 l 467 694 l 686 694 l 751 468 q 760 434 754 460 q 775 377 767 408 q 790 317 783 346 q 799 271 796 288 q 813 338 803 296 q 834 418 824 381 q 847 468 844 456 l 914 694 l 1140 694 l 897 0 l 699 0 l 632 221 q 592 365 606 307 q 575 446 578 424 q 558 375 571 424 q 513 217 546 326 l 446 0 l 238 0 m 656 779 l 501 779 l 347 1010 l 539 1010 l 656 779 z "},"x":{"ha":761,"x_min":14,"x_max":747,"o":"m 257 0 l 14 0 l 247 336 l 14 694 l 261 694 l 389 483 l 508 694 l 747 694 l 518 340 l 739 0 l 493 0 l 374 200 l 257 0 z "},"y":{"ha":785,"x_min":7,"x_max":778,"o":"m 236 694 l 440 94 l 336 -153 l 7 694 l 236 694 m 25 -333 l 25 -154 l 143 -154 q 203 -145 179 -154 q 243 -115 226 -136 q 274 -57 260 -94 l 556 694 l 778 694 l 425 -151 q 320 -305 382 -257 q 167 -353 258 -353 q 92 -348 128 -353 q 25 -333 57 -343 z "},"ý":{"ha":785,"x_min":7,"x_max":778,"o":"m 236 694 l 440 94 l 336 -153 l 7 694 l 236 694 m 25 -333 l 25 -154 l 143 -154 q 203 -145 179 -154 q 243 -115 226 -136 q 274 -57 260 -94 l 556 694 l 778 694 l 425 -151 q 320 -305 382 -257 q 167 -353 258 -353 q 92 -348 128 -353 q 25 -333 57 -343 m 635 1010 l 481 779 l 326 779 l 443 1010 l 635 1010 z "},"ŷ":{"ha":785,"x_min":7,"x_max":778,"o":"m 236 694 l 440 94 l 336 -153 l 7 694 l 236 694 m 25 -333 l 25 -154 l 143 -154 q 203 -145 179 -154 q 243 -115 226 -136 q 274 -57 260 -94 l 556 694 l 778 694 l 425 -151 q 320 -305 382 -257 q 167 -353 258 -353 q 92 -348 128 -353 q 25 -333 57 -343 m 325 779 l 164 779 l 301 1024 l 507 1024 l 644 779 l 483 779 l 404 925 l 325 779 z "},"ÿ":{"ha":785,"x_min":7,"x_max":778,"o":"m 236 694 l 440 94 l 336 -153 l 7 694 l 236 694 m 25 -333 l 25 -154 l 143 -154 q 203 -145 179 -154 q 243 -115 226 -136 q 274 -57 260 -94 l 556 694 l 778 694 l 425 -151 q 320 -305 382 -257 q 167 -353 258 -353 q 92 -348 128 -353 q 25 -333 57 -343 m 267 789 q 191 820 222 789 q 160 897 160 851 q 192 973 160 942 q 267 1004 224 1004 q 342 972 311 1004 q 374 897 374 940 q 342 821 374 853 q 267 789 311 789 m 542 789 q 466 820 497 789 q 435 897 435 851 q 467 973 435 942 q 542 1004 499 1004 q 617 972 586 1004 q 649 897 649 940 q 617 821 649 853 q 542 789 586 789 z "},"ỳ":{"ha":785,"x_min":7,"x_max":778,"o":"m 236 694 l 440 94 l 336 -153 l 7 694 l 236 694 m 25 -333 l 25 -154 l 143 -154 q 203 -145 179 -154 q 243 -115 226 -136 q 274 -57 260 -94 l 556 694 l 778 694 l 425 -151 q 320 -305 382 -257 q 167 -353 258 -353 q 92 -348 128 -353 q 25 -333 57 -343 m 481 779 l 326 779 l 172 1010 l 364 1010 l 481 779 z "},"z":{"ha":682,"x_min":50,"x_max":632,"o":"m 632 0 l 50 0 l 50 178 l 361 517 l 50 517 l 50 694 l 632 694 l 632 517 l 313 178 l 632 178 l 632 0 z "},"ź":{"ha":682,"x_min":50,"x_max":632,"o":"m 632 0 l 50 0 l 50 178 l 361 517 l 50 517 l 50 694 l 632 694 l 632 517 l 313 178 l 632 178 l 632 0 m 572 1010 l 418 779 l 264 779 l 381 1010 l 572 1010 z "},"ž":{"ha":682,"x_min":50,"x_max":632,"o":"m 632 0 l 50 0 l 50 178 l 361 517 l 50 517 l 50 694 l 632 694 l 632 517 l 313 178 l 632 178 l 632 0 m 239 779 l 101 1024 l 263 1024 l 342 878 l 421 1024 l 582 1024 l 444 779 l 239 779 z "},"ż":{"ha":682,"x_min":50,"x_max":632,"o":"m 632 0 l 50 0 l 50 178 l 361 517 l 50 517 l 50 694 l 632 694 l 632 517 l 313 178 l 632 178 l 632 0 m 340 789 q 260 822 293 789 q 228 903 228 856 q 261 983 228 950 q 340 1017 294 1017 q 421 983 388 1017 q 454 903 454 949 q 421 822 454 856 q 340 789 388 789 z "},"ﬀ":{"ha":975,"x_min":15,"x_max":960,"o":"m 15 694 l 493 694 l 493 517 l 15 517 l 15 694 m 490 1039 l 490 856 q 458 856 472 856 q 431 856 443 856 q 345 825 365 856 q 325 750 325 794 l 325 0 l 111 0 l 111 750 q 145 919 111 854 q 243 1016 179 985 q 394 1047 307 1047 q 441 1045 417 1047 q 490 1039 465 1043 m 493 694 l 960 694 l 960 517 l 493 517 l 493 694 m 960 1039 l 960 856 q 927 856 942 856 q 900 856 913 856 q 815 825 835 856 q 794 750 794 794 l 794 0 l 581 0 l 581 750 q 615 919 581 854 q 713 1016 649 985 q 864 1047 776 1047 q 910 1045 886 1047 q 960 1039 935 1043 z "},"ﬃ":{"ha":1347,"x_min":15,"x_max":1279,"o":"m 15 694 l 493 694 l 493 517 l 15 517 l 15 694 m 490 1039 l 490 856 q 458 856 472 856 q 431 856 443 856 q 345 825 365 856 q 325 750 325 794 l 325 0 l 111 0 l 111 750 q 145 919 111 854 q 243 1016 179 985 q 394 1047 307 1047 q 441 1045 417 1047 q 490 1039 465 1043 m 493 694 l 1265 694 l 1265 517 l 493 517 l 493 694 m 946 1039 l 946 856 q 913 856 928 856 q 886 856 899 856 q 813 825 831 856 q 794 750 794 794 l 794 0 l 581 0 l 581 750 q 614 919 581 854 q 708 1016 647 985 q 850 1047 769 1047 q 897 1045 872 1047 q 946 1039 921 1043 m 1050 0 l 1050 694 l 1265 694 l 1265 0 l 1050 0 m 1158 803 q 1072 838 1107 803 q 1036 925 1036 874 q 1072 1011 1036 976 q 1158 1046 1107 1046 q 1244 1011 1208 1046 q 1279 925 1279 976 q 1244 838 1279 874 q 1158 803 1208 803 z "},"ﬄ":{"ha":1344,"x_min":15,"x_max":1264,"o":"m 15 694 l 493 694 l 493 517 l 15 517 l 15 694 m 490 1039 l 490 856 q 458 856 472 856 q 431 856 443 856 q 345 825 365 856 q 325 750 325 794 l 325 0 l 111 0 l 111 750 q 145 919 111 854 q 243 1016 179 985 q 394 1047 307 1047 q 441 1045 417 1047 q 490 1039 465 1043 m 493 694 l 1085 694 l 1085 517 l 493 517 l 493 694 m 960 1039 l 960 856 q 927 856 942 856 q 900 856 913 856 q 815 825 835 856 q 794 750 794 794 l 794 0 l 581 0 l 581 750 q 615 919 581 854 q 713 1016 649 985 q 864 1047 776 1047 q 910 1045 886 1047 q 960 1039 935 1043 m 1264 0 l 1050 0 l 1050 1047 l 1264 1047 l 1264 0 z "},"ﬁ":{"ha":878,"x_min":15,"x_max":810,"o":"m 15 694 l 796 694 l 796 517 l 15 517 l 15 694 m 476 1039 l 476 856 q 444 856 458 856 q 417 856 429 856 q 343 825 361 856 q 325 750 325 794 l 325 0 l 111 0 l 111 750 q 144 919 111 854 q 239 1016 178 985 q 381 1047 300 1047 q 427 1045 403 1047 q 476 1039 451 1043 m 581 0 l 581 694 l 796 694 l 796 0 l 581 0 m 689 803 q 602 838 638 803 q 567 925 567 874 q 602 1011 567 976 q 689 1046 638 1046 q 774 1011 739 1046 q 810 925 810 976 q 774 838 810 874 q 689 803 739 803 z "},"ﬂ":{"ha":875,"x_min":15,"x_max":794,"o":"m 15 694 l 694 694 l 694 517 l 15 517 l 15 694 m 472 1039 l 472 856 q 440 856 454 856 q 413 856 425 856 q 341 825 357 856 q 325 750 325 794 l 325 0 l 111 0 l 111 750 q 144 919 111 854 q 236 1016 176 985 q 376 1047 296 1047 q 423 1045 399 1047 q 472 1039 447 1043 m 794 0 l 581 0 l 581 1047 l 794 1047 l 794 0 z "},"Ω":{"ha":926,"x_min":76,"x_max":850,"o":"m 419 0 l 76 0 l 76 156 l 288 156 l 238 114 q 139 230 178 163 q 100 386 100 297 q 144 550 100 475 q 271 671 189 625 q 465 717 353 717 q 661 669 581 717 q 785 547 742 622 q 828 388 828 472 q 788 231 828 299 q 688 115 749 163 l 639 156 l 850 156 l 850 0 l 508 0 l 508 156 q 583 206 553 175 q 628 278 613 238 q 644 364 644 318 q 621 456 644 417 q 556 517 597 496 q 464 539 515 539 q 372 517 413 539 q 307 456 331 496 q 283 363 283 417 q 300 272 283 313 q 348 201 317 231 q 419 156 379 171 l 419 0 z "},"π":{"ha":928,"x_min":18,"x_max":892,"o":"m 892 185 l 892 7 q 811 -2 851 1 q 742 -6 771 -6 q 594 43 640 -6 q 547 197 547 92 l 547 694 l 761 694 l 761 243 q 778 199 761 213 q 831 185 796 185 l 892 185 m 139 0 l 139 694 l 353 694 l 353 0 l 139 0 m 18 694 l 892 694 l 892 522 l 18 522 l 18 694 z "},"₀":{"ha":603,"x_min":31,"x_max":572,"o":"m 31 168 q 65 337 31 264 q 160 451 99 410 q 303 492 222 492 q 449 451 389 492 q 540 337 508 410 q 572 168 572 264 q 539 1 572 72 q 444 -110 506 -71 q 301 -150 383 -150 q 102 -62 174 -150 q 31 168 31 25 m 169 168 q 204 22 169 71 q 303 -26 239 -26 q 399 22 365 -26 q 433 168 433 71 q 399 317 433 268 q 303 367 365 367 q 204 317 239 367 q 169 168 169 268 z "},"₁":{"ha":383,"x_min":28,"x_max":325,"o":"m 186 354 l 28 354 l 28 479 l 325 479 l 325 -139 l 186 -139 l 186 354 z "},"₂":{"ha":511,"x_min":31,"x_max":481,"o":"m 481 -139 l 42 -139 l 42 -36 l 271 157 q 321 212 306 185 q 336 274 336 239 q 256 367 336 367 q 191 340 214 367 q 168 261 168 313 l 31 261 q 94 430 35 368 q 254 492 154 492 q 416 436 357 492 q 475 282 475 381 q 448 174 475 222 q 368 81 421 125 l 228 -39 l 167 -14 l 481 -14 l 481 -139 z "},"₃":{"ha":504,"x_min":25,"x_max":474,"o":"m 457 368 l 213 161 l 146 239 l 368 424 l 324 356 l 53 356 l 53 479 l 457 479 l 457 368 m 197 149 l 146 149 l 146 239 q 194 251 163 246 q 253 256 226 256 q 360 235 310 256 q 442 172 411 215 q 474 60 474 129 q 443 -53 474 -6 q 361 -125 413 -100 q 247 -150 310 -150 q 137 -126 188 -150 q 56 -53 86 -101 q 25 65 25 -6 l 163 65 q 188 -2 163 21 q 251 -25 213 -25 q 313 -1 289 -25 q 336 61 336 22 q 313 123 336 97 q 236 149 290 149 q 218 149 228 149 q 197 149 208 149 z "},"₄":{"ha":546,"x_min":24,"x_max":535,"o":"m 460 479 l 460 -139 l 326 -139 l 326 479 l 460 479 m 535 -31 l 24 -31 l 24 93 l 288 479 l 436 479 l 124 8 l 76 90 l 535 90 l 535 -31 z "},"₅":{"ha":511,"x_min":21,"x_max":490,"o":"m 21 65 l 158 65 q 185 -1 158 24 q 254 -25 211 -25 q 326 1 300 -25 q 351 75 351 28 q 325 152 351 124 q 253 181 299 181 q 163 131 189 181 l 35 147 l 114 479 l 451 479 l 451 356 l 189 356 l 229 382 l 188 235 l 135 206 q 281 292 168 292 q 389 264 342 292 q 463 188 436 236 q 490 76 490 139 q 461 -41 490 10 q 379 -120 432 -92 q 257 -149 326 -149 q 135 -121 189 -149 q 51 -45 82 -93 q 21 65 21 3 z "},"₆":{"ha":547,"x_min":31,"x_max":517,"o":"m 132 324 l 258 494 l 415 494 l 240 260 l 204 257 q 244 283 217 272 q 299 293 272 293 q 413 267 364 293 q 489 195 461 242 q 517 83 517 149 q 485 -39 517 14 q 400 -121 454 -92 q 275 -150 346 -150 q 149 -119 204 -150 q 63 -35 94 -89 q 31 83 31 18 q 40 157 31 122 q 71 231 49 192 q 132 324 93 271 m 172 76 q 201 3 172 32 q 275 -26 229 -26 q 348 3 319 -26 q 376 76 376 32 q 348 151 376 121 q 275 182 319 182 q 201 151 229 182 q 172 76 172 121 z "},"₇":{"ha":486,"x_min":25,"x_max":461,"o":"m 401 356 l 25 356 l 25 479 l 461 479 l 461 356 l 263 -139 l 126 -139 l 346 394 l 401 356 z "},"₈":{"ha":547,"x_min":31,"x_max":517,"o":"m 31 32 q 66 140 31 94 q 161 197 101 186 l 163 183 q 90 231 118 194 q 63 319 63 268 q 119 443 63 394 q 275 492 175 492 q 430 444 374 492 q 486 318 486 396 q 457 230 486 265 q 383 185 428 194 l 383 194 q 479 142 442 186 q 517 32 517 97 q 452 -100 517 -51 q 272 -149 388 -149 q 94 -100 158 -149 q 31 32 31 -51 m 168 50 q 196 -6 168 14 q 272 -25 224 -25 q 351 -6 324 -25 q 378 50 378 14 q 350 107 378 88 q 274 126 322 126 q 197 107 226 126 q 168 50 168 88 m 179 306 q 202 259 179 276 q 272 242 225 242 q 342 259 319 242 q 365 306 365 276 q 342 353 365 333 q 272 374 319 374 q 202 353 225 374 q 179 306 179 333 z "},"₉":{"ha":547,"x_min":31,"x_max":517,"o":"m 415 32 l 289 -139 l 132 -139 l 307 96 l 343 99 q 303 74 331 85 q 249 63 275 63 q 135 88 185 63 q 58 161 86 114 q 31 272 31 208 q 62 394 31 342 q 148 476 93 447 q 272 506 203 506 q 398 475 343 506 q 485 392 453 444 q 517 272 517 339 q 508 199 517 233 q 476 124 499 164 q 415 32 454 85 m 375 279 q 347 353 375 324 q 272 382 318 382 q 199 353 228 382 q 171 279 171 324 q 199 204 171 235 q 272 174 228 174 q 347 204 318 174 q 375 279 375 235 z "},"⁰":{"ha":600,"x_min":31,"x_max":572,"o":"m 31 765 q 65 934 31 861 q 160 1048 99 1007 q 303 1089 222 1089 q 449 1048 389 1089 q 540 934 508 1007 q 572 765 572 861 q 539 598 572 669 q 444 487 506 526 q 301 447 383 447 q 102 535 174 447 q 31 765 31 622 m 169 765 q 204 619 169 668 q 303 571 239 571 q 399 619 365 571 q 433 765 433 668 q 399 915 433 865 q 303 964 365 964 q 204 915 239 964 q 169 765 169 865 z "},"¹":{"ha":383,"x_min":28,"x_max":325,"o":"m 186 951 l 28 951 l 28 1076 l 325 1076 l 325 458 l 186 458 l 186 951 z "},"²":{"ha":511,"x_min":31,"x_max":481,"o":"m 481 458 l 42 458 l 42 561 l 271 754 q 321 809 306 782 q 336 871 336 836 q 256 964 336 964 q 191 937 214 964 q 168 858 168 910 l 31 858 q 94 1027 35 965 q 254 1089 154 1089 q 416 1033 357 1089 q 475 879 475 978 q 448 771 475 819 q 368 678 421 722 l 228 558 l 167 583 l 481 583 l 481 458 z "},"³":{"ha":504,"x_min":25,"x_max":474,"o":"m 457 965 l 213 758 l 146 836 l 368 1021 l 324 953 l 53 953 l 53 1076 l 457 1076 l 457 965 m 197 746 l 146 746 l 146 836 q 194 848 163 843 q 253 853 226 853 q 360 833 310 853 q 442 769 411 813 q 474 657 474 726 q 443 544 474 592 q 361 472 413 497 q 247 447 310 447 q 137 472 188 447 q 56 544 86 496 q 25 663 25 592 l 163 663 q 188 595 163 618 q 251 572 213 572 q 313 596 289 572 q 336 658 336 619 q 313 720 336 694 q 236 746 290 746 q 218 746 228 746 q 197 746 208 746 z "},"⁴":{"ha":532,"x_min":24,"x_max":535,"o":"m 460 1076 l 460 458 l 326 458 l 326 1076 l 460 1076 m 535 567 l 24 567 l 24 690 l 288 1076 l 436 1076 l 124 606 l 76 688 l 535 688 l 535 567 z "},"⁵":{"ha":511,"x_min":21,"x_max":490,"o":"m 21 663 l 158 663 q 185 597 158 621 q 254 572 211 572 q 326 599 300 572 q 351 672 351 625 q 325 749 351 721 q 253 778 299 778 q 163 728 189 778 l 35 744 l 114 1076 l 451 1076 l 451 953 l 189 953 l 229 979 l 188 832 l 135 803 q 281 889 168 889 q 389 861 342 889 q 463 785 436 833 q 490 674 490 736 q 461 556 490 607 q 379 477 432 506 q 257 449 326 449 q 135 476 189 449 q 51 552 82 504 q 21 663 21 600 z "},"⁶":{"ha":547,"x_min":31,"x_max":517,"o":"m 132 921 l 258 1092 l 415 1092 l 240 857 l 204 854 q 244 880 217 869 q 299 890 272 890 q 413 865 364 890 q 489 792 461 839 q 517 681 517 746 q 485 558 517 611 q 400 476 454 506 q 275 447 346 447 q 149 478 204 447 q 63 562 94 508 q 31 681 31 615 q 40 754 31 719 q 71 828 49 789 q 132 921 93 868 m 172 674 q 201 600 172 629 q 275 571 229 571 q 348 600 319 571 q 376 674 376 629 q 348 749 376 718 q 275 779 319 779 q 201 749 229 779 q 172 674 172 718 z "},"⁷":{"ha":486,"x_min":25,"x_max":461,"o":"m 401 953 l 25 953 l 25 1076 l 461 1076 l 461 953 l 263 458 l 126 458 l 346 992 l 401 953 z "},"⁸":{"ha":547,"x_min":31,"x_max":517,"o":"m 31 629 q 66 738 31 692 q 161 794 101 783 l 163 781 q 90 828 118 792 q 63 917 63 865 q 119 1040 63 992 q 275 1089 175 1089 q 430 1041 374 1089 q 486 915 486 993 q 457 827 486 863 q 383 782 428 792 l 383 792 q 479 739 442 783 q 517 629 517 694 q 452 497 517 546 q 272 449 388 449 q 94 497 158 449 q 31 629 31 546 m 168 647 q 196 592 168 611 q 272 572 224 572 q 351 592 324 572 q 378 647 378 611 q 350 704 378 685 q 274 724 322 724 q 197 704 226 724 q 168 647 168 685 m 179 903 q 202 856 179 874 q 272 839 225 839 q 342 856 319 839 q 365 903 365 874 q 342 951 365 931 q 272 971 319 971 q 202 951 225 971 q 179 903 179 931 z "},"⁹":{"ha":547,"x_min":31,"x_max":517,"o":"m 415 629 l 289 458 l 132 458 l 307 693 l 343 696 q 303 671 331 682 q 249 660 275 660 q 135 685 185 660 q 58 758 86 711 q 31 869 31 806 q 62 992 31 939 q 148 1074 93 1044 q 272 1103 203 1103 q 398 1072 343 1103 q 485 989 453 1042 q 517 869 517 936 q 508 796 517 831 q 476 722 499 761 q 415 629 454 682 m 375 876 q 347 950 375 921 q 272 979 318 979 q 199 950 228 979 q 171 876 171 921 q 199 801 171 832 q 272 771 228 771 q 347 801 318 771 q 375 876 375 832 z "},"⁄":{"ha":265,"x_min":-285,"x_max":550,"o":"m 550 986 l -118 0 l -285 0 l 383 986 l 550 986 z "},"½":{"ha":1122,"x_min":19,"x_max":1092,"o":"m 153 919 l 19 919 l 19 1028 l 271 1028 l 271 511 l 153 511 l 153 919 m 949 986 l 281 0 l 114 0 l 782 986 l 949 986 m 1092 0 l 711 0 l 711 88 l 882 221 q 936 281 918 250 q 954 342 954 311 q 937 399 954 378 q 888 419 919 419 q 833 399 853 419 q 814 342 814 378 l 694 342 q 749 475 694 424 q 889 526 803 526 q 1024 478 975 526 q 1074 349 1074 431 q 1046 244 1074 293 q 963 150 1018 194 l 875 81 l 821 107 l 1092 107 l 1092 0 z "},"¼":{"ha":1071,"x_min":19,"x_max":1040,"o":"m 153 919 l 19 919 l 19 1028 l 271 1028 l 271 511 l 153 511 l 153 919 m 949 986 l 281 0 l 114 0 l 782 986 l 949 986 m 860 94 l 611 94 l 611 188 l 828 517 l 951 517 l 742 200 l 860 200 l 860 517 l 972 517 l 972 200 l 1040 200 l 1040 94 l 972 94 l 972 0 l 860 0 l 860 94 z "},"¾":{"ha":1104,"x_min":25,"x_max":1074,"o":"m 25 682 l 144 682 q 165 627 144 646 q 215 608 185 608 q 264 628 246 608 q 282 679 282 647 q 263 728 282 707 q 200 750 244 750 l 125 750 l 125 826 l 233 921 l 49 921 l 49 1028 l 388 1028 l 388 932 l 206 768 l 213 839 q 304 824 261 840 q 374 772 347 807 q 401 678 401 736 q 346 549 401 596 q 213 501 290 501 q 120 522 163 501 q 51 582 78 542 q 25 682 25 622 m 982 986 l 314 0 l 147 0 l 815 986 l 982 986 m 893 94 l 644 94 l 644 188 l 861 517 l 985 517 l 775 200 l 893 200 l 893 517 l 1006 517 l 1006 200 l 1074 200 l 1074 94 l 1006 94 l 1006 0 l 893 0 l 893 94 z "},"⅛":{"ha":1140,"x_min":19,"x_max":1101,"o":"m 153 919 l 19 919 l 19 1028 l 271 1028 l 271 511 l 153 511 l 153 919 m 949 986 l 281 0 l 114 0 l 782 986 l 949 986 m 703 143 q 733 233 703 194 q 811 279 763 271 l 811 269 q 752 311 775 279 q 729 386 729 343 q 776 487 729 447 q 903 526 822 526 q 1028 488 982 526 q 1074 385 1074 450 q 1050 309 1074 340 q 990 269 1026 278 l 990 279 q 1070 235 1039 272 q 1101 143 1101 197 q 1047 33 1101 75 q 901 -8 993 -8 q 756 33 810 -8 q 703 143 703 75 m 822 158 q 844 113 822 129 q 901 97 865 97 q 959 113 938 97 q 981 158 981 129 q 959 205 981 189 q 901 221 938 221 q 844 205 867 221 q 822 158 822 189 m 831 369 q 849 333 831 347 q 901 318 867 318 q 953 333 935 318 q 971 371 971 349 q 953 408 971 393 q 901 424 936 424 q 849 408 867 424 q 831 369 831 393 z "},"⅜":{"ha":1174,"x_min":25,"x_max":1135,"o":"m 25 682 l 144 682 q 165 627 144 646 q 215 608 185 608 q 264 628 246 608 q 282 679 282 647 q 263 728 282 707 q 200 750 244 750 l 125 750 l 125 826 l 233 921 l 49 921 l 49 1028 l 388 1028 l 388 932 l 206 768 l 213 839 q 304 824 261 840 q 374 772 347 807 q 401 678 401 736 q 346 549 401 596 q 213 501 290 501 q 120 522 163 501 q 51 582 78 542 q 25 682 25 622 m 982 986 l 314 0 l 147 0 l 815 986 l 982 986 m 736 143 q 766 233 736 194 q 844 279 796 271 l 844 269 q 785 311 808 279 q 763 386 763 343 q 809 487 763 447 q 936 526 856 526 q 1061 488 1015 526 q 1107 385 1107 450 q 1083 309 1107 340 q 1024 269 1060 278 l 1024 279 q 1103 235 1072 272 q 1135 143 1135 197 q 1081 33 1135 75 q 935 -8 1026 -8 q 790 33 843 -8 q 736 143 736 75 m 856 158 q 877 113 856 129 q 935 97 899 97 q 992 113 971 97 q 1014 158 1014 129 q 992 205 1014 189 q 935 221 971 221 q 878 205 900 221 q 856 158 856 189 m 864 369 q 882 333 864 347 q 935 318 900 318 q 986 333 968 318 q 1004 371 1004 349 q 987 408 1004 393 q 935 424 969 424 q 882 408 900 424 q 864 369 864 393 z "},"⅝":{"ha":1200,"x_min":36,"x_max":1161,"o":"m 224 501 q 131 522 174 501 q 63 582 89 542 q 36 682 36 622 l 156 682 q 175 627 156 646 q 225 608 194 608 q 283 631 264 608 q 303 692 303 654 q 281 754 303 732 q 224 776 258 776 q 178 765 199 776 q 149 735 157 754 l 38 749 l 106 1028 l 399 1028 l 399 921 l 171 921 l 193 943 l 158 825 l 124 799 q 163 852 136 831 q 242 874 190 874 q 376 821 329 874 q 422 692 422 768 q 367 554 422 607 q 224 501 313 501 m 1008 986 l 340 0 l 174 0 l 842 986 l 1008 986 m 763 143 q 792 233 763 194 q 871 279 822 271 l 871 269 q 812 311 835 279 q 789 386 789 343 q 835 487 789 447 q 963 526 882 526 q 1088 488 1042 526 q 1133 385 1133 450 q 1110 309 1133 340 q 1050 269 1086 278 l 1050 279 q 1130 235 1099 272 q 1161 143 1161 197 q 1107 33 1161 75 q 961 -8 1053 -8 q 816 33 869 -8 q 763 143 763 75 m 882 158 q 903 113 882 129 q 961 97 925 97 q 1019 113 997 97 q 1040 158 1040 129 q 1019 205 1040 189 q 961 221 997 221 q 904 205 926 221 q 882 158 882 189 m 890 369 q 908 333 890 347 q 961 318 926 318 q 1013 333 994 318 q 1031 371 1031 349 q 1013 408 1031 393 q 961 424 996 424 q 908 408 926 424 q 890 369 890 393 z "},"⅞":{"ha":1096,"x_min":19,"x_max":1057,"o":"m 274 921 l 19 921 l 19 1028 l 390 1028 l 390 921 l 217 511 l 97 511 l 274 921 m 904 986 l 236 0 l 69 0 l 738 986 l 904 986 m 658 143 q 688 233 658 194 q 767 279 718 271 l 767 269 q 708 311 731 279 q 685 386 685 343 q 731 487 685 447 q 858 526 778 526 q 983 488 938 526 q 1029 385 1029 450 q 1006 309 1029 340 q 946 269 982 278 l 946 279 q 1026 235 994 272 q 1057 143 1057 197 q 1003 33 1057 75 q 857 -8 949 -8 q 712 33 765 -8 q 658 143 658 75 m 778 158 q 799 113 778 129 q 857 97 821 97 q 915 113 893 97 q 936 158 936 129 q 915 205 936 189 q 857 221 893 221 q 800 205 822 221 q 778 158 778 189 m 786 369 q 804 333 786 347 q 857 318 822 318 q 908 333 890 318 q 926 371 926 349 q 909 408 926 393 q 857 424 892 424 q 804 408 822 424 q 786 369 786 393 z "},"*":{"ha":597,"x_min":28,"x_max":569,"o":"m 125 782 l 28 817 l 67 917 l 160 886 q 215 863 194 875 q 257 835 236 850 q 248 885 251 860 q 244 944 244 911 l 244 1047 l 351 1047 l 351 944 q 348 885 351 911 q 339 835 344 858 q 381 862 358 849 q 438 886 403 875 l 532 917 l 569 817 l 471 782 q 413 767 440 771 q 363 760 386 763 q 403 724 386 742 q 438 681 421 707 l 494 593 l 407 533 l 349 615 q 316 668 328 644 q 296 713 304 692 q 276 660 289 685 q 247 615 263 635 l 185 533 l 97 593 l 157 681 q 194 725 176 708 q 233 760 211 742 q 181 767 206 763 q 125 782 157 771 z "},"⁂":{"ha":1347,"x_min":28,"x_max":1319,"o":"m 125 232 l 28 267 l 67 367 l 160 336 q 215 310 193 322 q 257 285 236 299 q 249 335 253 310 q 244 394 244 361 l 244 497 l 351 497 l 351 394 q 348 335 351 361 q 339 285 344 308 q 381 310 358 299 q 438 336 403 322 l 532 367 l 569 267 l 471 232 q 413 217 440 221 q 363 210 386 213 q 401 174 385 192 q 438 131 417 157 l 494 43 l 407 -17 l 349 65 q 315 117 326 93 q 296 163 304 142 q 278 117 290 140 q 247 65 267 93 l 185 -17 l 97 43 l 157 131 q 194 174 178 157 q 233 210 211 192 q 184 217 211 213 q 125 232 157 221 m 500 782 l 403 817 l 442 917 l 535 886 q 590 860 568 872 q 632 835 611 849 q 624 885 628 860 q 619 944 619 911 l 619 1047 l 726 1047 l 726 944 q 723 885 726 911 q 714 835 719 858 q 756 862 733 849 q 813 886 778 875 l 907 917 l 944 817 l 846 782 q 788 767 815 771 q 738 760 761 763 q 776 724 760 742 q 813 681 792 707 l 869 593 l 782 533 l 724 615 q 691 668 703 644 q 671 713 679 692 q 653 667 665 690 q 622 615 642 643 l 560 533 l 472 593 l 532 681 q 569 724 553 707 q 608 760 586 742 q 559 767 586 763 q 500 782 532 771 m 875 232 l 778 267 l 817 367 l 910 336 q 965 310 943 322 q 1007 285 986 299 q 999 335 1003 310 q 994 394 994 361 l 994 497 l 1101 497 l 1101 394 q 1098 335 1101 361 q 1089 285 1094 308 q 1131 310 1108 299 q 1188 336 1153 322 l 1282 367 l 1319 267 l 1221 232 q 1163 217 1190 221 q 1113 210 1136 213 q 1151 174 1135 192 q 1188 131 1167 157 l 1244 43 l 1157 -17 l 1099 65 q 1065 117 1076 93 q 1046 163 1054 142 q 1028 117 1040 140 q 997 65 1017 93 l 935 -17 l 847 43 l 907 131 q 944 174 928 157 q 983 210 961 192 q 934 217 961 213 q 875 232 907 221 z "},"\\":{"ha":614,"x_min":0,"x_max":614,"o":"m 214 1025 l 614 0 l 401 0 l 0 1025 l 214 1025 z "},"·":{"ha":511,"x_min":89,"x_max":422,"o":"m 257 240 q 173 263 211 240 q 112 322 135 285 q 89 404 89 360 q 112 488 89 450 q 173 549 135 526 q 257 571 211 571 q 339 548 301 571 q 399 487 376 525 q 422 404 422 449 q 400 324 422 361 q 340 263 378 286 q 257 240 303 240 z "},"•":{"ha":651,"x_min":89,"x_max":563,"o":"m 328 146 q 209 178 264 146 q 122 263 154 210 q 89 379 89 315 q 122 498 89 444 q 209 584 154 551 q 328 617 264 617 q 446 583 393 617 q 531 497 499 550 q 563 379 563 443 q 530 263 563 315 q 444 178 497 210 q 328 146 390 146 z "},":":{"ha":456,"x_min":100,"x_max":356,"o":"m 228 -18 q 138 19 175 -18 q 100 107 100 56 q 138 197 100 160 q 228 233 175 233 q 317 197 279 233 q 356 107 356 160 q 317 19 356 56 q 228 -18 279 -18 m 228 471 q 138 508 175 471 q 100 596 100 544 q 138 685 100 649 q 228 722 175 722 q 317 685 279 722 q 356 596 356 649 q 317 508 356 544 q 228 471 279 471 z "},",":{"ha":428,"x_min":86,"x_max":342,"o":"m 242 11 l 263 18 q 235 1 250 7 q 201 -4 221 -4 q 119 28 153 -4 q 86 106 86 60 q 119 198 86 163 q 206 233 151 233 q 304 188 267 233 q 342 71 342 143 q 313 -50 342 4 q 234 -138 285 -104 q 118 -179 183 -172 l 118 -103 q 207 -64 172 -93 q 242 11 242 -35 z "},"…":{"ha":1178,"x_min":86,"x_max":1092,"o":"m 214 -18 q 124 19 161 -18 q 86 107 86 56 q 124 197 86 160 q 214 233 161 233 q 303 197 265 233 q 342 107 342 160 q 303 19 342 56 q 214 -18 265 -18 m 589 -18 q 499 19 536 -18 q 461 107 461 56 q 499 197 461 160 q 589 233 536 233 q 678 197 640 233 q 717 107 717 160 q 678 19 717 56 q 589 -18 640 -18 m 964 -18 q 874 19 911 -18 q 836 107 836 56 q 874 197 836 160 q 964 233 911 233 q 1053 197 1015 233 q 1092 107 1092 160 q 1053 19 1092 56 q 964 -18 1015 -18 z "},"!":{"ha":486,"x_min":114,"x_max":372,"o":"m 329 307 l 153 307 q 133 446 142 367 q 119 615 124 525 q 114 796 114 706 l 114 1028 l 372 1028 l 372 796 q 367 612 372 703 q 351 442 361 521 q 329 307 342 364 m 242 -18 q 151 19 189 -18 q 114 107 114 56 q 151 197 114 160 q 242 233 189 233 q 331 197 293 233 q 369 107 369 160 q 331 19 369 56 q 242 -18 293 -18 z "},"¡":{"ha":486,"x_min":114,"x_max":372,"o":"m 153 721 l 329 721 q 351 585 342 664 q 367 417 361 507 q 372 232 372 326 l 372 0 l 114 0 l 114 232 q 119 413 114 324 q 133 582 124 503 q 153 721 142 661 m 242 1046 q 331 1009 293 1046 q 369 921 369 972 q 331 832 369 869 q 242 794 293 794 q 151 832 189 794 q 114 921 114 869 q 151 1009 114 972 q 242 1046 189 1046 z "},"#":{"ha":1036,"x_min":51,"x_max":985,"o":"m 543 1028 l 342 0 l 129 0 l 331 1028 l 543 1028 m 892 1028 l 692 0 l 479 0 l 679 1028 l 892 1028 m 143 782 l 985 782 l 943 582 l 101 582 l 143 782 m 93 444 l 939 444 l 899 244 l 51 244 l 93 444 z "},".":{"ha":428,"x_min":86,"x_max":342,"o":"m 214 -18 q 124 19 161 -18 q 86 107 86 56 q 124 197 86 160 q 214 233 161 233 q 303 197 265 233 q 342 107 342 160 q 303 19 342 56 q 214 -18 265 -18 z "},"?":{"ha":801,"x_min":43,"x_max":758,"o":"m 463 279 l 269 279 l 269 308 q 292 423 269 376 q 351 504 315 469 q 421 567 386 539 q 474 613 450 590 q 513 662 499 635 q 528 722 528 689 q 513 790 528 763 q 472 833 499 818 q 404 847 444 847 q 331 828 363 847 q 283 773 300 808 q 267 689 267 738 l 43 689 q 90 876 43 796 q 219 1002 136 957 q 410 1047 301 1047 q 597 1010 519 1047 q 717 904 675 974 q 758 738 758 835 q 731 610 758 663 q 662 524 703 558 q 581 461 621 489 q 498 394 533 429 q 463 308 463 360 l 463 279 m 372 -18 q 282 19 319 -18 q 244 107 244 56 q 282 197 244 160 q 372 233 319 233 q 463 196 425 233 q 500 107 500 158 q 463 19 500 57 q 372 -18 425 -18 z "},"¿":{"ha":801,"x_min":43,"x_max":758,"o":"m 339 750 l 532 750 l 532 721 q 509 607 532 654 q 451 526 486 560 q 381 463 417 492 q 327 417 351 440 q 288 368 303 394 q 274 307 274 342 q 288 240 274 268 q 331 197 303 211 q 397 182 358 182 q 471 201 440 182 q 518 256 501 221 q 535 340 535 292 l 758 340 q 712 153 758 235 q 583 27 665 72 q 392 -18 500 -18 q 205 19 283 -18 q 85 125 126 56 q 43 292 43 194 q 71 419 43 368 q 140 506 99 471 q 221 568 182 542 q 304 635 269 600 q 339 721 339 669 l 339 750 m 429 1047 q 519 1010 482 1047 q 557 922 557 974 q 519 833 557 871 q 429 796 482 796 q 340 833 378 796 q 301 922 301 871 q 340 1010 301 972 q 429 1047 378 1047 z "},"\"":{"ha":703,"x_min":86,"x_max":617,"o":"m 303 904 l 253 589 l 146 589 l 94 904 q 102 981 86 951 q 146 1024 118 1010 q 204 1038 174 1038 q 255 1024 229 1038 q 296 981 281 1010 q 303 904 311 951 m 608 904 l 558 589 l 451 589 l 400 904 q 408 981 393 951 q 451 1024 424 1010 q 510 1038 479 1038 q 560 1024 535 1038 q 601 981 586 1010 q 608 904 617 951 z "},"'":{"ha":397,"x_min":86,"x_max":311,"o":"m 303 904 l 253 589 l 146 589 l 94 904 q 102 981 86 951 q 146 1024 118 1010 q 204 1038 174 1038 q 255 1024 229 1038 q 296 981 281 1010 q 303 904 311 951 z "},";":{"ha":456,"x_min":100,"x_max":356,"o":"m 256 11 l 276 18 q 249 1 264 7 q 215 -4 235 -4 q 133 28 167 -4 q 100 106 100 60 q 133 198 100 163 q 219 233 165 233 q 318 188 281 233 q 356 71 356 143 q 327 -50 356 4 q 248 -138 299 -104 q 132 -179 197 -172 l 132 -103 q 221 -64 186 -93 q 256 11 256 -35 m 228 471 q 138 508 175 471 q 100 596 100 544 q 138 685 100 649 q 228 722 175 722 q 317 685 279 722 q 356 596 356 649 q 317 508 356 544 q 228 471 279 471 z "},"/":{"ha":614,"x_min":0,"x_max":614,"o":"m 213 0 l 0 0 l 400 1025 l 614 1025 l 213 0 z "},"_":{"ha":779,"x_min":83,"x_max":696,"o":"m 83 -174 l 83 -22 l 696 -22 l 696 -174 l 83 -174 z "},"{":{"ha":533,"x_min":63,"x_max":526,"o":"m 63 442 l 63 608 q 176 644 136 608 q 217 750 217 679 l 217 1018 q 274 1157 217 1106 q 419 1208 331 1208 l 526 1208 l 526 1044 l 467 1044 q 426 1028 442 1044 q 411 976 411 1013 l 411 721 q 376 594 411 640 q 272 525 340 547 q 376 457 340 503 q 411 329 411 411 l 411 74 q 426 22 411 39 q 467 6 442 6 l 526 6 l 526 -158 l 419 -158 q 274 -107 331 -158 q 217 32 217 -56 l 217 300 q 176 406 217 371 q 63 442 136 442 z "},"}":{"ha":533,"x_min":7,"x_max":471,"o":"m 114 -158 l 7 -158 l 7 6 l 67 6 q 107 22 92 6 q 122 74 122 39 l 122 329 q 158 457 122 411 q 261 525 193 503 q 158 594 193 547 q 122 721 122 640 l 122 976 q 107 1028 122 1013 q 67 1044 92 1044 l 7 1044 l 7 1208 l 114 1208 q 260 1157 204 1208 q 317 1018 317 1106 l 317 750 q 358 644 317 679 q 471 608 399 608 l 471 442 q 358 406 399 442 q 317 300 317 371 l 317 32 q 260 -107 317 -56 q 114 -158 204 -158 z "},"[":{"ha":468,"x_min":107,"x_max":461,"o":"m 301 6 l 461 6 l 461 -158 l 107 -158 l 107 1208 l 461 1208 l 461 1044 l 301 1044 l 301 6 z "},"]":{"ha":468,"x_min":7,"x_max":361,"o":"m 7 -158 l 7 6 l 167 6 l 167 1044 l 7 1044 l 7 1208 l 361 1208 l 361 -158 l 7 -158 z "},"(":{"ha":474,"x_min":56,"x_max":474,"o":"m 474 -294 l 310 -294 q 176 -107 233 -215 q 88 131 119 1 q 56 403 56 261 q 83 656 56 529 q 167 897 111 782 q 310 1100 224 1011 l 474 1100 q 368 910 414 1019 q 297 672 322 800 q 272 403 272 543 q 294 153 272 279 q 360 -87 315 28 q 474 -294 406 -201 z "},")":{"ha":474,"x_min":0,"x_max":418,"o":"m 164 -294 l 0 -294 q 114 -87 69 -201 q 180 153 158 28 q 201 403 201 279 q 176 672 201 543 q 106 910 151 800 q 0 1100 61 1019 l 164 1100 q 306 897 250 1011 q 390 656 363 782 q 418 403 418 529 q 386 131 418 261 q 297 -107 354 1 q 164 -294 240 -215 z "},"—":{"ha":1744,"x_min":97,"x_max":1647,"o":"m 97 278 l 97 467 l 1647 467 l 1647 278 l 97 278 z "},"–":{"ha":1400,"x_min":97,"x_max":1303,"o":"m 97 278 l 97 467 l 1303 467 l 1303 278 l 97 278 z "},"-":{"ha":642,"x_min":83,"x_max":558,"o":"m 83 281 l 83 469 l 558 469 l 558 281 l 83 281 z "},"«":{"ha":1111,"x_min":56,"x_max":1056,"o":"m 360 0 l 56 347 l 360 694 l 639 694 l 335 347 l 639 0 l 360 0 m 776 0 l 472 347 l 776 694 l 1056 694 l 751 347 l 1056 0 l 776 0 z "},"»":{"ha":1111,"x_min":56,"x_max":1056,"o":"m 335 0 l 56 0 l 360 347 l 56 694 l 335 694 l 639 347 l 335 0 m 751 0 l 472 0 l 776 347 l 472 694 l 751 694 l 1056 347 l 751 0 z "},"‹":{"ha":694,"x_min":56,"x_max":639,"o":"m 360 0 l 56 347 l 360 694 l 639 694 l 335 347 l 639 0 l 360 0 z "},"›":{"ha":694,"x_min":56,"x_max":639,"o":"m 335 0 l 56 0 l 360 347 l 56 694 l 335 694 l 639 347 l 335 0 z "},"„":{"ha":726,"x_min":89,"x_max":638,"o":"m 232 -3 l 253 4 q 226 -12 240 -7 q 192 -18 211 -18 q 119 11 149 -18 q 89 92 89 40 q 122 177 89 144 q 206 210 154 210 q 297 168 263 210 q 332 57 332 126 q 273 -113 332 -44 q 118 -193 214 -182 l 118 -117 q 201 -78 169 -107 q 232 -3 232 -50 m 538 -3 l 558 4 q 531 -12 546 -7 q 497 -18 517 -18 q 424 11 454 -18 q 394 92 394 40 q 427 177 394 144 q 511 210 460 210 q 603 168 568 210 q 638 57 638 126 q 578 -113 638 -44 q 424 -193 519 -182 l 424 -117 q 506 -78 475 -107 q 538 -3 538 -50 z "},"“":{"ha":726,"x_min":89,"x_max":638,"o":"m 189 857 l 168 850 q 195 867 181 861 q 229 872 210 872 q 303 843 274 872 q 332 763 332 814 q 300 678 332 711 q 215 644 268 644 q 124 687 158 644 q 89 797 89 729 q 148 969 89 900 q 303 1047 207 1038 l 303 971 q 220 933 251 961 q 189 857 189 906 m 494 857 l 474 850 q 501 867 486 861 q 535 872 515 872 q 608 843 579 872 q 638 763 638 814 q 606 678 638 711 q 521 644 574 644 q 429 687 464 644 q 394 797 394 729 q 453 969 394 900 q 608 1047 513 1038 l 608 971 q 526 933 557 961 q 494 857 494 906 z "},"”":{"ha":726,"x_min":89,"x_max":638,"o":"m 232 835 l 253 842 q 226 825 240 831 q 192 819 211 819 q 119 849 149 819 q 89 929 89 878 q 122 1015 89 982 q 206 1047 154 1047 q 297 1006 263 1047 q 332 894 332 964 q 273 724 332 793 q 118 644 214 656 l 118 721 q 201 759 169 731 q 232 835 232 788 m 538 835 l 558 842 q 531 825 546 831 q 497 819 517 819 q 424 849 454 819 q 394 929 394 878 q 427 1015 394 982 q 511 1047 460 1047 q 603 1006 568 1047 q 638 894 638 964 q 578 724 638 793 q 424 644 519 656 l 424 721 q 506 759 475 731 q 538 835 538 788 z "},"‘":{"ha":421,"x_min":89,"x_max":332,"o":"m 189 857 l 168 850 q 195 867 181 861 q 229 872 210 872 q 303 843 274 872 q 332 763 332 814 q 300 678 332 711 q 215 644 268 644 q 124 687 158 644 q 89 797 89 729 q 148 969 89 900 q 303 1047 207 1038 l 303 971 q 220 933 251 961 q 189 857 189 906 z "},"’":{"ha":421,"x_min":89,"x_max":332,"o":"m 232 835 l 253 842 q 226 825 240 831 q 192 819 211 819 q 119 849 149 819 q 89 929 89 878 q 122 1015 89 982 q 206 1047 154 1047 q 297 1006 263 1047 q 332 894 332 964 q 273 724 332 793 q 118 644 214 656 l 118 721 q 201 759 169 731 q 232 835 232 788 z "},"‚":{"ha":421,"x_min":89,"x_max":332,"o":"m 232 -3 l 253 4 q 226 -12 240 -7 q 192 -18 211 -18 q 119 11 149 -18 q 89 92 89 40 q 122 177 89 144 q 206 210 154 210 q 297 168 263 210 q 332 57 332 126 q 273 -113 332 -44 q 118 -193 214 -182 l 118 -117 q 201 -78 169 -107 q 232 -3 232 -50 z "}," ":{"ha":368,"x_min":0,"x_max":0,"o":""},"¢":{"ha":818,"x_min":57,"x_max":768,"o":"m 497 1028 l 497 836 l 318 824 l 318 1028 l 497 1028 m 318 -1 l 318 201 l 497 189 l 497 -1 l 318 -1 m 57 514 q 103 703 57 621 q 228 833 149 786 q 413 881 308 881 q 663 801 567 881 q 768 586 758 722 l 553 586 q 509 664 542 639 q 421 689 476 689 q 342 667 376 689 q 290 607 308 646 q 272 514 272 568 q 290 419 272 458 q 340 358 307 379 q 418 338 372 338 q 509 363 475 338 q 553 440 543 389 l 768 440 q 715 287 761 353 q 592 183 668 221 q 418 146 515 146 q 227 192 308 146 q 101 320 146 238 q 57 514 57 403 z "},"¤":{"ha":1061,"x_min":83,"x_max":978,"o":"m 922 514 q 892 363 922 433 q 807 240 861 293 q 682 156 753 186 q 532 125 611 125 q 381 156 451 125 q 256 240 310 186 q 172 363 203 293 q 142 514 142 433 q 172 665 142 594 q 256 790 201 736 q 381 875 310 844 q 532 906 451 906 q 683 875 613 906 q 807 790 753 844 q 892 665 861 736 q 922 514 922 594 m 221 958 l 397 785 l 260 644 l 83 818 l 221 958 m 801 644 l 664 785 l 840 958 l 978 818 l 801 644 m 260 386 l 397 246 l 221 72 l 83 213 l 260 386 m 840 72 l 664 246 l 801 386 l 978 213 l 840 72 m 726 514 q 700 613 726 568 q 630 683 674 657 q 532 710 586 710 q 433 683 478 710 q 363 613 389 657 q 338 514 338 568 q 363 417 338 461 q 433 347 389 374 q 532 321 478 321 q 629 347 585 321 q 700 417 674 374 q 726 514 726 461 z "},"$":{"ha":846,"x_min":35,"x_max":804,"o":"m 365 -129 l 365 1158 l 493 1158 l 493 -129 l 365 -129 m 50 729 q 99 894 50 822 q 233 1006 147 965 q 428 1047 318 1047 q 619 1008 539 1047 q 744 899 700 969 q 788 731 788 828 l 571 731 q 533 822 571 790 q 425 854 494 854 q 311 824 353 854 q 269 738 269 793 q 295 663 269 690 q 379 622 321 635 l 533 590 q 740 494 675 561 q 804 310 804 428 q 756 137 804 211 q 619 22 707 63 q 413 -18 531 -18 q 213 21 299 -18 q 81 131 128 60 q 35 299 35 203 l 258 299 q 298 207 258 239 q 414 175 338 175 q 540 206 493 175 q 586 288 586 236 q 485 394 586 374 l 328 426 q 119 531 189 454 q 50 729 50 607 z "},"€":{"ha":826,"x_min":17,"x_max":776,"o":"m 604 -17 q 335 47 450 -17 q 155 228 219 110 q 90 511 90 346 q 157 799 90 679 q 344 983 224 918 q 625 1047 465 1047 q 694 1043 658 1047 q 763 1031 729 1039 l 763 818 q 697 831 732 826 q 638 836 663 836 q 458 803 531 836 q 349 699 385 769 q 313 514 313 628 q 347 332 313 403 q 450 227 382 261 q 617 193 518 193 q 694 199 654 193 q 776 218 733 206 l 776 1 q 688 -12 726 -8 q 604 -17 649 -17 m 657 313 l 17 313 l 17 468 l 657 468 l 657 313 m 657 550 l 17 550 l 17 706 l 657 706 l 657 550 z "},"ƒ":{"ha":926,"x_min":71,"x_max":856,"o":"m 608 733 l 514 -39 q 424 -230 500 -161 q 181 -299 349 -299 l 71 -299 l 71 -93 l 185 -93 q 253 -71 225 -93 q 288 -4 282 -49 l 379 747 q 484 965 396 883 q 719 1046 572 1046 l 856 1046 l 856 840 l 708 840 q 641 816 667 840 q 608 733 615 792 m 101 568 l 842 568 l 842 368 l 101 368 l 101 568 z "},"£":{"ha":938,"x_min":33,"x_max":888,"o":"m 629 435 l 39 435 l 39 597 l 629 597 l 629 435 m 558 0 l 33 0 l 33 210 q 110 228 78 210 q 161 282 143 247 q 179 365 179 317 q 167 442 179 401 q 140 524 156 482 q 113 611 125 567 q 101 699 101 656 q 149 875 101 796 q 281 1001 196 954 q 476 1047 365 1047 q 662 1007 581 1047 q 790 892 743 967 q 838 713 838 817 l 614 713 q 572 815 613 783 q 468 847 532 847 q 360 808 403 847 q 318 703 318 768 q 329 619 318 660 q 356 538 340 578 q 382 457 371 497 q 393 375 393 417 q 374 279 393 324 q 306 210 354 235 l 521 210 q 640 250 610 210 q 671 354 669 290 l 888 354 q 801 95 888 190 q 558 0 714 0 z "},"¥":{"ha":967,"x_min":28,"x_max":939,"o":"m 311 542 l 28 1028 l 283 1028 l 482 643 l 683 1028 l 939 1028 l 654 542 l 808 542 l 808 386 l 588 386 l 588 319 l 808 319 l 808 164 l 588 164 l 588 0 l 375 0 l 375 164 l 154 164 l 154 319 l 375 319 l 375 386 l 154 386 l 154 542 l 311 542 z "},"+":{"ha":917,"x_min":111,"x_max":806,"o":"m 547 815 l 547 119 l 369 119 l 369 815 l 547 815 m 111 557 l 806 557 l 806 379 l 111 379 l 111 557 z "},"−":{"ha":917,"x_min":111,"x_max":806,"o":"m 111 557 l 806 557 l 806 379 l 111 379 l 111 557 z "},"×":{"ha":917,"x_min":119,"x_max":797,"o":"m 797 681 l 246 129 l 119 254 l 671 806 l 797 681 m 247 806 l 797 256 l 671 131 l 121 681 l 247 806 z "},"÷":{"ha":917,"x_min":111,"x_max":806,"o":"m 460 572 q 378 606 413 572 q 343 685 343 639 q 378 765 343 732 q 460 799 413 799 q 539 765 504 799 q 574 685 574 732 q 539 606 574 639 q 460 572 504 572 m 460 50 q 378 84 413 50 q 343 164 343 118 q 378 244 343 211 q 460 278 413 278 q 539 244 504 278 q 574 164 574 211 q 539 84 574 118 q 460 50 504 50 m 111 514 l 806 514 l 806 336 l 111 336 l 111 514 z "},"=":{"ha":917,"x_min":111,"x_max":806,"o":"m 111 664 l 806 664 l 806 486 l 111 486 l 111 664 m 111 358 l 806 358 l 806 181 l 111 181 l 111 358 z "},"≠":{"ha":917,"x_min":111,"x_max":806,"o":"m 142 25 l 575 819 l 775 819 l 342 25 l 142 25 m 111 664 l 806 664 l 806 486 l 111 486 l 111 664 m 111 358 l 806 358 l 806 181 l 111 181 l 111 358 z "},">":{"ha":917,"x_min":111,"x_max":806,"o":"m 806 236 l 111 -6 l 111 203 l 601 350 l 111 497 l 111 706 l 806 464 l 806 236 z "},"<":{"ha":917,"x_min":111,"x_max":806,"o":"m 806 203 l 806 -6 l 111 236 l 111 464 l 806 706 l 806 497 l 315 350 l 806 203 z "},"≥":{"ha":917,"x_min":111,"x_max":806,"o":"m 806 406 l 111 178 l 111 386 l 601 519 l 111 653 l 111 861 l 806 633 l 806 406 m 111 178 l 806 178 l 806 0 l 111 0 l 111 178 z "},"≤":{"ha":917,"x_min":111,"x_max":806,"o":"m 806 386 l 806 178 l 111 406 l 111 633 l 806 861 l 806 653 l 315 519 l 806 386 m 111 0 l 111 178 l 806 178 l 806 0 l 111 0 z "},"±":{"ha":917,"x_min":111,"x_max":806,"o":"m 111 0 l 111 178 l 806 178 l 806 0 l 111 0 m 547 857 l 547 272 l 369 272 l 369 857 l 547 857 m 111 654 l 806 654 l 806 476 l 111 476 l 111 654 z "},"≈":{"ha":917,"x_min":111,"x_max":806,"o":"m 644 704 l 806 704 q 781 574 806 632 q 710 481 756 515 q 600 447 664 447 q 514 461 551 447 q 447 494 476 475 q 390 526 417 513 q 335 540 363 540 q 284 515 296 540 q 272 458 272 489 l 111 458 q 136 585 111 528 q 208 676 161 642 q 317 710 254 710 q 401 696 365 710 q 468 663 438 682 q 526 631 499 644 q 582 617 553 617 q 633 642 621 617 q 644 704 644 668 m 644 413 l 806 413 q 781 282 806 340 q 710 190 756 224 q 600 156 664 156 q 514 169 551 156 q 447 202 476 183 q 390 235 417 221 q 335 249 363 249 q 284 223 296 249 q 272 167 272 197 l 111 167 q 136 293 111 236 q 208 384 161 350 q 317 418 254 418 q 401 404 365 418 q 468 372 438 390 q 526 339 499 353 q 582 325 553 325 q 633 351 621 325 q 644 413 644 376 z "},"~":{"ha":917,"x_min":111,"x_max":806,"o":"m 644 565 l 806 565 q 781 435 806 493 q 710 342 756 376 q 600 308 664 308 q 514 322 551 308 q 447 355 476 336 q 390 388 417 374 q 335 401 363 401 q 284 376 296 401 q 272 319 272 350 l 111 319 q 136 446 111 389 q 208 537 161 503 q 317 571 254 571 q 401 557 365 571 q 468 524 438 543 q 526 492 499 506 q 582 478 553 478 q 633 503 621 478 q 644 565 644 529 z "},"¬":{"ha":917,"x_min":75,"x_max":804,"o":"m 804 558 l 804 132 l 603 132 l 603 378 l 75 378 l 75 558 l 804 558 z "},"∅":{"ha":1210,"x_min":56,"x_max":1154,"o":"m 599 -17 q 402 24 493 -17 q 243 138 311 65 q 137 306 175 210 q 99 515 99 403 q 136 725 99 628 q 242 894 174 822 q 401 1006 310 965 q 600 1046 493 1046 q 799 1006 707 1046 q 958 894 890 965 q 1064 725 1026 822 q 1101 515 1101 628 q 1063 306 1101 403 q 956 138 1025 210 q 796 24 888 65 q 599 -17 704 -17 m 599 182 q 753 225 688 182 q 856 343 819 268 q 893 515 893 418 q 856 689 893 614 q 754 806 819 764 q 600 847 689 847 q 447 806 513 847 q 344 689 381 764 q 307 515 307 614 q 344 343 307 418 q 446 225 381 268 q 599 182 511 182 m 1154 919 l 153 11 l 56 117 l 1058 1025 l 1154 919 z "},"∞":{"ha":1282,"x_min":56,"x_max":1226,"o":"m 56 404 q 94 561 56 493 q 202 669 133 629 q 358 708 271 708 q 513 672 449 708 q 642 550 578 636 q 770 672 706 636 q 924 708 835 708 q 1081 669 1013 708 q 1188 561 1149 629 q 1226 404 1226 493 q 1188 249 1226 317 q 1081 141 1149 181 q 924 101 1013 101 q 770 138 835 101 q 642 258 706 174 q 513 138 578 174 q 358 101 449 101 q 202 141 271 101 q 94 249 133 181 q 56 404 56 317 m 247 404 q 278 318 247 351 q 358 285 308 285 q 456 316 414 285 q 517 404 497 347 q 456 493 497 463 q 358 524 415 524 q 278 491 308 524 q 247 404 247 458 m 765 404 q 826 316 785 347 q 924 285 868 285 q 1004 318 974 285 q 1035 404 1035 351 q 1004 490 1035 457 q 924 524 974 524 q 826 493 868 524 q 765 404 785 463 z "},"∫":{"ha":678,"x_min":42,"x_max":636,"o":"m 164 -17 l 42 -17 l 42 178 l 147 178 q 210 201 189 178 q 231 282 231 224 l 231 747 q 267 906 231 839 q 367 1009 303 972 q 514 1046 431 1046 l 636 1046 l 636 851 l 531 851 q 468 828 489 851 q 447 747 447 806 l 447 282 q 411 124 447 192 q 312 20 375 57 q 164 -17 249 -17 z "},"∆":{"ha":1003,"x_min":69,"x_max":933,"o":"m 933 0 l 69 0 l 69 189 l 403 1028 l 600 1028 l 933 189 l 933 0 m 479 660 l 294 189 l 711 189 l 522 658 q 510 692 517 675 q 501 724 504 710 q 489 685 497 707 q 479 660 481 663 z "},"∏":{"ha":1006,"x_min":107,"x_max":899,"o":"m 332 0 l 107 0 l 107 1028 l 899 1028 l 899 0 l 674 0 l 674 819 l 332 819 l 332 0 z "},"∑":{"ha":829,"x_min":69,"x_max":760,"o":"m 760 0 l 69 0 l 69 225 l 356 521 l 69 804 l 69 1028 l 760 1028 l 760 819 l 332 819 l 624 521 l 326 208 l 760 208 l 760 0 z "},"√":{"ha":1049,"x_min":0,"x_max":1021,"o":"m 272 0 l 0 693 l 222 693 l 378 278 l 661 1029 l 1021 1029 l 1021 835 l 807 835 l 481 0 l 272 0 z "},"µ":{"ha":836,"x_min":72,"x_max":756,"o":"m 288 -333 l 72 -333 l 72 694 l 286 694 l 286 336 q 317 212 286 251 q 413 172 347 172 q 512 210 482 172 q 542 333 542 249 l 542 694 l 756 694 l 756 0 l 554 0 l 540 78 q 472 8 508 35 q 376 -18 436 -18 q 307 0 335 -18 q 260 46 279 18 l 288 -333 z "},"∂":{"ha":915,"x_min":64,"x_max":851,"o":"m 64 364 q 114 569 64 485 q 247 699 164 654 q 428 743 331 743 q 523 731 469 743 q 611 683 576 719 l 603 674 q 551 778 585 719 q 466 901 518 838 q 339 1028 414 965 l 613 1028 q 753 831 700 933 q 828 628 806 729 q 851 436 851 526 q 817 229 851 315 q 726 88 783 143 q 596 8 668 33 q 447 -18 524 -18 q 258 25 346 -18 q 117 153 171 68 q 64 364 64 239 m 279 363 q 302 264 279 307 q 365 197 325 221 q 457 172 406 172 q 548 197 508 172 q 610 264 588 221 q 633 363 633 307 q 610 461 633 418 q 548 528 588 504 q 457 553 508 553 q 364 528 404 553 q 301 461 324 504 q 279 363 279 418 z "},"%":{"ha":1374,"x_min":36,"x_max":1338,"o":"m 592 768 q 556 623 592 686 q 458 524 521 560 q 314 489 396 489 q 170 524 233 489 q 72 623 107 560 q 36 768 36 686 q 72 913 36 850 q 170 1012 107 976 q 314 1047 233 1047 q 458 1012 396 1047 q 556 913 521 976 q 592 768 592 850 m 425 768 q 394 853 425 821 q 314 886 364 886 q 233 853 264 886 q 203 768 203 821 q 233 683 203 717 q 314 650 264 650 q 394 683 364 650 q 425 768 425 717 m 1181 1025 l 400 0 l 190 0 l 971 1025 l 1181 1025 m 1338 261 q 1302 116 1338 179 q 1204 17 1267 53 q 1060 -18 1142 -18 q 916 17 979 -18 q 817 116 853 53 q 782 261 782 179 q 817 406 782 343 q 916 505 853 469 q 1060 540 979 540 q 1204 505 1142 540 q 1302 406 1267 469 q 1338 261 1338 343 m 1171 261 q 1140 347 1171 314 q 1060 379 1110 379 q 979 347 1010 379 q 949 261 949 314 q 979 176 949 210 q 1060 143 1010 143 q 1140 176 1110 143 q 1171 261 1171 210 z "},"‰":{"ha":1985,"x_min":36,"x_max":1949,"o":"m 592 768 q 556 623 592 686 q 458 524 521 560 q 314 489 396 489 q 170 524 233 489 q 72 623 107 560 q 36 768 36 686 q 72 913 36 850 q 170 1012 107 976 q 314 1047 233 1047 q 458 1012 396 1047 q 556 913 521 976 q 592 768 592 850 m 425 768 q 394 853 425 821 q 314 886 364 886 q 233 853 264 886 q 203 768 203 821 q 233 683 203 717 q 314 650 264 650 q 394 683 364 650 q 425 768 425 717 m 1181 1025 l 400 0 l 190 0 l 971 1025 l 1181 1025 m 1338 261 q 1302 116 1338 179 q 1204 17 1267 53 q 1060 -18 1142 -18 q 916 17 979 -18 q 817 116 853 53 q 782 261 782 179 q 817 406 782 343 q 916 505 853 469 q 1060 540 979 540 q 1204 505 1142 540 q 1302 406 1267 469 q 1338 261 1338 343 m 1171 261 q 1140 347 1171 314 q 1060 379 1110 379 q 979 347 1010 379 q 949 261 949 314 q 979 176 949 210 q 1060 143 1010 143 q 1140 176 1110 143 q 1171 261 1171 210 m 1949 261 q 1913 116 1949 179 q 1815 17 1878 53 q 1671 -18 1753 -18 q 1527 17 1590 -18 q 1428 116 1464 53 q 1393 261 1393 179 q 1428 406 1393 343 q 1527 505 1464 469 q 1671 540 1590 540 q 1815 505 1753 540 q 1913 406 1878 469 q 1949 261 1949 343 m 1782 261 q 1751 347 1782 314 q 1671 379 1721 379 q 1590 347 1621 379 q 1560 261 1560 314 q 1590 176 1560 210 q 1671 143 1621 143 q 1751 176 1721 143 q 1782 261 1782 210 z "},"↑":{"ha":1217,"x_min":83,"x_max":1133,"o":"m 196 571 l 83 683 l 608 1208 l 1133 683 l 1021 571 l 688 904 l 688 0 l 529 0 l 529 904 l 196 571 z "},"↗":{"ha":1196,"x_min":83,"x_max":1113,"o":"m 369 869 l 369 1028 l 1113 1028 l 1113 286 l 953 286 l 953 757 l 196 0 l 83 111 l 840 869 l 369 869 z "},"→":{"ha":1404,"x_min":83,"x_max":1321,"o":"m 683 843 l 796 954 l 1321 429 l 796 -94 l 683 18 l 1017 351 l 83 351 l 83 508 l 1017 510 l 683 843 z "},"↘":{"ha":1193,"x_min":83,"x_max":1110,"o":"m 951 744 l 1110 743 l 1110 0 l 368 1 l 368 161 l 839 161 l 83 917 l 194 1028 l 951 272 l 951 744 z "},"↓":{"ha":1215,"x_min":83,"x_max":1132,"o":"m 1022 467 l 1132 353 l 607 -172 l 83 353 l 197 467 l 529 133 l 529 1065 l 688 1065 l 688 132 l 1022 467 z "},"↙":{"ha":1197,"x_min":83,"x_max":1114,"o":"m 828 158 l 826 0 l 83 0 l 85 742 l 244 742 l 244 271 l 1003 1031 l 1114 919 l 356 158 l 828 158 z "},"←":{"ha":1406,"x_min":83,"x_max":1322,"o":"m 722 8 l 610 -106 l 83 418 l 610 944 l 722 833 l 389 499 l 1322 499 l 1322 340 l 389 340 l 722 8 z "},"↖":{"ha":1160,"x_min":83,"x_max":1076,"o":"m 83 1028 l 825 1026 l 825 867 l 354 867 l 1076 111 l 965 0 l 242 756 l 242 283 l 83 285 l 83 1028 z "},"↔":{"ha":1631,"x_min":83,"x_max":1547,"o":"m 1432 314 l 706 314 l 706 474 l 1433 471 l 1432 314 m 1117 596 l 1117 821 l 1547 394 l 1117 -36 l 1117 188 l 1336 392 l 1117 596 m 942 474 l 943 314 l 215 314 l 215 471 l 942 474 m 83 394 l 514 821 l 514 596 l 294 392 l 514 188 l 514 -36 l 83 394 z "},"↕":{"ha":1024,"x_min":83,"x_max":940,"o":"m 590 1079 l 590 353 l 431 353 l 433 1081 l 590 1079 m 308 764 l 83 764 l 510 1194 l 940 764 l 717 764 l 513 983 l 308 764 m 431 589 l 590 590 l 590 -137 l 433 -137 l 431 589 m 510 -269 l 83 161 l 308 161 l 513 -58 l 717 161 l 940 161 l 510 -269 z "},"●":{"ha":1242,"x_min":83,"x_max":1158,"o":"m 621 -75 q 412 -33 510 -75 q 240 83 314 8 q 125 254 167 157 q 83 463 83 351 q 125 672 83 574 q 241 843 167 769 q 413 958 315 917 q 621 1000 510 1000 q 829 958 732 1000 q 1000 842 926 917 q 1116 671 1074 768 q 1158 463 1158 574 q 1117 253 1158 351 q 1001 82 1075 156 q 829 -33 926 8 q 621 -75 732 -75 z "},"○":{"ha":1242,"x_min":83,"x_max":1158,"o":"m 621 -75 q 412 -33 510 -75 q 240 83 314 8 q 125 254 167 157 q 83 463 83 351 q 125 672 83 574 q 241 843 167 769 q 413 958 315 917 q 621 1000 510 1000 q 829 958 732 1000 q 1000 842 926 917 q 1116 671 1074 768 q 1158 463 1158 574 q 1117 253 1158 351 q 1001 82 1075 156 q 829 -33 926 8 q 621 -75 732 -75 m 621 64 q 775 95 703 64 q 902 181 847 126 q 988 308 957 236 q 1019 463 1019 381 q 988 617 1019 544 q 902 744 957 689 q 775 830 847 799 q 621 861 703 861 q 467 830 539 861 q 340 744 394 799 q 253 617 285 689 q 222 463 222 544 q 253 308 222 381 q 340 181 285 236 q 467 95 394 126 q 621 64 539 64 z "},"◊":{"ha":922,"x_min":83,"x_max":839,"o":"m 83 493 l 360 986 l 563 986 l 299 493 l 83 493 m 360 986 l 563 986 l 839 493 l 624 493 l 360 986 m 563 0 l 360 0 l 83 493 l 299 493 l 563 0 m 839 493 l 563 0 l 360 0 l 624 493 l 839 493 z "},"■":{"ha":1153,"x_min":83,"x_max":1069,"o":"m 83 0 l 83 986 l 1069 986 l 1069 0 l 83 0 z "},"□":{"ha":1153,"x_min":83,"x_max":1069,"o":"m 83 0 l 83 986 l 1069 986 l 1069 0 l 83 0 m 914 831 l 239 831 l 239 156 l 914 156 l 914 831 z "},"▲":{"ha":1342,"x_min":83,"x_max":1258,"o":"m 83 0 l 1258 0 l 671 986 l 83 0 z "},"△":{"ha":1342,"x_min":83,"x_max":1258,"o":"m 322 138 l 1019 138 l 671 721 l 322 138 m 672 992 l 1258 6 l 83 6 l 672 992 z "},"☮":{"ha":1242,"x_min":83,"x_max":1158,"o":"m 621 -75 q 412 -33 510 -75 q 240 83 314 8 q 125 254 167 157 q 83 463 83 351 q 125 672 83 574 q 241 843 167 769 q 413 958 315 917 q 621 1000 510 1000 q 829 958 732 1000 q 1000 842 926 917 q 1116 671 1074 768 q 1158 463 1158 574 q 1117 253 1158 351 q 1001 82 1075 156 q 829 -33 926 8 q 621 -75 732 -75 m 621 64 q 775 95 703 64 q 902 181 847 126 q 988 308 957 236 q 1019 463 1019 381 q 988 617 1019 544 q 902 744 957 689 q 775 830 847 799 q 621 861 703 861 q 467 830 539 861 q 340 744 394 799 q 253 617 285 689 q 222 463 222 544 q 253 308 222 381 q 340 181 285 236 q 467 95 394 126 q 621 64 539 64 m 683 946 l 683 1 l 558 1 l 558 946 l 683 946 m 621 571 l 1033 281 l 961 178 l 621 418 l 281 178 l 208 281 l 621 571 z "},"✓":{"ha":950,"x_min":56,"x_max":894,"o":"m 357 10 l 56 335 l 175 461 l 351 274 l 763 769 l 894 656 l 357 10 z "},"@":{"ha":1343,"x_min":69,"x_max":1274,"o":"m 369 317 q 428 453 369 400 q 603 515 486 506 l 779 529 l 779 539 q 672 633 779 633 q 578 611 611 633 q 546 546 546 589 l 385 546 q 466 717 385 653 q 682 781 547 781 q 894 708 819 781 q 968 499 968 635 l 968 315 q 1029 240 968 240 q 1108 307 1078 240 q 1138 481 1138 374 q 1104 657 1138 576 q 1009 797 1071 738 q 863 888 947 856 q 679 919 779 919 q 490 884 576 919 q 339 783 403 849 q 240 631 275 718 q 206 439 206 543 q 241 247 206 335 q 340 93 276 158 q 490 -8 404 28 q 679 -43 576 -43 q 951 43 818 -43 l 1008 -75 q 679 -171 860 -171 q 436 -126 547 -171 q 242 2 325 -81 q 115 196 160 85 q 69 439 69 307 q 115 681 69 571 q 243 874 161 792 q 437 1002 325 957 q 679 1047 549 1047 q 917 1005 808 1047 q 1105 886 1025 963 q 1229 706 1185 810 q 1274 481 1274 603 q 1240 286 1274 368 q 1145 160 1207 204 q 997 115 1083 115 q 811 228 850 115 q 734 148 794 181 q 600 115 674 115 q 431 169 492 115 q 369 317 369 222 m 567 325 q 588 274 567 290 q 654 258 610 258 q 747 287 714 258 q 781 367 781 315 l 781 400 l 682 392 q 592 371 617 386 q 567 325 567 356 z "},"&":{"ha":1069,"x_min":64,"x_max":1050,"o":"m 346 592 l 433 478 q 355 432 386 458 q 308 374 324 406 q 292 303 292 342 q 342 203 292 239 q 476 167 392 167 q 676 255 606 167 q 747 504 747 343 l 957 504 q 894 228 957 346 q 717 47 831 111 q 447 -18 603 -18 q 248 20 335 -18 q 113 125 161 58 q 64 279 64 192 q 97 407 64 347 q 194 514 131 467 q 346 592 257 561 m 533 513 l 433 632 q 517 698 489 656 q 546 796 546 740 q 526 856 546 835 q 471 878 507 878 q 413 856 435 878 q 392 797 392 835 q 401 744 392 769 q 430 692 410 719 q 481 629 450 664 l 1050 0 l 803 0 l 306 551 q 216 676 242 621 q 190 796 190 732 q 227 924 190 868 q 327 1013 264 981 q 471 1046 390 1046 q 613 1015 551 1046 q 708 930 674 985 q 743 804 743 875 q 693 650 743 719 q 533 513 643 581 z "},"¶":{"ha":864,"x_min":35,"x_max":729,"o":"m 35 747 q 67 896 35 833 q 161 993 100 958 q 304 1028 222 1028 l 532 1028 l 532 -136 l 351 -136 l 351 465 l 304 465 q 160 499 221 465 q 67 597 100 533 q 35 747 35 661 m 729 -139 l 665 -139 l 665 1025 l 729 1025 l 729 -139 z "},"§":{"ha":686,"x_min":39,"x_max":647,"o":"m 647 535 q 614 422 647 472 q 525 343 581 372 q 404 314 469 314 l 431 381 q 578 314 535 357 q 621 196 621 271 q 583 86 621 135 q 480 10 546 38 q 331 -18 414 -18 q 188 11 250 -18 q 92 94 126 40 q 57 217 57 147 l 260 217 q 281 160 260 182 q 340 138 301 138 q 401 155 379 138 q 422 200 422 172 q 401 240 422 224 q 344 265 381 257 l 215 296 q 79 370 119 319 q 39 493 39 421 q 72 606 39 556 q 161 686 106 657 q 282 715 217 715 l 256 649 q 108 715 151 672 q 65 833 65 758 q 103 944 65 896 q 207 1019 142 992 q 356 1047 272 1047 q 498 1018 436 1047 q 594 936 560 989 q 629 813 629 883 l 426 813 q 406 870 426 849 q 346 892 385 892 q 285 874 307 892 q 264 829 264 857 q 285 789 264 804 q 342 764 306 774 l 471 732 q 607 658 567 708 q 647 535 647 608 m 449 514 q 423 583 449 554 q 343 613 397 613 q 263 583 289 613 q 238 514 238 554 q 263 445 238 474 q 343 417 289 417 q 423 445 397 417 q 449 514 449 474 z "},"©":{"ha":1143,"x_min":56,"x_max":1088,"o":"m 572 -18 q 370 23 464 -18 q 206 137 276 64 q 95 307 135 210 q 56 515 56 404 q 95 723 56 626 q 206 892 135 819 q 370 1006 276 965 q 572 1047 464 1047 q 774 1006 681 1047 q 938 892 867 965 q 1048 723 1008 819 q 1088 515 1088 626 q 1048 307 1088 404 q 938 137 1008 210 q 774 23 867 64 q 572 -18 681 -18 m 572 107 q 724 138 654 107 q 846 225 793 169 q 928 355 899 281 q 957 515 957 429 q 928 676 957 601 q 847 806 899 750 q 724 892 794 861 q 572 922 654 922 q 420 891 490 922 q 297 804 350 860 q 215 675 244 749 q 186 515 186 601 q 215 355 186 429 q 297 225 244 281 q 420 138 350 169 q 572 107 490 107 m 308 515 q 342 656 308 594 q 435 751 376 717 q 571 786 494 786 q 756 728 685 786 q 833 568 826 669 l 675 568 q 576 644 657 644 q 497 609 528 644 q 467 515 467 574 q 496 419 467 454 q 575 385 525 385 q 675 461 658 385 l 833 461 q 794 348 829 397 q 703 271 760 299 q 575 243 647 243 q 434 277 494 243 q 341 372 374 311 q 308 515 308 433 z "},"®":{"ha":725,"x_min":56,"x_max":669,"o":"m 364 435 q 207 475 276 435 q 97 585 138 515 q 56 740 56 654 q 97 896 56 826 q 208 1006 138 965 q 364 1046 278 1046 q 521 1006 451 1046 q 630 897 590 967 q 669 740 669 828 q 630 584 669 653 q 521 475 590 515 q 364 435 451 435 m 364 493 q 490 525 435 493 q 576 613 544 557 q 607 740 607 669 q 576 868 607 813 q 490 956 544 924 q 364 988 435 988 q 238 955 293 988 q 150 867 182 922 q 118 740 118 811 q 150 613 118 669 q 238 525 182 557 q 364 493 293 493 m 299 572 l 236 572 l 236 918 l 381 918 q 474 890 439 918 q 510 814 510 863 q 491 752 510 779 q 440 711 472 725 l 514 572 l 446 572 l 383 694 l 299 694 l 299 572 m 443 807 q 379 858 443 858 l 299 858 l 299 751 l 379 751 q 426 767 410 751 q 443 807 443 782 z "},"℗":{"ha":725,"x_min":56,"x_max":669,"o":"m 364 435 q 207 475 276 435 q 97 585 138 515 q 56 740 56 654 q 97 896 56 826 q 208 1006 138 965 q 364 1046 278 1046 q 521 1006 451 1046 q 630 897 590 967 q 669 740 669 828 q 630 584 669 653 q 521 475 590 515 q 364 435 451 435 m 364 493 q 490 525 435 493 q 576 613 544 557 q 607 740 607 669 q 576 868 607 813 q 490 956 544 924 q 364 988 435 988 q 238 955 293 988 q 150 867 182 922 q 118 740 118 811 q 150 613 118 669 q 238 525 182 557 q 364 493 293 493 m 314 567 l 251 567 l 251 910 l 392 910 q 488 878 451 910 q 525 793 525 846 q 489 699 525 733 q 392 664 453 664 l 314 664 l 314 567 m 314 850 l 314 724 l 392 724 q 458 789 458 724 q 392 850 458 850 l 314 850 z "},"™":{"ha":914,"x_min":36,"x_max":831,"o":"m 167 956 l 36 956 l 36 1028 l 375 1028 l 375 956 l 244 956 l 244 631 l 167 631 l 167 956 m 493 631 l 421 631 l 421 1028 l 493 1028 l 626 707 l 758 1028 l 831 1028 l 831 631 l 758 631 l 758 874 l 657 631 l 594 631 l 493 871 l 493 631 z "},"°":{"ha":475,"x_min":42,"x_max":433,"o":"m 433 851 q 408 751 433 796 q 338 681 382 707 q 238 656 294 656 q 138 681 182 656 q 67 751 93 707 q 42 851 42 796 q 67 952 42 908 q 138 1022 93 996 q 238 1047 182 1047 q 338 1022 294 1047 q 408 952 382 996 q 433 851 433 908 m 319 851 q 297 915 319 892 q 238 939 274 939 q 178 915 200 939 q 156 851 156 890 q 178 789 156 813 q 238 765 200 765 q 297 789 274 765 q 319 851 319 813 z "},"|":{"ha":489,"x_min":163,"x_max":326,"o":"m 163 -125 l 163 1094 l 326 1094 l 326 -125 l 163 -125 z "},"¦":{"ha":489,"x_min":163,"x_max":326,"o":"m 163 -125 l 163 353 l 326 353 l 326 -125 l 163 -125 m 326 1094 l 326 617 l 163 617 l 163 1094 l 326 1094 z "},"†":{"ha":494,"x_min":28,"x_max":467,"o":"m 185 408 l 185 1028 l 310 1028 l 310 408 l 185 408 m 28 769 l 28 889 l 467 889 l 467 769 l 28 769 z "},"‡":{"ha":499,"x_min":28,"x_max":471,"o":"m 185 408 l 185 1028 l 310 1028 l 310 408 l 185 408 m 28 769 l 28 889 l 467 889 l 467 769 l 28 769 m 32 547 l 32 667 l 471 667 l 471 547 l 32 547 z "},"℮":{"ha":1082,"x_min":83,"x_max":999,"o":"m 83 490 q 142 749 83 638 q 305 923 201 860 q 542 986 408 986 q 779 931 676 986 q 940 774 882 876 q 999 529 999 672 q 999 490 999 510 q 997 456 999 471 l 222 456 l 222 206 q 363 86 276 129 q 558 43 449 43 q 756 94 665 43 q 889 228 846 146 l 942 208 q 788 47 890 107 q 556 -12 686 -12 q 308 51 414 -12 q 142 227 201 114 q 83 490 83 340 m 222 758 l 222 506 l 860 506 l 860 783 q 724 892 808 854 q 542 931 640 931 q 356 883 438 931 q 222 758 274 836 z "},"№":{"ha":1822,"x_min":107,"x_max":1760,"o":"m 329 0 l 107 0 l 107 1028 l 329 1028 l 832 269 l 763 269 l 763 1028 l 985 1028 l 985 0 l 763 0 l 260 757 l 329 757 l 329 0 m 1760 718 q 1716 551 1760 625 q 1596 436 1672 478 q 1421 394 1519 394 q 1247 438 1325 394 q 1124 554 1169 481 q 1079 718 1079 628 q 1124 887 1079 813 q 1246 1004 1168 961 q 1421 1047 1324 1047 q 1594 1004 1518 1047 q 1715 887 1671 961 q 1760 718 1760 813 m 1563 717 q 1545 791 1563 760 q 1496 840 1528 822 q 1421 857 1464 857 q 1345 840 1378 857 q 1294 791 1313 822 q 1276 717 1276 760 q 1295 648 1276 679 q 1347 599 1314 617 q 1421 581 1381 581 q 1493 599 1461 581 q 1544 647 1525 617 q 1563 717 1563 678 m 1732 154 l 1107 154 l 1107 338 l 1732 338 l 1732 154 z "},"^":{"ha":744,"x_min":83,"x_max":661,"o":"m 264 556 l 83 556 l 268 1028 l 476 1028 l 661 556 l 481 556 l 372 858 l 264 556 z "},"′":{"ha":275,"x_min":50,"x_max":224,"o":"m 217 946 l 183 674 l 89 674 l 56 946 q 76 1023 50 999 q 136 1047 103 1047 q 197 1023 169 1047 q 217 946 224 999 z "},"̈":{"ha":633,"x_min":72,"x_max":561,"o":"m 179 1081 q 103 1112 135 1081 q 72 1189 72 1143 q 104 1265 72 1233 q 179 1296 136 1296 q 255 1264 224 1296 q 286 1189 286 1232 q 255 1113 286 1144 q 179 1081 224 1081 m 454 1081 q 378 1112 410 1081 q 347 1189 347 1143 q 379 1265 347 1233 q 454 1296 411 1296 q 530 1264 499 1296 q 561 1189 561 1232 q 530 1113 561 1144 q 454 1081 499 1081 z "},"̇":{"ha":338,"x_min":56,"x_max":282,"o":"m 168 1081 q 88 1114 121 1081 q 56 1194 56 1147 q 89 1275 56 1242 q 168 1308 122 1308 q 249 1274 215 1308 q 282 1194 282 1240 q 249 1114 282 1147 q 168 1081 215 1081 z "},"̀":{"ha":433,"x_min":69,"x_max":378,"o":"m 378 1071 l 224 1071 l 69 1301 l 261 1301 l 378 1071 z "},"́":{"ha":433,"x_min":56,"x_max":364,"o":"m 364 1301 l 210 1071 l 56 1071 l 172 1301 l 364 1301 z "},"̋":{"ha":697,"x_min":56,"x_max":601,"o":"m 357 1301 l 203 1071 l 56 1071 l 186 1301 l 357 1301 m 601 1301 l 447 1071 l 300 1071 l 431 1301 l 601 1301 z "},"̂":{"ha":592,"x_min":56,"x_max":536,"o":"m 217 1071 l 56 1071 l 193 1315 l 399 1315 l 536 1071 l 375 1071 l 296 1217 l 217 1071 z "},"̌":{"ha":592,"x_min":56,"x_max":536,"o":"m 193 1071 l 56 1315 l 217 1315 l 296 1169 l 375 1315 l 536 1315 l 399 1071 l 193 1071 z "},"̆":{"ha":650,"x_min":79,"x_max":571,"o":"m 421 1304 l 571 1304 q 504 1124 571 1190 q 326 1057 438 1057 q 146 1124 213 1057 q 79 1304 79 1190 l 231 1304 q 256 1224 231 1253 q 326 1196 281 1196 q 396 1224 371 1196 q 421 1304 421 1253 z "},"̊":{"ha":494,"x_min":51,"x_max":443,"o":"m 247 1046 q 107 1100 163 1046 q 51 1239 51 1154 q 77 1338 51 1294 q 147 1408 103 1382 q 247 1433 192 1433 q 347 1408 303 1433 q 417 1338 392 1382 q 443 1239 443 1294 q 417 1141 443 1185 q 348 1072 392 1097 q 247 1046 304 1046 m 247 1154 q 307 1178 285 1154 q 329 1242 329 1203 q 306 1301 329 1278 q 247 1325 283 1325 q 188 1302 211 1325 q 165 1242 165 1279 q 188 1178 165 1203 q 247 1154 210 1154 z "},"̃":{"ha":649,"x_min":49,"x_max":600,"o":"m 181 1075 l 61 1074 q 89 1238 49 1176 q 206 1299 129 1299 q 273 1285 243 1299 q 328 1256 303 1272 q 375 1226 353 1239 q 419 1213 397 1213 q 458 1237 447 1213 q 469 1299 469 1261 l 589 1299 q 558 1129 600 1185 q 443 1074 517 1074 q 373 1087 404 1074 q 317 1117 342 1100 q 270 1147 292 1133 q 229 1160 249 1160 q 192 1138 203 1160 q 181 1075 181 1115 z "},"̄":{"ha":569,"x_min":83,"x_max":486,"o":"m 83 1107 l 83 1251 l 486 1251 l 486 1107 l 83 1107 z "},"̒":{"ha":318,"x_min":56,"x_max":263,"o":"m 140 1249 l 131 1265 q 150 1278 138 1274 q 178 1282 163 1282 q 240 1256 217 1282 q 263 1193 263 1231 q 235 1124 263 1150 q 161 1099 207 1099 q 85 1132 114 1099 q 56 1221 56 1165 q 77 1315 56 1274 q 142 1378 99 1357 q 251 1390 186 1400 l 251 1325 q 160 1313 188 1333 q 140 1249 133 1293 z "},"̦":{"ha":318,"x_min":56,"x_max":263,"o":"m 178 -190 l 188 -207 q 168 -219 181 -215 q 140 -224 156 -224 q 78 -198 101 -224 q 56 -135 56 -172 q 83 -66 56 -92 q 157 -40 111 -40 q 234 -74 206 -40 q 263 -162 263 -107 q 241 -256 263 -214 q 176 -319 219 -299 q 67 -332 133 -340 l 67 -267 q 158 -255 132 -275 q 178 -190 185 -235 z "},"̧":{"ha":386,"x_min":42,"x_max":331,"o":"m 42 -296 l 42 -207 q 91 -226 68 -218 q 143 -233 114 -233 q 202 -217 183 -233 q 221 -176 221 -201 q 205 -140 221 -153 q 160 -128 189 -128 q 123 -131 139 -128 q 92 -139 107 -133 l 72 -85 l 142 60 l 201 58 l 201 13 l 150 -86 l 142 -76 q 210 -58 165 -58 q 265 -70 238 -58 q 312 -108 293 -82 q 331 -176 331 -133 q 279 -285 331 -247 q 154 -322 228 -322 q 92 -315 118 -322 q 42 -296 65 -307 z "},"̸":{"ha":811,"x_min":56,"x_max":756,"o":"m 756 767 l 247 -61 l 56 -61 l 574 767 l 756 767 z "},"´":{"ha":433,"x_min":56,"x_max":364,"o":"m 364 1301 l 210 1071 l 56 1071 l 172 1301 l 364 1301 z "},"˘":{"ha":650,"x_min":79,"x_max":571,"o":"m 421 1304 l 571 1304 q 504 1124 571 1190 q 326 1057 438 1057 q 146 1124 213 1057 q 79 1304 79 1190 l 231 1304 q 256 1224 231 1253 q 326 1196 281 1196 q 396 1224 371 1196 q 421 1304 421 1253 z "},"ˇ":{"ha":592,"x_min":56,"x_max":536,"o":"m 193 1071 l 56 1315 l 217 1315 l 296 1169 l 375 1315 l 536 1315 l 399 1071 l 193 1071 z "},"¸":{"ha":386,"x_min":42,"x_max":331,"o":"m 42 -296 l 42 -207 q 91 -226 68 -218 q 143 -233 114 -233 q 202 -217 183 -233 q 221 -176 221 -201 q 205 -140 221 -153 q 160 -128 189 -128 q 123 -131 139 -128 q 92 -139 107 -133 l 72 -85 l 142 60 l 201 58 l 201 13 l 150 -86 l 142 -76 q 210 -58 165 -58 q 265 -70 238 -58 q 312 -108 293 -82 q 331 -176 331 -133 q 279 -285 331 -247 q 154 -322 228 -322 q 92 -315 118 -322 q 42 -296 65 -307 z "},"ˆ":{"ha":592,"x_min":56,"x_max":536,"o":"m 217 1071 l 56 1071 l 193 1315 l 399 1315 l 536 1071 l 375 1071 l 296 1217 l 217 1071 z "},"¨":{"ha":633,"x_min":72,"x_max":561,"o":"m 179 1081 q 103 1112 135 1081 q 72 1189 72 1143 q 104 1265 72 1233 q 179 1296 136 1296 q 255 1264 224 1296 q 286 1189 286 1232 q 255 1113 286 1144 q 179 1081 224 1081 m 454 1081 q 378 1112 410 1081 q 347 1189 347 1143 q 379 1265 347 1233 q 454 1296 411 1296 q 530 1264 499 1296 q 561 1189 561 1232 q 530 1113 561 1144 q 454 1081 499 1081 z "},"˙":{"ha":338,"x_min":56,"x_max":282,"o":"m 168 1081 q 88 1114 121 1081 q 56 1194 56 1147 q 89 1275 56 1242 q 168 1308 122 1308 q 249 1274 215 1308 q 282 1194 282 1240 q 249 1114 282 1147 q 168 1081 215 1081 z "},"`":{"ha":433,"x_min":69,"x_max":378,"o":"m 378 1071 l 224 1071 l 69 1301 l 261 1301 l 378 1071 z "},"˝":{"ha":697,"x_min":56,"x_max":601,"o":"m 357 1301 l 203 1071 l 56 1071 l 186 1301 l 357 1301 m 601 1301 l 447 1071 l 300 1071 l 431 1301 l 601 1301 z "},"¯":{"ha":569,"x_min":83,"x_max":486,"o":"m 83 1107 l 83 1251 l 486 1251 l 486 1107 l 83 1107 z "},"˛":{"ha":363,"x_min":63,"x_max":314,"o":"m 188 0 l 314 0 q 229 -51 256 -19 q 203 -112 203 -83 q 219 -151 203 -135 q 261 -168 235 -168 q 304 -158 283 -168 l 304 -294 q 222 -310 269 -310 q 106 -265 149 -310 q 63 -161 63 -221 q 93 -68 63 -112 q 188 0 124 -24 z "},"˚":{"ha":494,"x_min":51,"x_max":443,"o":"m 247 1046 q 107 1100 163 1046 q 51 1239 51 1154 q 77 1338 51 1294 q 147 1408 103 1382 q 247 1433 192 1433 q 347 1408 303 1433 q 417 1338 392 1382 q 443 1239 443 1294 q 417 1141 443 1185 q 348 1072 392 1097 q 247 1046 304 1046 m 247 1154 q 307 1178 285 1154 q 329 1242 329 1203 q 306 1301 329 1278 q 247 1325 283 1325 q 188 1302 211 1325 q 165 1242 165 1279 q 188 1178 165 1203 q 247 1154 210 1154 z "},"˜":{"ha":649,"x_min":49,"x_max":600,"o":"m 181 1075 l 61 1074 q 89 1238 49 1176 q 206 1299 129 1299 q 273 1285 243 1299 q 328 1256 303 1272 q 375 1226 353 1239 q 419 1213 397 1213 q 458 1237 447 1213 q 469 1299 469 1261 l 589 1299 q 558 1129 600 1185 q 443 1074 517 1074 q 373 1087 404 1074 q 317 1117 342 1100 q 270 1147 292 1133 q 229 1160 249 1160 q 192 1138 203 1160 q 181 1075 181 1115 z "},"":{"ha":2415,"x_min":83,"x_max":2193,"o":"m 83 0 l 83 972 l 383 972 l 383 0 l 83 0 m 446 689 l 446 972 l 746 972 l 746 689 l 446 689 m 807 0 l 807 972 l 1108 972 l 1108 0 l 807 0 m 1169 689 l 1169 972 l 1469 972 l 1469 689 l 1169 689 m 1531 0 l 1531 972 l 1832 972 l 1832 0 l 1531 0 m 1893 689 l 1893 972 l 2193 972 l 2193 689 l 1893 689 m 1893 343 l 1893 628 l 2193 628 l 2193 343 l 1893 343 z "},"ı":{"ha":375,"x_min":81,"x_max":294,"o":"m 81 0 l 81 694 l 294 694 l 294 0 l 81 0 z "},"ȷ":{"ha":375,"x_min":-75,"x_max":294,"o":"m -75 -339 l -40 -150 q -14 -157 -25 -156 q 13 -158 -3 -158 q 67 -136 53 -158 q 81 -68 81 -114 l 81 694 l 294 694 l 294 -96 q 226 -284 294 -212 q 33 -356 158 -356 q -13 -353 11 -356 q -75 -339 -37 -350 z "},"̵":{"ha":889,"x_min":3,"x_max":522,"o":"m 3 925 l 522 925 l 522 801 l 3 801 l 3 925 z "},"̷":{"ha":401,"x_min":28,"x_max":381,"o":"m 28 407 l 28 556 l 381 724 l 381 575 l 28 407 z "}}}
